<svg width="501" height="616" viewBox="0 0 501 616" fill="none" xmlns="http://www.w3.org/2000/svg">
<path d="M471.76 563.989H8.0191V231.874C8.01821 201.423 14.0154 171.27 25.6683 143.137C37.3211 115.004 54.4014 89.4417 75.9338 67.9099C97.4661 46.3782 123.029 29.2987 151.162 17.6467C179.296 5.99463 209.449 -0.00168996 239.9 9.19498e-05V9.19498e-05C270.349 0.000982837 300.5 5.99928 328.631 17.6525C356.762 29.3057 382.322 46.3857 403.852 67.9171C425.382 89.4486 442.461 115.01 454.113 143.142C465.764 171.273 471.761 201.425 471.76 231.874V563.989Z" fill="#7DBA07"/>
<path d="M8.0191 563.006C8.0191 563.006 22.4421 471.97 46.3425 369.584C70.2429 267.199 103.627 153.47 141.53 108.098C148.172 100.154 155.18 96.4634 160.526 94.7674C163.436 93.7676 166.499 93.2877 169.576 93.3495C176.604 93.4716 182.696 96.4973 187.547 100.079C191.417 103.049 194.946 106.439 198.069 110.188C213.903 128.383 236.609 195.063 255.998 259.736C275.387 324.409 291.459 387.04 294.071 397.189C294.579 387.556 297.001 347.258 306.96 307.496C316.919 267.735 334.368 228.516 364.937 221.04C367.109 220.559 369.313 220.237 371.531 220.076C376.455 219.641 381.415 219.966 386.239 221.04C422.29 229.567 443.131 298.596 455.227 373.967C467.323 449.338 470.674 531.053 471.76 564.953L239.9 563.99L8.0191 563.006Z" fill="#1F5D00"/>
<path d="M133.165 140.329H87.7117C79.3129 151.387 71.959 161.74 65.6159 171.088C59.2727 180.437 53.9404 188.775 49.5986 195.81C36.4307 217.119 26.5327 233.251 19.7486 247.674C12.9645 262.097 9.1925 274.81 8.297 289.281C7.74465 297.708 8.06064 306.169 9.23999 314.531C11.2288 329.097 16.038 343.135 23.3984 355.86C39.6531 383.58 65.392 398.457 87.9355 406.422C102.508 411.597 117.736 414.693 133.172 415.621V376.341C125.412 375.563 117.743 374.05 110.269 371.823C100.273 368.85 90.7267 364.534 81.8909 358.994C77.9643 356.608 74.1793 353.996 70.5547 351.172C66.3199 347.816 62.547 343.916 59.3338 339.571C56.3083 335.453 53.8146 330.97 51.912 326.227C50.1836 321.908 48.9015 317.423 48.0857 312.842C46.8475 305.933 46.6189 298.881 47.4073 291.906C48.1856 284.92 49.9134 278.073 52.5429 271.554C56.7897 260.971 61.7896 249.669 67.685 237.844C73.5804 226.019 80.378 213.679 88.2137 201.04C95.7237 188.917 103.39 177.811 110.968 167.703C118.545 157.595 126.008 148.491 133.165 140.329Z" fill="#F1FF7C"/>
<path d="M373.546 254.194C376.107 264.769 377.187 275.648 376.755 286.52C376.36 297.437 374.088 308.205 370.039 318.351C367.306 325.086 363.695 331.429 359.3 337.218C354.91 343.012 349.699 348.136 343.832 352.428C337.63 357.037 330.397 360.064 322.761 361.247C315.536 362.387 307.985 362.013 299.742 361.03C294.247 360.312 288.664 360.692 283.318 362.149C278.247 363.565 273.571 366.133 269.655 369.652C266.098 372.965 263.384 377.08 261.738 381.653C260.068 386.218 259.009 390.983 258.59 395.825C258.434 397.399 258.217 405.323 258.067 412.84C257.918 420.357 257.864 427.487 258.027 427.487H233.604C233.604 427.487 233.387 423.152 233.36 417.1C233.28 410.197 233.572 403.294 234.235 396.422C234.825 390.531 235.905 384.699 237.464 378.987C239.548 371.489 242.699 364.328 246.819 357.726C249.475 353.455 252.695 349.562 256.392 346.152C260.079 342.722 264.341 339.966 268.983 338.011C274.315 335.827 279.939 335.182 285.631 335.142C291.323 335.101 297.069 335.657 302.666 335.874C308.393 336.141 314.125 335.454 319.626 333.839C325.126 332.222 330.215 329.446 334.551 325.698C348.12 313.826 351.389 297.001 350.216 279.505C349.042 262.009 343.432 243.834 339.198 229.303C337.116 222.152 334.782 214.344 332.177 205.945C329.572 197.547 326.689 188.564 323.52 179.06L335.969 174.569L348.445 170.023C351.67 179.019 354.809 188.313 357.862 197.906C360.914 207.499 363.854 217.386 366.681 227.566C367.929 232.089 369.123 236.569 370.263 241.005C371.403 245.442 372.497 249.838 373.546 254.194Z" fill="#83C00E"/>
<path d="M349.483 271.242C348.61 267.226 347.74 263.21 346.871 259.194C346.003 255.177 345.132 251.17 344.259 247.172C344.158 246.758 344.07 246.426 343.995 246.134L343.798 245.347C343.649 244.764 343.445 243.99 343.12 242.851C342.794 241.711 342.441 240.266 341.858 238.353C339.538 230.307 337.448 223.299 335.935 218.306C334.423 213.313 333.493 210.328 333.493 210.328C332.136 206.074 330.671 201.305 329.009 196.081C327.347 190.857 325.522 185.159 323.534 179.046L335.983 174.555L348.445 170.023C350.894 176.604 353.079 182.716 355.005 188.252C356.932 193.788 358.601 198.754 360.019 203.062C360.317 203.964 363.133 212.56 366.355 223.943C369.578 235.327 373.207 249.377 375.175 261.181C375.629 263.956 376.036 266.894 376.335 270.041C376.633 273.189 376.837 276.561 376.871 280.218C376.871 282.551 376.871 284.695 376.769 286.608C376.667 288.521 376.565 290.204 376.443 291.608L362.977 281.432L349.483 271.242Z" fill="#5B9900"/>
<path d="M466.712 302.659C465.052 299.882 462.826 297.485 460.178 295.624C457.531 293.764 454.522 292.481 451.346 291.859C444.868 290.612 438.157 291.651 432.36 294.8C426.562 297.948 422.037 303.011 419.556 309.125C417.704 307.888 415.731 306.842 413.667 306.004C409.786 304.374 405.611 303.562 401.402 303.618C397.192 303.674 393.04 304.598 389.204 306.33C385.367 308.063 381.929 310.569 379.105 313.69C376.28 316.811 374.129 320.481 372.786 324.47C372.488 325.332 372.23 326.207 371.999 327.089C366.115 324.932 359.798 324.22 353.581 325.013C344.334 326.132 336.342 330.216 330.888 335.915C325.433 341.614 322.516 348.913 323.425 356.484C324.334 364.056 328.92 370.446 335.582 374.666C342.244 378.886 350.982 380.941 360.229 379.822C369.476 378.702 377.467 374.612 382.922 368.913C384.238 367.542 385.422 366.05 386.456 364.456C388.27 365.654 390.197 366.672 392.209 367.495C396.091 369.126 400.268 369.939 404.478 369.883C408.688 369.827 412.842 368.903 416.679 367.169C420.516 365.436 423.955 362.929 426.78 359.807C429.604 356.684 431.755 353.013 433.097 349.022C434.102 346.129 434.703 343.111 434.881 340.053C435.329 340.169 435.777 340.277 436.238 340.372C443.026 341.676 450.056 340.468 456.02 336.974C461.983 333.479 466.473 327.936 468.653 321.377C469.663 318.296 470.012 315.036 469.678 311.811C469.344 308.586 468.333 305.468 466.712 302.659V302.659Z" fill="#83C00E"/>
<path d="M342.495 353.289C342.299 353.288 342.11 353.218 341.96 353.092C341.803 352.963 341.698 352.783 341.661 352.584C341.623 352.364 341.673 352.139 341.8 351.956C341.927 351.773 342.121 351.648 342.339 351.607C348.75 350.467 355.161 349.158 361.532 347.692C367.902 346.227 374.225 344.585 380.486 342.828C395.495 338.528 410.222 333.301 424.583 327.177C439.022 321.018 453.068 313.979 466.645 306.099C466.84 305.988 467.071 305.958 467.289 306.017C467.506 306.075 467.691 306.217 467.805 306.411C467.864 306.512 467.903 306.625 467.918 306.741C467.933 306.858 467.925 306.976 467.893 307.089C467.835 307.307 467.694 307.492 467.499 307.605C453.853 315.515 439.736 322.584 425.228 328.771C410.807 334.923 396.019 340.173 380.948 344.49C374.679 346.288 368.323 347.93 361.952 349.409C355.582 350.888 349.11 352.204 342.672 353.343H342.523L342.495 353.289Z" fill="#5B9900"/>
<path d="M278.325 212.573V212.607V212.648C272.748 225.151 276.351 237.796 284.478 245.924C292.605 254.051 305.251 257.653 317.754 252.07C322.666 264.811 334.199 271.228 345.671 271.228C357.142 271.228 368.655 264.811 373.546 252.043H373.587C386.083 257.626 398.736 254.017 406.829 245.897C414.923 237.776 418.566 225.124 412.982 212.621V212.58V212.546C425.777 207.655 432.168 196.162 432.168 184.67C432.168 173.178 425.784 161.692 413.01 156.821V156.787C418.593 144.284 414.984 131.639 406.856 123.511C398.729 115.384 386.083 111.782 373.614 117.365H373.574C368.682 104.577 357.19 98.1796 345.698 98.1796C334.205 98.1796 322.706 104.577 317.815 117.365C305.312 111.782 292.666 115.384 284.539 123.511C276.412 131.639 272.809 144.284 278.386 156.787V156.821C265.598 161.713 259.2 173.205 259.2 184.704C259.2 196.203 265.537 207.689 278.325 212.573Z" fill="#DEB8FC"/>
<path d="M313.432 191.366C314.612 198.826 318.341 205.647 323.985 210.665C329.629 215.684 336.838 218.59 344.385 218.889C351.932 219.188 359.348 216.861 365.372 212.305C371.395 207.749 375.652 201.245 377.418 193.901C379.183 186.558 378.348 178.83 375.055 172.033C371.761 165.237 366.212 159.792 359.355 156.628C352.497 153.464 344.754 152.775 337.446 154.68C330.137 156.584 323.715 160.964 319.274 167.072C316.748 170.538 314.933 174.468 313.93 178.637C312.928 182.806 312.759 187.132 313.432 191.366V191.366Z" fill="#F1FF7C"/>
<path d="M445.905 330.298C445.078 333.106 442.846 340.833 440.75 350.711C438.653 360.589 436.713 372.61 436.455 384.028C436.387 386.87 436.32 389.977 436.455 393.485C436.583 397.456 436.952 401.417 437.561 405.343C438.07 408.627 438.518 410.594 439.033 412.84C439.549 415.085 440.159 417.589 440.98 422.032C441.801 426.476 442.337 430.343 442.717 433.775C443.097 437.208 443.294 440.119 443.395 442.364C443.291 446.195 443.081 450.127 442.764 454.162C442.448 458.196 442.009 462.312 441.448 466.509C438.867 485.588 433.931 504.273 426.754 522.138C420.877 536.764 413.66 550.815 405.194 564.112H395.466C399.367 555.686 404.082 545.164 409.034 533.217C413.986 521.27 419.251 507.892 424.196 493.76C426.13 488.225 428.158 482.187 429.8 475.443C431.622 468.053 432.717 460.503 433.07 452.9C433.307 447.846 433.192 443.056 432.982 439.176C432.771 435.295 432.466 432.324 432.303 430.926C431.749 425.835 430.932 420.777 429.854 415.77C429 411.829 428.24 409.142 427.962 408.084C426.53 402.657 425.689 394.577 426.605 381.972C427.521 369.367 430.112 352.251 435.621 328.744L440.777 329.517L445.905 330.298Z" fill="#F1FF7C"/>
<path d="M430.411 444.766L427.324 444.854L424.23 444.935C424.222 444.936 424.213 444.935 424.205 444.933C424.197 444.93 424.189 444.926 424.183 444.92C424.176 444.914 424.171 444.907 424.168 444.899C424.164 444.891 424.162 444.883 424.162 444.874C424.158 444.857 424.161 444.839 424.17 444.824C424.179 444.809 424.193 444.798 424.21 444.793C426.492 444.023 428.585 442.776 430.35 441.136C431.895 439.714 433.003 437.881 433.545 435.851C433.99 433.902 433.88 431.866 433.226 429.976C432.89 428.912 432.418 427.894 431.822 426.951C430.104 424.363 427.548 422.447 424.583 421.523C421.284 420.481 417.759 420.382 414.407 421.239C417.615 420.513 420.484 418.725 422.548 416.164C424.386 413.927 425.427 411.141 425.506 408.247C425.585 405.352 424.696 402.514 422.982 400.181C421.417 397.947 419.164 396.287 416.567 395.453C413.971 394.619 411.173 394.657 408.6 395.561C405.84 396.489 403.423 398.224 401.66 400.54C403.125 397.657 403.667 394.393 403.213 391.192C402.791 388.086 401.361 385.204 399.143 382.99C396.85 380.785 393.907 379.379 390.751 378.98C387.677 378.531 384.544 379.182 381.904 380.819C380.321 381.906 378.983 383.313 377.977 384.949C376.971 386.585 376.319 388.413 376.063 390.317C375.408 394.681 376.45 399.131 378.974 402.752C378.996 402.779 379.008 402.812 379.008 402.847C379.008 402.881 378.996 402.915 378.974 402.942C378.947 402.965 378.914 402.978 378.879 402.978C378.843 402.978 378.81 402.965 378.784 402.942C377.477 401.987 375.995 401.301 374.422 400.921C372.849 400.542 371.216 400.477 369.618 400.73C368.089 400.902 366.619 401.417 365.317 402.237C364.015 403.057 362.914 404.16 362.098 405.465C361.283 406.769 360.772 408.241 360.604 409.771C360.437 411.301 360.617 412.848 361.131 414.298C361.619 415.952 362.451 417.485 363.572 418.795C364.694 420.106 366.079 421.165 367.637 421.903C365.666 421.49 363.632 421.471 361.653 421.845C359.674 422.22 357.788 422.982 356.104 424.088C352.997 426.123 350.867 429.223 350.419 432.487C350.105 435.492 350.936 438.506 352.746 440.926C354.695 443.656 357.497 445.661 360.711 446.625L357.536 446.706L354.361 446.787C352.279 446.843 350.228 447.308 348.326 448.156C346.424 449.005 344.708 450.22 343.276 451.732C341.844 453.244 340.724 455.024 339.98 456.969C339.236 458.914 338.883 460.987 338.941 463.069V463.069C338.993 465.154 339.457 467.207 340.304 469.112C341.152 471.017 342.367 472.735 343.881 474.17C345.394 475.604 347.175 476.726 349.122 477.471C351.07 478.215 353.145 478.569 355.229 478.51L368.295 478.157L381.362 477.811L382.447 520.911L383.532 564.01H407.446L406.293 520.592L405.14 477.173L418.206 476.827L431.272 476.481C433.354 476.426 435.405 475.961 437.307 475.112C439.209 474.264 440.925 473.049 442.357 471.537C443.789 470.025 444.909 468.245 445.653 466.3C446.397 464.354 446.75 462.282 446.692 460.2V460.2C446.637 458.118 446.172 456.067 445.323 454.165C444.475 452.263 443.26 450.547 441.748 449.115C440.236 447.682 438.456 446.562 436.511 445.819C434.565 445.075 432.492 444.722 430.411 444.779V444.766Z" fill="#5B9900"/>
<path d="M425.478 445.268H408.403C408.234 445.269 408.068 445.221 407.927 445.127C407.786 445.034 407.676 444.901 407.612 444.745C407.547 444.589 407.53 444.418 407.563 444.252C407.597 444.086 407.679 443.935 407.799 443.816C407.961 443.659 408.178 443.572 408.403 443.572H425.478C425.703 443.572 425.919 443.661 426.078 443.82C426.237 443.979 426.326 444.195 426.326 444.42C426.326 444.531 426.304 444.641 426.261 444.743C426.218 444.846 426.155 444.939 426.075 445.017C425.998 445.097 425.905 445.16 425.803 445.203C425.7 445.246 425.59 445.268 425.478 445.268V445.268Z" fill="#1F5D00"/>
<path d="M405.119 477.153H392.386C394.593 480.111 396.793 483.071 398.987 486.033C401.18 488.996 403.38 491.956 405.588 494.914C405.515 491.956 405.438 488.996 405.357 486.033C405.276 483.071 405.196 480.111 405.119 477.153Z" fill="#1F5D00"/>
<path d="M371.362 422.08H365.88C365.712 422.082 365.547 422.033 365.406 421.941C365.265 421.848 365.156 421.715 365.091 421.56C365.027 421.404 365.011 421.233 365.045 421.068C365.079 420.903 365.162 420.752 365.283 420.635C365.361 420.554 365.453 420.491 365.556 420.448C365.659 420.405 365.769 420.383 365.88 420.384H371.362C371.53 420.383 371.695 420.433 371.835 420.527C371.975 420.62 372.084 420.753 372.148 420.909C372.212 421.065 372.228 421.236 372.194 421.401C372.161 421.566 372.079 421.717 371.959 421.835C371.799 421.991 371.585 422.079 371.362 422.08V422.08Z" fill="#1F5D00"/>
<path d="M400.54 403.057C400.457 403.067 400.373 403.067 400.289 403.057C400.204 403.03 400.124 402.989 400.052 402.935C399.959 402.872 399.881 402.791 399.821 402.697C399.762 402.602 399.722 402.496 399.706 402.385C399.686 402.276 399.688 402.164 399.712 402.055C399.737 401.947 399.783 401.845 399.848 401.755L400.724 400.52L401.599 399.278C401.663 399.187 401.744 399.11 401.839 399.051C401.933 398.992 402.038 398.952 402.148 398.933C402.258 398.915 402.37 398.919 402.478 398.944C402.587 398.97 402.689 399.016 402.779 399.082C402.87 399.144 402.948 399.224 403.008 399.318C403.067 399.411 403.107 399.515 403.125 399.624C403.163 399.847 403.112 400.076 402.983 400.262L402.107 401.497L401.232 402.731C401.154 402.848 401.046 402.942 400.92 403.003C400.8 403.051 400.669 403.069 400.54 403.057V403.057Z" fill="#1F5D00"/>
<path d="M199.907 282.931L195.219 283.053L190.532 283.175C190.519 283.177 190.505 283.176 190.493 283.173C190.48 283.17 190.468 283.163 190.458 283.155C190.448 283.147 190.439 283.137 190.433 283.125C190.427 283.113 190.424 283.1 190.423 283.087C190.419 283.061 190.424 283.035 190.437 283.012C190.451 282.99 190.473 282.973 190.498 282.965C193.964 281.795 197.141 279.901 199.819 277.409C202.165 275.255 203.846 272.475 204.663 269.397C205.34 266.437 205.175 263.347 204.188 260.476C203.67 258.874 202.955 257.342 202.058 255.917C199.441 251.997 195.556 249.096 191.054 247.701C186.034 246.108 180.667 245.958 175.566 247.267C180.423 246.159 184.765 243.444 187.886 239.56C190.679 236.167 192.261 231.94 192.384 227.547C192.507 223.154 191.163 218.845 188.564 215.3C186.187 211.912 182.767 209.394 178.827 208.127C174.886 206.861 170.639 206.917 166.733 208.286C162.544 209.698 158.875 212.333 156.197 215.85C158.418 211.472 159.242 206.519 158.558 201.658C157.918 196.946 155.75 192.575 152.385 189.216C148.91 185.86 144.443 183.718 139.651 183.11C135.02 182.436 130.299 183.411 126.313 185.864C121.565 188.904 118.41 194.229 117.453 200.287C116.451 206.898 118.012 213.642 121.816 219.14C121.851 219.179 121.871 219.23 121.871 219.283C121.871 219.336 121.851 219.386 121.816 219.425C121.775 219.458 121.725 219.476 121.673 219.476C121.621 219.476 121.571 219.458 121.531 219.425C119.55 217.969 117.301 216.92 114.913 216.338C112.525 215.755 110.045 215.652 107.616 216.033C105.379 216.341 103.229 217.109 101.303 218.288C99.3764 219.467 97.7148 221.033 96.4226 222.885C93.8515 226.793 93.3291 231.881 94.7334 236.609C95.4765 239.119 96.741 241.444 98.4444 243.431C100.148 245.418 102.251 247.024 104.618 248.142V248.142C101.631 247.52 98.5506 247.493 95.5531 248.062C92.5556 248.631 89.6997 249.786 87.1488 251.46C82.3795 254.635 79.1164 259.343 78.438 264.295C77.8546 268.603 79.1978 273.203 81.9725 277.104C84.9393 281.252 89.2058 284.291 94.0957 285.74L89.2925 285.842L84.4758 285.97C81.3178 286.054 78.2072 286.759 75.3217 288.045C72.4362 289.331 69.8323 291.173 67.6588 293.465C65.4853 295.758 63.7848 298.456 62.6544 301.406C61.524 304.356 60.9858 307.5 61.0707 310.658V310.658C61.2429 317.033 63.9392 323.08 68.567 327.468C73.1948 331.857 79.3756 334.229 85.7512 334.063L105.588 333.534L125.425 333.005C126.435 408.607 127.216 466.339 127.738 505.178C128.26 544.017 128.532 563.99 128.532 563.99H137.907H165.139C164.555 538.705 163.945 493.367 163.327 448.029C162.71 402.691 162.106 357.346 161.523 332.062L181.353 331.532L201.189 331.003C204.347 330.919 207.457 330.214 210.341 328.928C213.226 327.642 215.83 325.8 218.003 323.508C220.176 321.216 221.876 318.518 223.006 315.569C224.137 312.62 224.675 309.477 224.591 306.319C224.507 303.162 223.802 300.052 222.516 297.167C221.23 294.283 219.388 291.679 217.096 289.506C214.804 287.333 212.106 285.633 209.157 284.502C206.208 283.372 203.065 282.833 199.907 282.918V282.931Z" fill="#5B9900"/>
<path d="M111.511 248.407H103.2C102.975 248.407 102.759 248.317 102.6 248.158C102.441 247.999 102.352 247.784 102.352 247.559C102.35 247.447 102.371 247.336 102.413 247.232C102.455 247.128 102.517 247.034 102.596 246.955C102.675 246.876 102.77 246.813 102.873 246.771C102.977 246.73 103.088 246.709 103.2 246.711H111.511C111.622 246.709 111.733 246.73 111.837 246.771C111.941 246.813 112.035 246.876 112.114 246.955C112.193 247.034 112.256 247.128 112.298 247.232C112.34 247.336 112.36 247.447 112.359 247.559C112.359 247.784 112.269 247.999 112.11 248.158C111.951 248.317 111.735 248.407 111.511 248.407V248.407Z" fill="#1F5D00"/>
<path d="M192.072 283.616H166.15C166.038 283.617 165.928 283.595 165.825 283.552C165.723 283.509 165.63 283.445 165.553 283.365C165.473 283.288 165.409 283.195 165.366 283.092C165.323 282.99 165.301 282.88 165.302 282.768C165.302 282.543 165.391 282.328 165.55 282.169C165.709 282.01 165.925 281.92 166.15 281.92H192.072C192.296 281.92 192.512 282.01 192.671 282.169C192.83 282.328 192.92 282.543 192.92 282.768C192.92 282.88 192.898 282.99 192.855 283.092C192.812 283.195 192.748 283.288 192.669 283.365C192.591 283.445 192.499 283.509 192.396 283.552C192.293 283.595 192.183 283.617 192.072 283.616V283.616Z" fill="#1F5D00"/>
<path d="M475.654 414.902H487.56C485.633 416.937 483.415 419.407 481.054 422.31C478.693 425.214 476.17 428.545 473.646 432.317C471.821 435.03 469.528 438.504 467.208 442.676C464.574 447.366 462.358 452.278 460.587 457.357C458.36 463.778 456.925 470.446 456.313 477.214C455.855 482.753 455.716 488.314 455.899 493.869C455.977 500.498 456.658 507.105 457.934 513.611C459.166 519.685 459.831 525.86 459.922 532.057C460.002 538.292 459.582 544.524 458.667 550.693C457.977 555.363 457.012 559.989 455.777 564.546H444.434C446.045 559.745 447.317 554.837 448.239 549.858C449.445 543.319 449.999 536.677 449.895 530.028C449.796 524.194 449.096 518.385 447.805 512.695C446.433 506.329 445.695 499.844 445.6 493.333C445.417 488.005 445.547 482.67 445.987 477.356C446.624 470.213 448.083 463.168 450.336 456.36C452.005 451.342 454.074 446.467 456.523 441.781C458.606 437.792 460.532 434.718 461.821 432.683C464.047 429.167 466.456 425.77 469.04 422.507C471.387 419.57 473.639 417.032 475.654 414.902Z" fill="#F1FF7C"/>
<path d="M499.052 437.548L477.397 423.057L455.735 408.566C455.568 408.449 455.438 408.287 455.361 408.098C455.284 407.909 455.263 407.701 455.301 407.501C455.335 407.285 455.42 407.08 455.55 406.904C455.68 406.728 455.851 406.586 456.047 406.49L467.045 401.232L478.035 395.975C480.565 394.739 483.362 394.149 486.176 394.258C488.862 394.366 491.468 395.211 493.706 396.701C495.764 398.083 497.436 399.967 498.563 402.175C499.744 404.487 500.369 407.042 500.388 409.638L500.605 423.023L500.816 436.401C500.817 436.627 500.762 436.849 500.655 437.048C500.548 437.247 500.394 437.417 500.205 437.541C500.034 437.653 499.834 437.713 499.63 437.714C499.425 437.715 499.224 437.657 499.052 437.548Z" fill="#F98638"/>
<path d="M55.243 414.108C53.954 419.419 53.4106 424.882 53.6284 430.343C53.8363 435.816 54.9837 441.214 57.0204 446.299C58.4065 449.676 60.2313 452.855 62.4477 455.756C64.6504 458.659 67.2623 461.227 70.202 463.381C73.3121 465.688 76.9378 467.201 80.7648 467.791C84.5958 468.285 88.4767 468.248 92.2978 467.682C95.0492 467.325 97.8443 467.518 100.52 468.252C103.061 468.96 105.404 470.247 107.365 472.011C109.148 473.672 110.509 475.735 111.334 478.028C112.173 480.315 112.705 482.704 112.915 485.131C112.989 485.918 113.105 489.88 113.172 493.659C113.24 497.437 113.281 500.999 113.172 500.999H125.384C125.384 500.999 125.492 498.828 125.506 495.796C125.544 492.33 125.395 488.865 125.058 485.416C124.763 482.464 124.223 479.541 123.444 476.678C122.395 472.92 120.814 469.331 118.749 466.02C117.42 463.878 115.807 461.927 113.953 460.22C112.103 458.505 109.968 457.127 107.643 456.149C104.981 455.136 102.147 454.647 99.299 454.711C96.4496 454.711 93.5664 454.969 90.7578 455.077C87.8842 455.202 85.0097 454.852 82.2505 454.039C79.5017 453.229 76.9575 451.841 74.788 449.969C68.0039 444.026 66.3486 435.587 66.932 426.822C67.5155 418.057 70.3241 408.939 72.4611 401.653C73.4968 398.066 74.6704 394.163 75.982 389.943C77.2846 385.737 78.7296 381.233 80.3171 376.47L74.0757 374.218L67.8343 371.965C66.2197 376.488 64.6367 381.147 63.0854 385.941C61.5341 390.735 60.062 395.689 58.669 400.805C58.0449 403.066 57.4456 405.312 56.8712 407.541C56.2968 409.771 55.7541 411.96 55.243 414.108Z" fill="#83C00E"/>
<path d="M67.2985 422.656C67.7507 420.644 68.1872 418.629 68.6078 416.612C69.042 414.576 69.483 412.582 69.9171 410.567C69.9714 410.363 70.0121 410.194 70.0528 410.051C70.0935 409.909 70.1207 409.78 70.1478 409.658C70.2224 409.359 70.3242 408.979 70.4802 408.403C70.6362 407.826 70.8398 407.107 71.1111 406.151C72.2712 402.08 73.3228 398.607 74.0826 396.103C74.8424 393.6 75.3037 392.101 75.3037 392.101C75.9821 389.97 76.7216 387.582 77.556 384.957C78.3905 382.332 79.2995 379.482 80.2697 376.423L74.0283 374.17L67.7869 371.918C66.5658 375.215 65.4668 378.281 64.5034 381.056C63.5401 383.831 62.6988 386.321 61.9865 388.478C61.8373 388.932 60.4262 393.227 58.8116 398.946C57.0147 405.085 55.545 411.314 54.4087 417.609C54.1848 418.966 53.9813 420.472 53.8252 422.052C53.6692 423.633 53.5742 425.322 53.5607 427.141C53.5607 428.307 53.5607 429.386 53.6149 430.343C53.6692 431.299 53.7099 432.147 53.771 432.846L60.5212 427.751L67.2985 422.656Z" fill="#5B9900"/>
<path d="M76.6198 455.071C73.5693 451.998 69.5548 450.067 65.2497 449.603C62.1433 449.217 58.9895 449.577 56.0504 450.654C55.9351 450.207 55.8062 449.766 55.657 449.298C54.9832 447.298 53.9046 445.458 52.4885 443.894C51.0723 442.33 49.349 441.074 47.426 440.205C45.503 439.336 43.4215 438.873 41.3115 438.844C39.2015 438.815 37.1082 439.221 35.1622 440.037C34.1266 440.465 33.1358 440.995 32.2043 441.618C30.9695 438.548 28.7042 436.003 25.7976 434.421C22.8909 432.839 19.5241 432.318 16.2753 432.948C14.6792 433.249 13.1662 433.888 11.8379 434.822C10.5096 435.757 9.39697 436.965 8.57483 438.366C7.7527 439.766 7.24017 441.327 7.07174 442.942C6.90332 444.558 7.0829 446.19 7.59841 447.73C8.6875 451.022 10.9366 453.804 13.9262 455.559C16.9158 457.314 20.4417 457.922 23.8463 457.269C24.077 457.221 24.3009 457.154 24.5247 457.093C24.6173 458.631 24.9209 460.149 25.427 461.604C26.0962 463.602 27.1698 465.441 28.5807 467.006C29.9917 468.571 31.7099 469.829 33.6281 470.701C35.5464 471.573 37.6238 472.04 39.7307 472.074C41.8376 472.108 43.9289 471.708 45.8743 470.898C46.8849 470.484 47.8528 469.973 48.7643 469.372C49.2812 470.173 49.8741 470.923 50.535 471.611C53.6261 474.633 57.6268 476.554 61.9187 477.075C66.2106 477.596 70.5546 476.689 74.2793 474.494C77.6171 472.377 79.9169 469.168 80.385 465.376C80.8531 461.584 79.3538 457.92 76.6198 455.071Z" fill="#83C00E"/>
<path d="M70.7992 464.196H70.7313H70.6567C67.4207 463.626 64.1847 462.968 60.969 462.221C57.7533 461.475 54.558 460.654 51.4102 459.752C43.8379 457.586 36.4083 454.949 29.1651 451.855C21.877 448.738 14.7858 445.178 7.93092 441.197C7.73662 441.085 7.5951 440.899 7.53744 440.682C7.49584 440.52 7.50287 440.349 7.55765 440.19C7.61243 440.032 7.71254 439.893 7.84555 439.791C7.97855 439.689 8.13858 439.629 8.30573 439.617C8.47289 439.605 8.63979 439.643 8.78571 439.725C22.3396 447.598 36.8132 453.769 51.8783 458.097C54.999 458.992 58.1672 459.806 61.3761 460.546C64.5849 461.285 67.7735 461.936 70.9755 462.5C71.1974 462.542 71.3943 462.668 71.5251 462.852C71.6517 463.036 71.7004 463.263 71.6607 463.483C71.6215 463.675 71.517 463.848 71.3648 463.972C71.2127 464.095 71.0224 464.162 70.8263 464.162L70.7992 464.196Z" fill="#5B9900"/>
<path d="M112.698 336.369C131.747 323.29 137.548 311.655 134.251 306.893C130.954 302.13 118.552 304.226 101.199 318.609C111.537 297.707 110.31 285 104.401 283.569C98.4917 282.137 87.9085 291.988 79.5505 316.2C78.1936 290.319 70.5615 277.945 64.4558 277.979C58.3502 278.013 53.737 290.448 58.3909 314.192C45.3043 295.142 33.6628 289.342 28.914 292.626C24.1651 295.909 26.2478 308.324 40.6301 325.671C19.7283 315.332 7.02167 316.567 5.59023 322.476C4.15878 328.385 14.0093 338.961 38.2217 347.319C12.3404 348.676 -0.0337899 356.308 0.00013058 362.42C0.0340511 368.533 12.4693 373.132 36.2136 368.485C17.1707 381.565 11.3703 393.2 14.6674 397.969C17.9644 402.738 30.3658 400.628 47.7127 386.246C37.3737 407.148 38.6084 419.861 44.5174 421.286C50.4263 422.711 61.0028 412.867 69.3675 388.654C70.7244 414.536 78.3497 426.91 84.4622 426.883C90.5746 426.856 95.1743 414.407 90.5271 390.663C103.614 409.712 115.242 415.513 120.011 412.209C124.78 408.905 122.677 396.517 108.295 379.164C129.197 389.503 141.903 388.268 143.335 382.366C144.766 376.463 134.909 365.894 110.689 357.536C136.578 356.179 148.952 348.547 148.918 342.434C148.884 336.322 136.442 331.722 112.698 336.369Z" fill="#F98638"/>
<path d="M89.2926 355.609C88.6473 359.457 86.6879 362.962 83.7482 365.527C80.8085 368.092 77.0703 369.559 73.1706 369.677C69.2708 369.795 65.4507 368.558 62.361 366.175C59.2714 363.793 57.1033 360.413 56.2261 356.611C55.349 352.81 55.817 348.821 57.5506 345.326C59.2841 341.831 62.1758 339.045 65.7331 337.442C69.2904 335.84 73.2932 335.52 77.0597 336.538C80.8261 337.556 84.1231 339.848 86.389 343.025C87.6801 344.827 88.6014 346.866 89.0998 349.026C89.5981 351.186 89.6637 353.424 89.2926 355.609Z" fill="#DEB8FC"/>
<path d="M471.76 615.101H239.893H8.0191V589.538V563.976H239.893H471.76V589.538V615.101Z" fill="#5B9900"/>
<path d="M73.2887 432.676L52.821 498.353L32.3534 564.03H115.513L95.0453 498.353L74.5708 432.676C74.528 432.54 74.4433 432.421 74.3289 432.336C74.2144 432.251 74.0759 432.204 73.9331 432.202C73.7892 432.202 73.6492 432.248 73.5334 432.334C73.4175 432.419 73.3318 432.539 73.2887 432.676V432.676Z" fill="#5B9900"/>
<path d="M93.675 563.99C99.9842 553.63 101.931 542.62 100.296 532.864C98.6613 523.109 93.4647 514.608 85.4595 509.262C79.3698 505.345 72.4308 502.942 65.2225 502.254C57.4615 501.501 49.2391 502.743 42.1565 507.261C36.4486 510.907 32.1331 516.367 29.9045 522.763C28.681 526.112 27.9941 529.633 27.8692 533.197C25.6661 532.773 23.414 532.663 21.1801 532.871C16.981 533.154 13.006 534.868 9.9185 537.728C6.648 540.952 4.6735 545.263 4.36911 549.845C4.00157 554.832 5.28402 559.802 8.01895 563.99H93.675Z" fill="#83C00E"/>
<path d="M386.748 563.99C382.729 561.927 379.595 558.474 377.929 554.275C376.333 550.404 376.316 546.062 377.881 542.179C379.159 539.223 381.32 536.734 384.068 535.055C386.954 533.27 390.275 532.315 393.668 532.294C392.445 529.146 391.655 525.846 391.321 522.484C390.785 517.118 391.321 510.416 395.534 504.642C400.106 498.347 407.745 494.853 415.472 494.385C423.199 493.917 431.075 496.42 436.157 502.22C440.709 507.403 441.828 513.848 441.781 519.113C441.753 522.427 441.276 525.723 440.363 528.909C445.785 525.414 452.34 524.13 458.68 525.32C461.655 525.851 464.496 526.963 467.04 528.593C469.585 530.223 471.783 532.338 473.51 534.818C476.345 539.082 477.704 544.158 477.377 549.268C477.068 554.633 475.116 559.772 471.787 563.99H386.748V563.99Z" fill="#83C00E"/>
<path d="M236.365 245.463C206.434 298.55 176.504 351.636 146.577 404.719L56.7831 563.99H136.049C139.095 558.807 143.226 551.561 147.928 542.593C152.629 533.624 157.9 522.919 163.226 510.802C185.367 460.321 203.703 408.255 218.082 355.039C229.506 312.686 234.866 282.354 236.562 271.418C236.575 271.308 236.629 271.207 236.712 271.133C236.795 271.06 236.902 271.019 237.013 271.019C237.124 271.019 237.231 271.06 237.314 271.133C237.397 271.207 237.451 271.308 237.464 271.418C240.042 294.708 243.264 316.024 246.704 335.135C250.144 354.246 253.793 371.138 257.219 385.568C268.82 434.373 284.573 473.463 298.833 502.03C313.093 530.598 325.868 548.651 331.526 555.374C333.093 557.233 334.538 558.908 335.813 560.347C337.089 561.785 338.174 562.999 339.036 563.942H379.36H419.692L329.287 404.746L238.882 245.463C238.756 245.24 238.573 245.054 238.352 244.925C238.131 244.796 237.88 244.728 237.623 244.728C237.367 244.728 237.116 244.796 236.895 244.925C236.674 245.054 236.491 245.24 236.365 245.463V245.463Z" fill="#F1FF7C"/>
<path d="M170.905 574.315L174.297 586.207L177.689 598.1C177.69 598.923 177.49 599.733 177.106 600.461C176.722 601.181 176.168 601.796 175.491 602.252L167.31 607.74L159.094 613.235C158.911 613.355 158.773 613.531 158.699 613.737C158.626 613.943 158.622 614.167 158.687 614.375C158.745 614.584 158.87 614.768 159.043 614.899C159.216 615.031 159.427 615.101 159.644 615.101H215.158C215.663 615.102 216.164 615.001 216.63 614.806C217.096 614.61 217.518 614.323 217.871 613.961C218.583 613.236 218.985 612.263 218.991 611.247L215.599 592.795L212.207 574.349H170.905V574.315Z" fill="#F98638"/>
<path d="M406.029 563.311C405.963 563.318 405.897 563.318 405.832 563.311C405.766 563.296 405.702 563.273 405.642 563.243C399.333 560.028 393.155 556.574 387.108 552.884C381.061 549.193 375.181 545.295 369.469 541.188C331.363 513.665 304.22 479.066 284.878 443.816C265.537 408.566 254.044 372.61 247.172 342.489C247.143 342.374 247.138 342.255 247.157 342.138C247.176 342.022 247.218 341.91 247.281 341.81C247.37 341.668 247.499 341.555 247.653 341.486C247.806 341.417 247.977 341.395 248.143 341.424C248.309 341.452 248.462 341.529 248.584 341.645C248.706 341.761 248.791 341.911 248.827 342.075C255.666 372.054 267.144 407.786 286.377 442.866C305.61 477.947 332.604 512.43 370.493 539.763C376.147 543.834 381.979 547.71 387.99 551.391C393.987 555.048 400.147 558.488 406.408 561.683C406.508 561.731 406.597 561.799 406.67 561.883C406.742 561.967 406.796 562.065 406.829 562.171C406.869 562.281 406.885 562.399 406.877 562.516C406.869 562.632 406.836 562.746 406.782 562.85C406.711 562.991 406.6 563.109 406.463 563.189C406.332 563.269 406.182 563.312 406.029 563.311Z" fill="#F98638"/>
<path d="M70.6091 564.118C70.4415 564.116 70.278 564.066 70.1384 563.973C69.9987 563.881 69.8889 563.75 69.8221 563.596C69.7746 563.489 69.7501 563.374 69.7501 563.257C69.7501 563.14 69.7746 563.024 69.8221 562.917C69.9089 562.709 70.0747 562.543 70.2834 562.456C77.1164 559.649 83.7706 556.425 90.2083 552.802C96.5946 549.228 102.753 545.261 108.648 540.923C113.396 537.402 122.08 530.971 134.597 515.212C147.113 499.452 163.463 474.371 183.544 433.545C190.762 418.877 197.587 403.844 203.978 388.559C210.368 373.275 216.332 357.732 221.813 342.048C221.887 341.837 222.041 341.665 222.24 341.566C222.345 341.513 222.459 341.483 222.576 341.477C222.693 341.471 222.81 341.49 222.919 341.532C223.024 341.567 223.121 341.623 223.204 341.696C223.287 341.77 223.354 341.859 223.401 341.959C223.453 342.064 223.484 342.178 223.491 342.294C223.498 342.411 223.481 342.528 223.441 342.638C217.946 358.357 211.976 373.926 205.572 389.238C199.168 404.549 192.323 419.617 185.091 434.325C167.215 470.667 152.446 494.642 140.105 511.039C127.765 527.437 117.82 536.175 109.645 542.28C103.698 546.681 97.4829 550.707 91.036 554.336C84.5356 557.991 77.8181 561.247 70.9211 564.084L70.7583 564.132L70.6091 564.118Z" fill="#F98638"/>
<path d="M257.219 385.927C253.827 371.464 250.143 354.53 246.704 335.372C243.264 316.214 240.042 294.851 237.471 271.513C237.457 271.402 237.403 271.299 237.319 271.224C237.234 271.149 237.125 271.108 237.013 271.108C236.9 271.108 236.791 271.149 236.707 271.224C236.623 271.299 236.568 271.402 236.555 271.513C230.612 309.935 222.159 347.926 211.25 385.242C198.589 428.509 182.536 470.71 163.239 511.453C158.852 520.698 154.386 529.689 149.84 538.427C145.295 547.165 140.698 555.686 136.048 563.989H338.818C337.719 562.863 336.552 561.649 335.331 560.353C334.11 559.057 332.842 557.68 331.525 556.222C323.228 547.002 311.275 532.362 298.08 506.053C284.885 479.745 270.462 441.774 257.219 385.927Z" fill="#1F5D00"/>
<path d="M247.077 363.859C248.346 363.065 249.682 362.169 251.066 361.145C252.45 360.121 253.882 358.995 255.327 357.753C257.239 356.084 259.051 354.303 260.754 352.421C262.328 350.677 263.671 349.029 264.824 347.448L268.617 363.18C269.883 368.431 271.149 373.682 272.416 378.933L259.75 371.389L247.077 363.859Z" fill="#DEB8FC"/>
<path d="M211.535 376.206C213.204 376.057 215.002 375.839 216.908 375.527C218.814 375.215 220.823 374.849 222.926 374.32C225.029 373.791 227.172 373.2 229.079 372.57C230.985 371.939 232.735 371.28 234.337 370.622C233.536 375.937 232.733 381.246 231.928 386.552C231.123 391.857 230.318 397.164 229.513 402.474L220.524 389.333L211.535 376.206Z" fill="#F1FF7C"/>
<path d="M172.907 369.74C174.528 370.358 176.238 370.968 178.042 371.552C179.847 372.135 181.753 372.705 183.741 373.234C185.946 373.818 188.076 374.313 190.125 374.734C192.173 375.154 194.127 375.487 195.993 375.765L186.889 387.752L177.791 399.747L175.349 384.747L172.907 369.74Z" fill="#F98638"/>
<path d="M205.857 304.158L204.778 320.603C204.412 326.085 204.05 331.566 203.693 337.048L214.798 325.908L225.89 314.762C223.855 314.016 221.718 313.141 219.473 312.103C217.227 311.065 214.893 309.857 212.505 308.466C211.289 307.752 210.129 307.037 209.025 306.323C207.921 305.608 206.865 304.887 205.857 304.158Z" fill="#DEB8FC"/>
<path d="M240.843 318.941C242.349 323.749 243.859 328.559 245.374 333.371C246.889 338.183 248.4 342.991 249.906 347.794L256.114 334.117L262.321 320.44C260.686 320.501 258.929 320.535 257.131 320.508C255.333 320.481 253.413 320.413 251.426 320.271C249.438 320.128 247.633 319.945 245.87 319.721C244.106 319.497 242.423 319.226 240.843 318.941Z" fill="#F98638"/>
<path d="M419.678 564.044L412.67 563.989H405.648V528.42H419.678V564.044Z" fill="#AD4D4D"/>
<path d="M70.8738 563.976H63.8522H56.8375V546.609V529.234H63.8522H70.8738V546.609V563.976Z" fill="#AD4D4D"/>
<path d="M205.457 377.25C196.981 377.228 188.558 375.915 180.478 373.356C175.91 371.945 171.484 370.112 167.255 367.882C167.057 367.774 166.911 367.591 166.847 367.375C166.783 367.159 166.808 366.926 166.916 366.728C167.024 366.53 167.206 366.383 167.423 366.32C167.639 366.256 167.872 366.281 168.069 366.389C175.231 370.05 182.897 372.627 190.817 374.035C203.225 376.335 219.412 376.497 236.27 368.858C249.123 363.014 260.065 353.66 267.836 341.871C272.571 334.806 276.185 327.05 278.548 318.88C268.367 321.243 257.861 321.871 247.471 320.739C239.646 319.873 231.966 317.999 224.622 315.162C219.244 313.094 214.079 310.509 209.201 307.442C207.209 306.214 205.3 304.854 203.489 303.372C203.321 303.224 203.214 303.018 203.191 302.795C203.177 302.571 203.25 302.35 203.394 302.178C203.466 302.092 203.553 302.021 203.652 301.97C203.751 301.919 203.86 301.888 203.971 301.879C204.082 301.87 204.194 301.884 204.3 301.919C204.406 301.954 204.504 302.009 204.588 302.083C204.744 302.211 212.417 308.622 225.578 313.656C242.799 320.259 261.636 321.396 279.525 316.913L280.204 316.743L280.882 316.58L280.713 317.259L280.543 317.937C278.379 326.063 274.984 333.81 270.475 340.908C263.649 352.015 254.089 361.186 242.709 367.546C231.328 373.906 218.507 377.243 205.47 377.237L205.457 377.25Z" fill="#5B9900"/>
<path d="M300.42 468.381C300.005 466.184 299.426 464.021 298.691 461.909C297.545 458.671 295.968 455.601 294.003 452.784C293.677 452.323 293.324 451.855 292.992 451.428C292.659 451 292.266 450.505 291.886 450.071C289.318 447.116 286.322 444.562 282.999 442.493C278.878 439.882 274.389 437.904 269.682 436.625C268.671 436.353 267.769 436.163 267.056 436.035C266.344 435.906 265.835 435.838 265.604 435.804C263.281 435.456 260.929 435.338 258.583 435.451C256.507 435.546 254.655 435.79 252.884 435.994C251.439 436.17 248.882 436.469 245.7 436.747C242.518 437.025 238.692 437.276 234.71 437.357C233.475 437.357 231.928 437.391 229.961 437.432C227.993 437.473 225.666 437.547 222.831 437.683C221.192 437.742 219.557 437.885 217.933 438.11C216.411 438.341 214.924 438.756 213.503 439.345C212.371 439.815 211.28 440.375 210.239 441.021C209.351 441.57 208.672 442.066 208.252 442.378C208.252 442.378 207.573 442.866 206.617 443.734C205.386 444.811 204.239 445.979 203.184 447.228C202.339 448.253 201.575 449.342 200.898 450.485C200.185 451.672 199.541 452.934 198.917 454.216C197.399 457.42 196.197 460.765 195.328 464.202C194.461 467.644 193.9 471.156 193.652 474.697L193.035 483.516L192.411 492.336L205.911 500.477L219.405 508.584L247.959 506.861L276.534 505.008C276.805 507.478 277.104 509.981 277.429 512.518C277.755 515.056 278.112 517.622 278.501 520.218C279.22 525.049 280.007 529.752 280.862 534.329C281.717 538.906 282.621 543.354 283.576 547.674L299.043 545.197L314.525 542.728C312.541 537.141 310.857 531.452 309.477 525.686C308.27 520.625 307.483 516.229 306.94 512.641C306.262 508.211 305.298 500.375 304.158 492.037C303.019 483.7 301.703 474.846 300.42 468.381Z" fill="#DEB8FC"/>
<path d="M200.246 574.315L203.584 586.207L206.915 598.1C206.914 598.921 206.719 599.73 206.345 600.461C205.973 601.178 205.43 601.793 204.765 602.252L196.746 607.74L188.727 613.235C188.549 613.358 188.414 613.535 188.343 613.741C188.273 613.946 188.269 614.168 188.334 614.375C188.386 614.582 188.506 614.765 188.674 614.897C188.842 615.028 189.05 615.1 189.263 615.101H243.448C243.942 615.099 244.43 614.997 244.884 614.801C245.337 614.605 245.747 614.319 246.087 613.961C246.782 613.228 247.173 612.258 247.179 611.247L243.848 592.795L240.517 574.349H200.246V574.315Z" fill="#F98638"/>
<path d="M333.825 578.284C333.825 578.284 332.312 577.225 330.433 575.909C328.554 574.593 326.363 573.026 325.047 572.008C324.836 571.905 324.636 571.78 324.45 571.635C324.255 571.483 324.078 571.31 323.92 571.12L324.361 571.479L325.04 572.008C325.557 572.263 326.135 572.368 326.709 572.314C327.234 572.267 327.729 572.045 328.113 571.683C328.302 571.505 328.456 571.293 328.568 571.059C328.864 570.436 328.917 569.724 328.717 569.064C328.592 568.665 328.394 568.292 328.133 567.965C327.713 567.436 327.285 566.9 326.865 566.351L325.623 564.668C325.379 564.349 324.945 563.745 324.375 562.992C323.805 562.239 323.181 561.357 322.564 560.462C322.564 560.462 321.933 559.553 321.017 558.128C320.101 556.704 318.907 554.736 317.754 552.64C317.101 551.353 316.563 550.011 316.146 548.63C315.596 546.948 315.047 544.947 314.491 542.715L299.03 545.184L283.562 547.708C284.139 551.914 284.62 555.394 285 557.992C285.38 560.591 285.679 562.3 285.801 562.965C285.923 563.63 286.079 564.18 286.194 564.627C286.309 565.075 286.391 565.367 286.391 565.367C287.067 567.903 288.035 570.353 289.274 572.666C290.488 574.953 291.988 577.307 294.023 580.407C294.392 581.008 294.819 581.572 295.298 582.09C295.858 582.699 296.556 583.164 297.334 583.446C297.812 583.618 298.312 583.726 298.819 583.765C299.583 583.831 300.344 583.605 300.95 583.134C301.476 582.687 301.844 582.083 302.001 581.411C302.097 581.032 302.141 580.642 302.13 580.251C302.693 580.889 303.324 581.56 304.03 582.239C304.779 582.957 305.564 583.637 306.384 584.274C308.22 585.73 310.184 587.018 312.252 588.121C314.511 589.288 316.899 590.074 318.86 589.715C319.38 589.617 319.875 589.411 320.311 589.111C320.497 588.986 320.668 588.84 320.82 588.677C321.112 588.366 321.342 588.002 321.499 587.605C321.616 587.326 321.703 587.035 321.756 586.737C322.431 587.187 323.147 587.573 323.893 587.89C324.546 588.171 325.229 588.374 325.929 588.494C326.441 588.588 326.964 588.611 327.482 588.562C328.023 588.503 328.535 588.286 328.954 587.938C329.437 587.517 329.779 586.958 329.931 586.336C330.158 585.525 330.091 584.66 329.741 583.894C329.67 583.752 329.591 583.614 329.504 583.48C330.215 583.969 331.086 584.168 331.939 584.037C332.784 583.911 333.545 583.461 334.063 582.782C334.549 582.138 334.789 581.341 334.741 580.536C334.714 579.7 334.389 578.902 333.825 578.284Z" fill="#FFAA9F"/>
<path d="M218.93 508.462C212.458 504.255 206.766 500.748 201.875 497.838C196.983 494.927 192.899 492.641 189.663 490.864C189.053 490.531 188.239 490.056 187.208 489.588C186.003 489.037 184.743 488.614 183.449 488.326C179.645 487.549 175.704 487.783 172.018 489.005C168.116 490.251 164.608 492.496 161.842 495.518C160.045 497.51 158.618 499.807 157.629 502.302C156.935 504.085 156.399 505.926 156.028 507.804C155.284 511.316 155.146 514.93 155.621 518.488C156.061 521.564 156.73 524.603 157.622 527.579C161.014 539.852 164.406 551.656 166.916 560.401C169.426 569.145 171.089 574.844 171.089 574.844H240.646L239.967 569.417L239.289 563.989C244.431 564.069 249.56 563.443 254.533 562.131C262.308 560.095 271.201 555.794 276.473 546.934C277.767 544.766 278.777 542.44 279.478 540.014C280.095 537.884 280.5 535.698 280.686 533.488C280.306 531.399 279.933 529.289 279.58 527.138C279.227 524.988 278.901 522.81 278.542 520.605C278.144 517.932 277.775 515.298 277.436 512.702C277.097 510.106 276.796 507.541 276.534 505.008L247.728 506.738L218.93 508.462Z" fill="#83C00E"/>
<path d="M239.303 564.824C239.102 564.823 238.908 564.754 238.753 564.627C238.6 564.494 238.497 564.312 238.461 564.112L237.186 556.48L235.931 548.841C235.912 548.731 235.915 548.618 235.941 548.51C235.966 548.401 236.014 548.299 236.08 548.21C236.144 548.119 236.226 548.042 236.32 547.982C236.415 547.923 236.52 547.883 236.63 547.864C236.739 547.845 236.852 547.848 236.96 547.874C237.069 547.899 237.171 547.947 237.261 548.013C237.443 548.144 237.567 548.341 237.607 548.563L238.855 556.202L240.11 563.84C240.129 563.95 240.126 564.063 240.1 564.171C240.075 564.28 240.027 564.382 239.961 564.471C239.896 564.562 239.815 564.64 239.72 564.699C239.626 564.758 239.521 564.799 239.411 564.817H239.275L239.303 564.824Z" fill="#1F5D00"/>
<path d="M189.304 615.949H189.202H189.094C188.685 615.836 188.323 615.599 188.056 615.27C187.789 614.953 187.633 614.558 187.608 614.144C187.589 613.778 187.674 613.414 187.852 613.093C188.032 612.768 188.297 612.498 188.619 612.313L196.882 606.974L205.145 601.628C205.355 601.494 205.555 601.345 205.742 601.18C205.905 601.033 206.055 600.872 206.189 600.698C206.309 600.533 206.416 600.358 206.508 600.176C206.601 599.995 206.678 599.807 206.739 599.613C206.822 599.31 206.861 598.997 206.854 598.683C206.848 598.348 206.796 598.014 206.698 597.693L203.306 586.16L199.914 574.627C196.481 565.936 193.707 558.019 191.733 551.69C189.758 545.36 188.564 540.625 188.34 538.298C188.116 536.296 188.116 534.276 188.34 532.274C188.569 530.079 189.285 527.963 190.437 526.08C191.447 524.57 192.693 523.233 194.127 522.118C195.554 521.007 197.039 519.975 198.578 519.024L198.883 518.821L199.195 518.617C201.909 516.881 204.704 515.225 207.838 513.516C210.972 511.806 214.419 510.124 218.34 508.272C215.772 505.908 213.584 503.162 211.854 500.131C210.81 498.385 209.916 496.553 209.181 494.656C208.187 492.033 207.67 489.253 207.655 486.447C207.644 483.602 208.143 480.779 209.127 478.11C209.888 476.025 210.912 474.047 212.173 472.221C212.301 472.037 212.496 471.91 212.716 471.868C212.826 471.847 212.939 471.848 213.048 471.871C213.158 471.894 213.262 471.94 213.353 472.004C213.538 472.132 213.664 472.326 213.706 472.547C213.746 472.769 213.697 472.997 213.571 473.184C212.395 474.887 211.438 476.731 210.721 478.673C209.81 481.161 209.351 483.791 209.364 486.44C209.384 489.064 209.873 491.662 210.809 494.113C211.51 495.905 212.356 497.636 213.34 499.29C214.262 500.901 215.319 502.431 216.501 503.862C217.695 505.3 219.009 506.635 220.429 507.851L220.931 508.278L221.44 508.706L220.836 508.984L220.233 509.262C216.06 511.189 212.424 512.98 209.134 514.744C205.843 516.508 202.913 518.238 200.131 520.035L199.819 520.239L199.507 520.442C198.054 521.343 196.648 522.316 195.294 523.359C193.975 524.381 192.83 525.609 191.902 526.996C190.869 528.695 190.236 530.606 190.05 532.586C189.845 534.421 189.845 536.273 190.05 538.108C190.247 539.919 191.21 544.065 193.083 550.17C194.955 556.276 197.73 564.356 201.549 574.03V574.071L204.941 585.604L208.333 597.137C208.475 597.615 208.553 598.11 208.564 598.609C208.566 599.068 208.502 599.525 208.374 599.966V599.999C208.288 600.274 208.182 600.542 208.055 600.8C207.916 601.069 207.755 601.325 207.573 601.567C207.381 601.813 207.165 602.04 206.929 602.245C206.67 602.48 206.391 602.691 206.094 602.876L197.811 608.235L189.521 613.595C189.46 613.623 189.408 613.667 189.372 613.724C189.341 613.765 189.324 613.815 189.324 613.866C189.332 613.921 189.356 613.973 189.392 614.015C189.435 614.059 189.489 614.089 189.548 614.104C189.656 614.132 189.757 614.181 189.846 614.249C189.935 614.317 190.009 614.401 190.065 614.497C190.121 614.594 190.158 614.7 190.173 614.811C190.188 614.921 190.18 615.034 190.152 615.142C190.105 615.326 189.998 615.488 189.847 615.603C189.717 615.784 189.523 615.908 189.304 615.949V615.949Z" fill="#1F5D00"/>
<path d="M479.622 337.862L441.713 331.186L403.81 324.511C403.516 324.451 403.245 324.309 403.029 324.101C402.813 323.893 402.66 323.628 402.589 323.337C402.506 323.03 402.499 322.706 402.568 322.395C402.638 322.085 402.783 321.795 402.989 321.553L414.678 308.1L426.367 294.661C429.063 291.519 432.493 289.093 436.353 287.598C440.054 286.172 444.073 285.776 447.981 286.452C451.583 287.095 454.965 288.632 457.818 290.923C460.776 293.307 463.144 296.341 464.738 299.789L473.042 317.53L481.352 335.27C481.488 335.571 481.545 335.901 481.519 336.229C481.493 336.558 481.384 336.874 481.203 337.15C481.038 337.41 480.801 337.616 480.52 337.743C480.239 337.87 479.927 337.911 479.622 337.862Z" fill="#F98638"/>
<path d="M302.164 581.051C302.045 581.05 301.927 581.025 301.818 580.977C301.706 580.925 301.606 580.848 301.526 580.753C300.963 580.075 300.427 579.437 299.912 578.718C299.396 577.999 298.908 577.32 298.44 576.594C297.972 575.868 297.551 575.149 297.144 574.403C296.737 573.657 296.357 572.897 296.004 572.124C295.919 571.917 295.919 571.685 296.004 571.479C296.043 571.374 296.102 571.278 296.177 571.196C296.253 571.115 296.345 571.049 296.447 571.003C296.548 570.957 296.658 570.931 296.77 570.928C296.881 570.925 296.992 570.944 297.096 570.984C297.201 571.021 297.298 571.08 297.379 571.155C297.461 571.231 297.526 571.323 297.571 571.425C297.904 572.157 298.25 572.883 298.657 573.596C299.064 574.308 299.457 575 299.891 575.678C300.326 576.357 300.801 577.035 301.289 577.714C301.777 578.392 302.293 579.009 302.829 579.627C302.974 579.799 303.046 580.02 303.032 580.244C303.015 580.467 302.91 580.675 302.741 580.821C302.662 580.888 302.573 580.941 302.476 580.977C302.378 581.021 302.272 581.046 302.164 581.051Z" fill="#AD4D4D"/>
<path d="M321.824 587.367C321.739 587.367 321.654 587.353 321.573 587.327C321.489 587.301 321.409 587.262 321.336 587.211C320.029 586.275 318.735 585.307 317.455 584.308C316.187 583.311 314.932 582.273 313.71 581.228C312.143 579.871 310.597 578.467 309.097 577.008C307.598 575.55 306.133 574.05 304.728 572.51C304.651 572.429 304.592 572.333 304.553 572.228C304.515 572.123 304.498 572.011 304.504 571.9C304.514 571.675 304.611 571.463 304.776 571.309C304.944 571.16 305.163 571.082 305.387 571.093C305.612 571.103 305.823 571.2 305.977 571.364C307.361 572.879 308.794 574.353 310.278 575.787C311.761 577.221 313.276 578.607 314.823 579.946C316.024 580.977 317.252 581.981 318.507 582.978C319.762 583.975 321.031 584.912 322.32 585.827C322.438 585.913 322.532 586.027 322.594 586.16C322.655 586.292 322.682 586.438 322.671 586.584C322.66 586.729 322.612 586.87 322.531 586.991C322.451 587.113 322.341 587.212 322.211 587.279C322.09 587.336 321.958 587.366 321.824 587.367Z" fill="#AD4D4D"/>
<path d="M329.592 584.077C329.512 584.075 329.432 584.064 329.355 584.043C329.276 584.019 329.201 583.985 329.131 583.942L327.889 583.114L326.675 582.266C326.675 582.266 325.997 581.811 325.101 581.133C324.206 580.455 322.964 579.525 321.784 578.569C319.599 576.798 317.455 574.803 315.678 573.087C313.901 571.371 312.571 569.946 311.974 569.308C311.897 569.228 311.837 569.134 311.797 569.03C311.758 568.926 311.739 568.815 311.743 568.705C311.748 568.536 311.803 568.372 311.901 568.235C311.999 568.098 312.136 567.993 312.294 567.934C312.452 567.875 312.624 567.865 312.789 567.904C312.953 567.943 313.101 568.031 313.215 568.155C313.799 568.779 315.135 570.19 316.858 571.873C318.582 573.555 320.685 575.516 322.822 577.252C323.982 578.189 325.176 579.091 326.078 579.763C326.98 580.434 327.611 580.875 327.618 580.882L328.819 581.71L330.033 582.517C330.22 582.641 330.352 582.833 330.399 583.053C330.422 583.162 330.423 583.274 330.402 583.384C330.381 583.493 330.339 583.598 330.277 583.691C330.202 583.812 330.094 583.911 329.965 583.976C329.851 584.039 329.723 584.074 329.592 584.077Z" fill="#AD4D4D"/>
<path d="M325.074 572.476C324.977 572.477 324.881 572.461 324.789 572.429C324.695 572.394 324.608 572.343 324.531 572.28C324.165 571.974 323.799 571.656 323.446 571.33C323.093 571.004 322.767 570.652 322.401 570.326C321.646 569.571 320.933 568.776 320.264 567.945C319.593 567.109 318.966 566.24 318.385 565.34C318.262 565.151 318.218 564.922 318.263 564.702C318.313 564.482 318.447 564.29 318.636 564.166C318.825 564.045 319.054 564.004 319.274 564.051C319.493 564.098 319.685 564.23 319.809 564.417C320.356 565.27 320.95 566.092 321.587 566.88C322.225 567.665 322.905 568.417 323.622 569.132C323.941 569.458 324.301 569.77 324.606 570.082C324.911 570.394 325.284 570.685 325.637 570.977C325.723 571.048 325.795 571.135 325.847 571.234C325.899 571.332 325.931 571.44 325.941 571.551C325.951 571.663 325.939 571.775 325.906 571.881C325.872 571.987 325.818 572.086 325.746 572.171C325.665 572.27 325.563 572.349 325.447 572.402C325.33 572.453 325.202 572.479 325.074 572.476Z" fill="#AD4D4D"/>
<path d="M276.052 505.857C275.842 505.856 275.639 505.779 275.482 505.64C275.327 505.499 275.23 505.305 275.211 505.097L273.779 491.495L272.355 477.927C272.338 477.762 272.37 477.597 272.447 477.451C272.523 477.304 272.641 477.184 272.786 477.105C272.931 477.025 273.096 476.99 273.26 477.003C273.425 477.017 273.582 477.078 273.711 477.18C273.799 477.25 273.871 477.336 273.925 477.434C273.978 477.532 274.012 477.639 274.023 477.75L275.448 491.318L276.873 504.887C276.885 504.998 276.875 505.11 276.843 505.217C276.812 505.324 276.76 505.424 276.69 505.511C276.62 505.598 276.534 505.669 276.436 505.722C276.338 505.774 276.23 505.806 276.12 505.816H276.031L276.052 505.857Z" fill="#1F5D00"/>
<path d="M223.156 154.657L115.669 149.44L8.1751 144.23C7.85633 144.215 7.54362 144.138 7.25494 144.002C6.96627 143.866 6.70732 143.674 6.49298 143.438C6.27863 143.201 6.11313 142.925 6.00596 142.624C5.89879 142.324 5.85208 142.005 5.86851 141.686C7.28264 112.548 20.2134 85.1658 41.8162 65.5616C63.4191 45.9575 91.9247 35.7376 121.062 37.15H121.178C135.606 37.8485 149.756 41.3823 162.818 47.5495C175.881 53.7167 187.601 62.3966 197.309 73.0936C207.017 83.7905 214.523 96.295 219.397 109.893C224.272 123.491 226.421 137.916 225.721 152.344C225.687 152.987 225.401 153.59 224.924 154.022C224.448 154.454 223.82 154.68 223.177 154.651L223.156 154.657Z" fill="#F98638"/>
<path d="M107.006 108.688H106.877C106.654 108.674 106.437 108.615 106.237 108.514C106.038 108.414 105.861 108.275 105.717 108.105C105.571 107.936 105.46 107.74 105.39 107.528C105.32 107.316 105.293 107.093 105.31 106.87L107.772 74.13L110.235 41.3832L85.222 58.1195L60.2294 74.8559C60.0444 74.9811 59.8364 75.0683 59.6175 75.1125C59.3986 75.1568 59.173 75.1572 58.954 75.1137C58.5151 75.0222 58.1285 74.7645 57.8753 74.3946C57.7513 74.2091 57.6653 74.0009 57.6222 73.782C57.5791 73.5631 57.5798 73.3378 57.6243 73.1192C57.6665 72.9006 57.7518 72.6927 57.8753 72.5075C57.9988 72.3223 58.1579 72.1635 58.3434 72.0405L83.3631 55.2838L108.383 38.527C108.841 38.0893 109.421 37.801 110.047 37.7005C110.673 37.5999 111.314 37.6918 111.887 37.964C112.459 38.2362 112.935 38.6758 113.252 39.2246C113.569 39.7734 113.711 40.4055 113.661 41.0372L111.178 74.0757L108.695 107.114C108.663 107.54 108.471 107.938 108.157 108.229C107.844 108.519 107.433 108.681 107.006 108.681V108.688Z" fill="#AD4D4D"/>
<path d="M159.216 93.2952C158.983 93.2952 158.752 93.2467 158.538 93.1528C158.316 93.0543 158.118 92.9111 157.954 92.7322L134.21 66.2335L110.466 39.728L110.981 38.4797L111.49 37.2314L112.277 37.4825L113.057 37.7267L139.827 47.6722L166.631 57.6177C167.053 57.7742 167.396 58.0919 167.583 58.501C167.771 58.91 167.788 59.3768 167.632 59.7987C167.475 60.2207 167.158 60.5631 166.749 60.7508C166.34 60.9385 165.873 60.9559 165.451 60.7994L141.829 52.0208L118.213 43.2422L139.346 66.8576L160.478 90.4595C160.628 90.6248 160.743 90.8181 160.818 91.0282C160.892 91.2383 160.924 91.4611 160.912 91.6837C160.9 91.9063 160.844 92.1244 160.748 92.3253C160.651 92.5262 160.516 92.706 160.349 92.8543C160.192 92.9952 160.011 93.1056 159.813 93.1799C159.623 93.2553 159.421 93.2945 159.216 93.2952Z" fill="#AD4D4D"/>
<path d="M325.081 572.008L324.402 571.479L323.961 571.12C324.119 571.31 324.296 571.483 324.491 571.635C324.674 571.779 324.872 571.904 325.081 572.008Z" fill="#AD4D4D"/>
<path d="M255.252 421.082C255.26 424.945 253.928 428.69 251.483 431.68C249.038 434.67 245.632 436.72 241.845 437.479C238.058 438.239 234.125 437.661 230.716 435.845C227.307 434.029 224.634 431.087 223.152 427.52C221.67 423.954 221.471 419.984 222.588 416.287C223.706 412.589 226.072 409.395 229.281 407.247C232.491 405.098 236.347 404.13 240.191 404.507C244.035 404.883 247.629 406.582 250.361 409.312C251.909 410.856 253.139 412.691 253.978 414.71C254.817 416.73 255.25 418.895 255.252 421.082Z" fill="#FFAA9F"/>
<path d="M231.915 420.235C231.849 420.56 231.659 420.847 231.386 421.035C231.109 421.22 230.77 421.289 230.443 421.225C230.28 421.196 230.126 421.133 229.988 421.042C229.851 420.951 229.733 420.834 229.642 420.696C229.458 420.42 229.39 420.083 229.453 419.758C229.517 419.432 229.707 419.145 229.981 418.959C230.257 418.776 230.593 418.708 230.918 418.77C231.242 418.832 231.53 419.02 231.718 419.292C231.905 419.568 231.976 419.907 231.915 420.235V420.235Z" fill="#1F5D00"/>
<path d="M241.08 421.082C241.015 421.408 240.825 421.695 240.551 421.883C240.345 422.021 240.104 422.095 239.856 422.097C239.608 422.098 239.366 422.026 239.159 421.889C238.953 421.753 238.791 421.558 238.694 421.33C238.598 421.102 238.571 420.851 238.617 420.608C238.643 420.44 238.701 420.28 238.79 420.136C238.879 419.992 238.996 419.867 239.134 419.77C239.272 419.672 239.428 419.603 239.594 419.568C239.759 419.532 239.93 419.53 240.096 419.562C240.262 419.594 240.42 419.659 240.56 419.754C240.701 419.849 240.82 419.97 240.912 420.113C241.004 420.255 241.066 420.414 241.095 420.58C241.124 420.747 241.119 420.918 241.08 421.082V421.082Z" fill="#1F5D00"/>
<path d="M235.069 428.891C233.829 428.886 232.614 428.549 231.548 427.914C230.912 427.552 230.336 427.094 229.839 426.557C229.69 426.389 229.613 426.171 229.622 425.947C229.628 425.836 229.657 425.727 229.706 425.626C229.755 425.526 229.823 425.437 229.907 425.363C229.989 425.288 230.085 425.23 230.19 425.193C230.295 425.155 230.406 425.14 230.517 425.146C230.628 425.15 230.738 425.177 230.838 425.224C230.938 425.272 231.028 425.34 231.101 425.424C231.481 425.836 231.92 426.191 232.403 426.476C233.213 426.955 234.135 427.21 235.076 427.215C235.977 427.212 236.862 426.978 237.647 426.537C238.116 426.281 238.546 425.959 238.923 425.58C239.083 425.423 239.298 425.334 239.523 425.334C239.748 425.334 239.964 425.423 240.124 425.58C240.285 425.738 240.377 425.952 240.381 426.177C240.383 426.289 240.362 426.4 240.32 426.504C240.278 426.608 240.216 426.702 240.137 426.781C239.642 427.281 239.078 427.706 238.461 428.043C237.421 428.609 236.254 428.901 235.069 428.891Z" fill="#AD4D4D"/>
<path d="M233.841 412.826C234.826 414.25 236.199 415.361 237.796 416.028C239.404 416.706 241.169 416.919 242.891 416.646C243.214 417.626 243.731 418.532 244.41 419.309C245.089 420.086 245.918 420.719 246.846 421.171C247.669 421.592 248.572 421.833 249.496 421.876C250.419 421.919 251.341 421.764 252.199 421.422C252.803 421.16 253.358 420.797 253.841 420.35C254.331 419.883 254.752 419.349 255.089 418.762C254.739 416.262 253.826 413.874 252.419 411.778C251.013 409.682 249.149 407.933 246.968 406.661C244.788 405.389 242.347 404.629 239.83 404.437C237.313 404.245 234.785 404.627 232.437 405.554C232.152 406.79 232.125 408.071 232.356 409.319C232.593 410.581 233.1 411.777 233.841 412.826Z" fill="#AD4D4D"/>
<path d="M266.296 395.527C266.299 398.732 265.191 401.838 263.16 404.317C261.129 406.797 258.302 408.495 255.159 409.124C252.017 409.752 248.754 409.271 245.926 407.764C243.098 406.256 240.88 403.814 239.65 400.855C238.421 397.895 238.255 394.601 239.182 391.533C240.109 388.466 242.07 385.814 244.733 384.03C247.395 382.247 250.594 381.441 253.783 381.751C256.973 382.061 259.957 383.468 262.226 385.731C263.516 387.015 264.54 388.541 265.239 390.222C265.938 391.904 266.297 393.706 266.296 395.527Z" fill="#AD4D4D"/>
<path d="M271.785 377.271C271.783 379.42 271.037 381.501 269.672 383.161C268.308 384.822 266.41 385.957 264.302 386.375C262.195 386.792 260.007 386.466 258.113 385.452C256.219 384.437 254.735 382.797 253.914 380.811C253.093 378.825 252.987 376.616 253.612 374.56C254.238 372.505 255.557 370.73 257.345 369.537C259.133 368.345 261.278 367.81 263.417 368.023C265.555 368.235 267.553 369.183 269.071 370.704C270.809 372.447 271.785 374.809 271.785 377.271Z" fill="#AD4D4D"/>
<path d="M70.8738 529.235C70.8738 530.042 70.0869 530.775 68.8386 531.304C65.6284 532.444 62.1236 532.444 58.9135 531.304C57.6448 530.775 56.8782 530.042 56.8782 529.235C56.8782 528.427 57.6652 527.695 58.9135 527.199C62.1221 526.051 65.63 526.051 68.8386 527.199C70.0869 527.695 70.8738 528.427 70.8738 529.235Z" fill="#1F5D00"/>
<path d="M419.678 528.421C419.678 529.235 418.891 529.967 417.643 530.496C414.43 531.636 410.923 531.636 407.711 530.496C406.442 529.967 405.676 529.235 405.676 528.421C405.676 527.606 406.463 526.881 407.711 526.351C410.923 525.211 414.43 525.211 417.643 526.351C418.905 526.881 419.678 527.613 419.678 528.421Z" fill="#1F5D00"/>
<path d="M124.658 271.106C124.655 273.543 123.808 275.904 122.26 277.786C120.712 279.669 118.56 280.956 116.169 281.43C113.779 281.903 111.298 281.533 109.15 280.383C107.001 279.233 105.318 277.374 104.386 275.122C103.455 272.87 103.333 270.365 104.041 268.033C104.749 265.701 106.244 263.687 108.27 262.333C110.297 260.98 112.73 260.371 115.155 260.61C117.58 260.849 119.848 261.921 121.571 263.644C122.552 264.623 123.33 265.786 123.859 267.067C124.389 268.348 124.66 269.72 124.658 271.106Z" fill="#DEB8FC"/>
<path d="M165.878 304.158C165.878 306.599 165.032 308.964 163.484 310.851C161.936 312.737 159.782 314.029 157.389 314.505C154.995 314.982 152.511 314.614 150.358 313.464C148.206 312.314 146.518 310.453 145.584 308.199C144.649 305.945 144.525 303.436 145.233 301.1C145.941 298.765 147.436 296.747 149.465 295.39C151.493 294.033 153.929 293.422 156.358 293.66C158.787 293.898 161.058 294.971 162.785 296.696C163.768 297.674 164.547 298.837 165.078 300.118C165.609 301.399 165.881 302.772 165.878 304.158Z" fill="#DEB8FC"/>
<path d="M176.807 243.665C176.805 246.102 175.957 248.462 174.409 250.344C172.862 252.227 170.709 253.514 168.319 253.988C165.928 254.461 163.448 254.092 161.299 252.941C159.151 251.791 157.467 249.932 156.536 247.68C155.604 245.428 155.482 242.923 156.191 240.591C156.899 238.259 158.393 236.245 160.42 234.892C162.446 233.538 164.879 232.929 167.305 233.168C169.73 233.407 171.997 234.479 173.721 236.202C174.702 237.181 175.479 238.345 176.009 239.625C176.539 240.906 176.81 242.279 176.807 243.665Z" fill="#DEB8FC"/>
<path d="M463.578 319.986C463.375 320.633 463.024 321.225 462.553 321.713C462.082 322.202 461.504 322.574 460.864 322.801C459.373 323.337 457.753 323.398 456.226 322.975C454.698 322.552 453.34 321.667 452.337 320.44C451.891 319.929 451.578 319.316 451.427 318.655C451.276 317.993 451.292 317.305 451.472 316.651C451.652 315.997 451.991 315.398 452.459 314.907C452.928 314.417 453.51 314.05 454.155 313.839C455.65 313.292 457.279 313.226 458.814 313.649C460.348 314.072 461.713 314.964 462.716 316.2C463.143 316.722 463.443 317.335 463.592 317.992C463.742 318.648 463.737 319.331 463.578 319.986Z" fill="#AD4D4D"/>
<path d="M470.796 328.948C470.674 329.341 470.462 329.701 470.178 329.999C469.893 330.297 469.542 330.525 469.154 330.664C468.241 330.997 467.246 331.037 466.308 330.778C465.37 330.519 464.537 329.974 463.924 329.219C463.643 328.907 463.446 328.529 463.349 328.12C463.253 327.712 463.26 327.285 463.371 326.88C463.481 326.475 463.692 326.105 463.983 325.802C464.274 325.5 464.636 325.275 465.036 325.149C465.951 324.818 466.945 324.78 467.882 325.039C468.819 325.298 469.652 325.841 470.267 326.594C470.535 326.916 470.722 327.298 470.814 327.707C470.906 328.116 470.9 328.541 470.796 328.948Z" fill="#AD4D4D"/>
<path d="M491.657 402.718C491.461 403.113 491.174 403.456 490.821 403.72C490.467 403.984 490.057 404.161 489.622 404.237C488.61 404.43 487.562 404.303 486.626 403.872C485.69 403.442 484.911 402.73 484.398 401.836C484.159 401.461 484.018 401.033 483.987 400.59C483.955 400.146 484.035 399.702 484.219 399.298C484.403 398.893 484.686 398.541 485.04 398.274C485.395 398.006 485.811 397.831 486.25 397.765C487.263 397.558 488.316 397.687 489.249 398.132C490.192 398.55 490.973 399.265 491.474 400.167C491.704 400.547 491.841 400.977 491.873 401.42C491.905 401.864 491.831 402.309 491.657 402.718Z" fill="#AD4D4D"/>
<path d="M480.565 404.74C480.435 405.005 480.245 405.235 480.009 405.413C479.773 405.591 479.499 405.711 479.208 405.764C478.526 405.896 477.819 405.811 477.187 405.52C476.556 405.229 476.031 404.747 475.688 404.143C475.532 403.891 475.44 403.605 475.422 403.31C475.404 403.014 475.459 402.719 475.583 402.45C475.706 402.182 475.895 401.948 476.131 401.769C476.367 401.591 476.643 401.474 476.936 401.429C477.619 401.297 478.325 401.383 478.957 401.673C479.589 401.964 480.113 402.446 480.457 403.05C480.605 403.304 480.692 403.589 480.711 403.882C480.73 404.175 480.68 404.469 480.565 404.74Z" fill="#AD4D4D"/>
</svg>
