<svg width="507" height="458" viewBox="0 0 507 458" fill="#7CBD1E" stroke="#7CBD1E" xmlns="http://www.w3.org/2000/svg">
<path d="M469.007 193.866V218.935C469.007 339.602 401.372 394.415 317.952 394.415H270.66C268.608 405.846 267.601 418.317 267.601 432.017H242.425C242.425 414.933 243.885 399.428 246.781 385.239C243.885 369.02 242.425 347.01 242.425 319.209C242.425 249.982 298.781 193.866 368.304 193.866C393.48 193.866 418.655 206.4 469.007 193.866ZM368.304 218.935C312.691 218.935 267.601 263.832 267.601 319.209C267.601 323.746 267.639 328.121 267.727 332.32C283.512 307.527 306.636 287.936 336.885 270.726L349.372 292.486C313.433 312.942 289.592 336.18 277.369 369.346H317.952C393.668 369.346 442.207 319.547 443.793 223.798C426.523 225.465 410.473 224.399 390.672 221.441C376.196 219.273 373.352 218.935 368.304 218.935Z" fill="#7CBD1E"/>
<path d="M37.7714 193.866V218.935C37.7714 339.602 105.406 394.415 188.826 394.415H236.118C238.17 405.846 239.177 418.317 239.177 432.017H264.353C264.353 414.933 262.893 399.428 259.997 385.239C262.893 369.02 264.353 347.01 264.353 319.209C264.353 249.982 207.997 193.866 138.474 193.866C113.299 193.866 88.1228 206.4 37.7714 193.866ZM138.474 218.935C194.087 218.935 239.177 263.832 239.177 319.209C239.177 323.746 239.139 328.121 239.051 332.32C223.266 307.527 200.142 287.936 169.894 270.726L157.406 292.486C193.345 312.942 217.186 336.18 229.409 369.346H188.826C113.11 369.346 64.571 319.547 62.9849 223.798C80.2554 225.465 96.3049 224.399 116.106 221.441C130.582 219.273 133.427 218.935 138.474 218.935Z" fill="#7CBD1E"/>
<path d="M321.166 66.731L321.166 66.7309C305.309 40.575 282.798 18.838 255.803 3.61573L255.803 3.6157L251.003 0.912864L250.954 0.885236L250.904 0.912864L246.105 3.61566C246.104 3.61567 246.104 3.61569 246.104 3.6157C218.65 19.0411 195.853 41.2341 180.006 67.9621C164.16 94.6901 155.823 125.01 155.836 155.871C155.836 157.882 155.872 159.924 155.942 161.941L155.942 161.941C156.896 189.296 167.643 212.32 187.023 228.517C201.83 240.892 220.816 248.452 241.27 250.271V282.415V282.515H241.37H260.542H260.642V282.415V133.1V133H260.542H241.368H241.268V133.1V231.284C208.952 227.597 176.837 205.351 175.3 161.299L175.2 161.303L175.3 161.299C175.237 159.495 175.205 157.669 175.205 155.871C175.262 129.257 182.243 103.09 195.498 79.8127C208.743 56.5528 227.821 36.9358 250.954 22.7895C274.085 36.9361 293.163 56.5532 306.407 79.8131C319.662 103.09 326.643 129.257 326.7 155.872C326.7 157.669 326.668 159.495 326.604 161.3C325.374 196.584 304.526 217.872 279.674 226.847L279.608 226.871V226.941V246.695V246.826L279.735 246.791C292.662 243.224 304.649 236.991 314.884 228.516L314.884 228.515C334.264 212.319 345.011 189.295 345.965 161.94C346.036 159.923 346.071 157.881 346.071 155.871C346.089 124.526 337.489 93.7481 321.166 66.731Z" fill="#7CBD1E" stroke="#7CBD1E" stroke-width="0.2"/>
</svg>
