<svg width="538" height="538" viewBox="0 0 538 538" fill="none" xmlns="http://www.w3.org/2000/svg">
<path d="M367.183 78.3403L356.613 83.7675L346.037 89.1948C345.761 89.3374 345.518 89.536 345.323 89.778C345.128 90.02 344.985 90.3 344.905 90.6002C344.825 90.9003 344.808 91.214 344.855 91.521C344.903 91.8281 345.014 92.1218 345.182 92.3833L351.641 102.349L358.099 112.315C358.32 112.659 358.442 113.057 358.452 113.466C358.462 113.875 358.359 114.278 358.154 114.632C357.949 114.986 357.651 115.277 357.292 115.473C356.933 115.668 356.527 115.761 356.118 115.741L344.253 115.124L332.387 114.459C332.077 114.443 331.766 114.493 331.476 114.605C331.186 114.716 330.923 114.888 330.703 115.108C330.483 115.328 330.311 115.591 330.2 115.881C330.088 116.172 330.038 116.482 330.054 116.793L330.671 128.651L331.288 140.51C331.307 140.914 331.214 141.315 331.021 141.67C330.827 142.026 330.54 142.321 330.191 142.525C329.842 142.729 329.443 142.834 329.039 142.828C328.634 142.822 328.239 142.705 327.896 142.491L317.931 136.032L307.965 129.581C307.704 129.412 307.411 129.299 307.105 129.25C306.799 129.202 306.485 129.218 306.185 129.298C305.885 129.378 305.606 129.52 305.364 129.714C305.123 129.909 304.925 130.152 304.783 130.429L299.356 141.005L293.928 151.581C293.741 151.944 293.458 152.249 293.109 152.461C292.76 152.674 292.359 152.786 291.951 152.786C291.542 152.786 291.142 152.674 290.793 152.461C290.444 152.249 290.16 151.944 289.973 151.581L284.546 141.005L279.119 130.429C278.977 130.152 278.779 129.909 278.537 129.714C278.296 129.52 278.016 129.378 277.716 129.298C277.416 129.218 277.103 129.202 276.797 129.25C276.49 129.299 276.197 129.412 275.937 129.581L265.971 136.032L256.005 142.491C255.662 142.714 255.263 142.839 254.853 142.85C254.443 142.86 254.039 142.758 253.684 142.552C253.329 142.347 253.038 142.048 252.843 141.687C252.648 141.327 252.557 140.919 252.579 140.51L253.197 128.651L253.814 116.793C253.83 116.482 253.78 116.172 253.668 115.881C253.556 115.591 253.385 115.328 253.165 115.108C252.945 114.888 252.682 114.716 252.391 114.605C252.101 114.493 251.791 114.443 251.48 114.459L239.622 115.076L227.756 115.694C227.348 115.714 226.942 115.621 226.583 115.425C226.224 115.23 225.925 114.939 225.721 114.585C225.516 114.231 225.413 113.827 225.422 113.419C225.432 113.01 225.554 112.611 225.775 112.268L232.234 102.302L238.767 92.3359C238.935 92.0743 239.046 91.7806 239.094 91.4735C239.141 91.1665 239.125 90.8528 239.044 90.5527C238.964 90.2525 238.821 89.9725 238.626 89.7305C238.431 89.4885 238.188 89.2899 237.912 89.1473L227.336 83.72L216.766 78.2928C216.401 78.1072 216.094 77.8243 215.88 77.4752C215.666 77.1262 215.553 76.7247 215.553 76.3152C215.553 75.9057 215.666 75.5042 215.88 75.1552C216.094 74.8062 216.401 74.5232 216.766 74.3376L227.336 68.9104L237.912 63.4831C238.188 63.3405 238.431 63.1419 238.626 62.8999C238.821 62.6579 238.964 62.3779 239.044 62.0777C239.125 61.7776 239.141 61.4639 239.094 61.1569C239.046 60.8498 238.935 60.5561 238.767 60.2945L232.288 50.4508L225.836 40.485C225.622 40.1425 225.506 39.7481 225.5 39.3443C225.493 38.9404 225.597 38.5426 225.8 38.1935C226.003 37.8445 226.298 37.5575 226.652 37.3635C227.007 37.1696 227.407 37.076 227.811 37.0929L239.676 37.7103L251.535 38.3276C251.845 38.3432 252.155 38.2935 252.446 38.1817C252.736 38.0699 252.999 37.8986 253.219 37.6787C253.439 37.4588 253.611 37.1953 253.722 36.9051C253.834 36.6149 253.884 36.3045 253.868 35.9939L253.251 24.1353L252.634 12.2767C252.611 11.8674 252.702 11.4599 252.897 11.0993C253.092 10.7387 253.383 10.4392 253.738 10.234C254.093 10.0288 254.498 9.92597 254.908 9.93686C255.317 9.94776 255.716 10.072 256.06 10.2957L266.025 16.7542L275.991 23.2127C276.252 23.3804 276.545 23.4916 276.852 23.5393C277.159 23.587 277.472 23.57 277.771 23.4895C278.071 23.409 278.35 23.2668 278.592 23.0719C278.833 22.877 279.031 22.6338 279.173 22.3579L284.6 11.7815L290.027 1.20505C290.215 0.842025 290.498 0.537548 290.847 0.324992C291.196 0.112436 291.597 0 292.005 0C292.414 0 292.814 0.112436 293.163 0.324992C293.512 0.537548 293.795 0.842025 293.983 1.20505L299.41 11.7815L304.837 22.3579C304.979 22.6338 305.177 22.877 305.418 23.0719C305.66 23.2668 305.939 23.409 306.239 23.4895C306.538 23.57 306.852 23.587 307.158 23.5393C307.465 23.4916 307.758 23.3804 308.019 23.2127L317.985 16.7542L327.957 10.2957C328.3 10.0813 328.695 9.96478 329.1 9.9587C329.504 9.95261 329.903 10.0572 330.252 10.2612C330.601 10.4652 330.888 10.7608 331.082 11.116C331.275 11.4713 331.368 11.8726 331.349 12.2767L330.732 24.1353L330.115 36.0007C330.112 36.2983 330.169 36.5935 330.283 36.8686C330.396 37.1438 330.564 37.3932 330.776 37.6021C330.988 37.811 331.24 37.9751 331.517 38.0846C331.794 38.1941 332.09 38.2467 332.387 38.2394L344.253 37.6221L356.111 37.0047C356.515 36.9889 356.915 37.083 357.268 37.277C357.622 37.471 357.917 37.7576 358.12 38.1061C358.324 38.4545 358.429 38.8518 358.424 39.2553C358.419 39.6588 358.304 40.0534 358.092 40.3968L351.641 50.4508L345.182 60.4167C345.014 60.6782 344.903 60.9719 344.855 61.279C344.808 61.586 344.825 61.8997 344.905 62.1998C344.985 62.5 345.128 62.78 345.323 63.022C345.518 63.264 345.761 63.4627 346.037 63.6052L356.613 69.0325L367.183 74.4597C367.548 74.6453 367.855 74.9283 368.069 75.2773C368.283 75.6263 368.396 76.0278 368.396 76.4373C368.396 76.8468 368.283 77.2483 368.069 77.5973C367.855 77.9464 367.548 78.2293 367.183 78.4149V78.3403Z" fill="#7DBA07"/>
<path d="M104.571 212.652C103.98 206.482 104.137 200.263 105.039 194.131C105.832 188.209 107.074 182.747 108.071 178.378C109.489 172.273 111.258 166.255 113.37 160.353C115.249 155.089 117.162 150.584 118.851 146.927L108.166 144.356L97.4812 141.785C96.1244 145.001 94.5233 148.969 92.8951 153.603C91.2669 158.236 89.5913 163.548 88.0581 169.43C85.4665 179.369 83.1803 187.897 82.0881 195.983C80.9958 204.07 81.0908 211.716 83.2685 219.904C84.2804 223.701 85.669 227.387 87.4136 230.908C90.0009 236.094 93.2381 240.929 97.047 245.297L103.919 253.689L110.812 262.115C133.919 290.35 146.266 305.451 153.341 314.183C160.417 322.914 162.215 325.261 164.23 327.975C176.163 344.033 185.152 356.061 191.631 366.427C198.11 376.793 202.065 385.504 203.924 394.92C208.801 419.601 198.686 445.726 184.962 468.053C171.238 490.379 153.905 508.907 144.332 518.398H178.47C181.685 515.331 187.486 509.429 193.483 502.658C199.48 495.888 205.694 488.263 209.656 481.743C214.697 473.194 218.943 464.202 222.343 454.878C227.268 441.507 231.501 424.763 230.884 407.776C230.293 391.542 225.361 377.79 217.153 363.924C208.944 350.057 197.479 336.068 183.768 319.352C180.749 315.668 175.424 308.81 168.239 299.936C161.055 291.062 152.005 280.174 141.537 268.41C130.119 255.561 121.402 246.511 115.296 238.207C109.191 229.904 105.656 222.394 104.571 212.652Z" fill="#83C00E"/>
<path d="M433.233 320.39L459.691 320.153L486.149 319.922C494.259 318.549 501.585 314.251 506.739 307.84C511.873 301.512 514.498 293.516 514.113 285.377C513.679 276.809 509.968 270.629 504.188 266.518C498.408 262.406 490.552 260.358 481.841 260.079L473.124 260.31L464.399 260.541C467.377 260.541 470.335 260.765 473.307 260.989C476.286 261.265 479.279 261.344 482.269 261.226C487.188 261.001 492.049 260.061 496.698 258.438C501.366 256.728 505.619 254.103 508.611 250.209C511.603 246.315 512.756 241.104 512.329 236.023C511.907 230.973 510.021 226.157 506.902 222.163C502.377 216.532 495.83 213.344 488.741 211.614C481.651 209.884 474.026 209.68 467.337 210.04C467.194 210.04 466.163 210.081 465.166 210.148C464.169 210.216 463.192 210.311 463.178 210.44C463.109 210.458 463.039 210.469 462.968 210.474C462.866 210.474 462.757 210.474 462.751 210.474C462.744 210.474 466.719 209.375 471.869 207.231C477.018 205.088 483.32 201.743 487.893 196.825C490.887 193.569 493.156 189.714 494.548 185.515C495.972 181.126 496.285 176.343 494.548 171.907C493.397 169.069 491.563 166.559 489.209 164.6C487.77 163.381 486.197 162.33 484.521 161.466C475.369 156.595 464.515 157.477 455.783 159.709C447.052 161.941 440.438 165.523 439.759 166.031C441.7 152.226 440.506 139.892 437.046 130.395C433.586 120.897 428.003 114.221 420.988 111.772C417.885 110.717 414.573 110.428 411.334 110.931C409.652 111.169 408.004 111.611 406.429 112.247C399.55 115.117 394.292 122.009 391.409 131.534C388.526 141.059 388.017 153.243 390.649 166.608C384.192 164.892 377.564 163.898 370.887 163.643C361.254 163.365 350.535 165.061 344.775 172.544C344.252 173.223 343.776 173.937 343.351 174.681C342.889 175.489 342.487 176.331 342.15 177.198C341.378 179.505 340.937 181.911 340.84 184.342C340.785 186.063 340.946 187.784 341.322 189.464C342.496 194.708 345.793 199.47 350.684 203.385C355.575 207.299 362.068 210.359 369.632 212.204C373.112 212.516 376.091 212.964 378.194 213.33C380.297 213.697 381.538 214.009 381.538 214.009C379.444 213.873 377.409 213.647 375.433 213.33C373.456 213.014 371.529 212.636 369.653 212.197C362.929 211.6 354.334 211.519 346.498 213.452C338.663 215.386 331.573 219.395 327.937 226.973C325.902 231.186 325.193 235.917 325.902 240.541C326.598 245.174 328.604 249.512 331.682 253.044C334.908 256.691 338.865 259.617 343.296 261.633C348.506 264.069 355.202 265.853 363.784 266.267L370.25 266.097L376.708 265.921C374.347 266.144 372.095 266.273 369.924 266.328C367.753 266.382 365.718 266.362 363.764 266.267L354.531 266.511L345.277 266.728C338.072 266.918 331.193 269.773 325.97 274.74C320.745 279.661 317.634 286.417 317.293 293.586C317.103 297.468 317.716 301.346 319.095 304.98C320.474 308.613 322.589 311.922 325.307 314.699C328.025 317.477 331.287 319.663 334.889 321.121C338.491 322.579 342.356 323.277 346.241 323.172L367.468 322.412L388.695 321.618L388.974 412.165L389.259 502.713H433.416C433.416 486.879 433.355 449.213 433.328 411.548C433.301 373.883 433.267 336.224 433.233 320.39Z" fill="#83C00E"/>
<path d="M433.219 320.397H408.322C412.483 328.022 416.646 335.647 420.811 343.273C424.977 350.898 429.14 358.526 433.301 366.156L433.26 343.273L433.219 320.397Z" fill="#1F5D00"/>
<path d="M463.205 211.458H451.639C451.369 211.458 451.11 211.351 450.919 211.16C450.728 210.969 450.621 210.71 450.621 210.44C450.62 210.306 450.645 210.174 450.697 210.05C450.748 209.927 450.824 209.815 450.919 209.721C451.014 209.626 451.126 209.551 451.249 209.5C451.372 209.449 451.505 209.422 451.639 209.423H463.205C463.339 209.422 463.471 209.449 463.595 209.5C463.718 209.551 463.83 209.626 463.925 209.721C464.115 209.912 464.222 210.171 464.223 210.44C464.223 210.574 464.197 210.706 464.146 210.83C464.095 210.953 464.019 211.065 463.925 211.159C463.831 211.255 463.719 211.331 463.596 211.383C463.472 211.434 463.339 211.46 463.205 211.458V211.458Z" fill="#5B9900"/>
<path d="M394.557 171.411C394.429 171.409 394.302 171.384 394.184 171.337C394.06 171.289 393.947 171.217 393.851 171.126L391.891 169.234L389.93 167.341C389.736 167.154 389.624 166.898 389.618 166.628C389.617 166.359 389.719 166.099 389.903 165.903C390.092 165.707 390.35 165.595 390.622 165.59C390.756 165.587 390.889 165.611 391.014 165.66C391.138 165.709 391.252 165.782 391.348 165.875L393.302 167.768L395.262 169.661C395.451 169.837 395.564 170.081 395.574 170.339C395.579 170.543 395.522 170.744 395.41 170.914C395.299 171.085 395.139 171.218 394.95 171.296C394.829 171.362 394.695 171.401 394.557 171.411V171.411Z" fill="#5B9900"/>
<path d="M374.835 265.894L368.377 266.07L361.912 266.239C363.866 266.334 365.914 266.355 368.072 266.301C370.229 266.246 372.475 266.117 374.835 265.894Z" fill="#83C00E"/>
<path d="M363.038 202.883C365.087 203.38 367.203 203.794 369.388 204.124C371.572 204.454 373.816 204.694 376.118 204.843C376.118 204.843 374.761 204.524 372.441 204.117C370.12 203.71 366.857 203.222 363.038 202.883Z" fill="#83C00E"/>
<path d="M517.729 363.347L514.032 363.442L510.328 363.544C510.317 363.545 510.306 363.543 510.296 363.54C510.286 363.537 510.276 363.532 510.268 363.525C510.26 363.518 510.253 363.509 510.248 363.5C510.243 363.49 510.24 363.48 510.239 363.469C510.237 363.449 510.242 363.428 510.253 363.411C510.264 363.393 510.281 363.38 510.3 363.374C513.036 362.446 515.544 360.95 517.661 358.985C519.512 357.282 520.84 355.086 521.487 352.655C522.02 350.319 521.891 347.88 521.114 345.613C520.705 344.344 520.137 343.132 519.425 342.004C517.363 338.91 514.299 336.62 510.748 335.519C506.79 334.265 502.559 334.148 498.537 335.179C502.376 334.3 505.804 332.148 508.265 329.074C510.471 326.393 511.72 323.054 511.814 319.584C511.909 316.114 510.844 312.712 508.788 309.915C506.913 307.237 504.213 305.245 501.101 304.244C497.988 303.244 494.634 303.289 491.549 304.373C488.242 305.489 485.343 307.568 483.225 310.343C484.979 306.886 485.63 302.974 485.091 299.135C484.58 295.412 482.859 291.96 480.193 289.312C477.44 286.658 473.9 284.97 470.105 284.502C466.449 283.969 462.722 284.738 459.576 286.673C455.831 289.075 453.334 293.281 452.575 298.064C451.776 303.296 453.009 308.636 456.021 312.989C456.049 313.019 456.065 313.059 456.065 313.101C456.065 313.142 456.049 313.182 456.021 313.212C455.989 313.238 455.95 313.253 455.909 313.253C455.868 313.253 455.829 313.238 455.797 313.212C454.231 312.067 452.453 311.243 450.567 310.787C448.681 310.332 446.723 310.255 444.807 310.56C442.969 310.758 441.199 311.372 439.633 312.354C438.066 313.336 436.743 314.661 435.763 316.229C434.783 317.796 434.172 319.566 433.976 321.405C433.78 323.243 434.004 325.102 434.631 326.842C435.219 328.818 436.218 330.649 437.561 332.214C438.904 333.779 440.561 335.044 442.426 335.926V335.926C440.066 335.433 437.633 335.41 435.265 335.86C432.897 336.309 430.641 337.221 428.627 338.544C424.909 341 422.351 344.697 421.843 348.612C421.464 352.215 422.46 355.827 424.631 358.727C426.957 361.999 430.306 364.405 434.149 365.565L430.343 365.667L426.537 365.769C424.043 365.835 421.586 366.391 419.307 367.407C417.028 368.423 414.972 369.877 413.255 371.688C411.538 373.499 410.195 375.63 409.302 377.959C408.409 380.289 407.984 382.772 408.051 385.266V385.266C408.116 387.761 408.673 390.217 409.689 392.496C410.704 394.775 412.159 396.832 413.97 398.549C415.78 400.265 417.911 401.609 420.241 402.502C422.571 403.395 425.054 403.82 427.548 403.753L443.212 403.332L458.877 402.919L460.18 462.483L461.482 522.047H490.145L488.788 462.103L487.431 402.159L503.096 401.745L518.76 401.324C523.796 401.191 528.573 399.063 532.04 395.408C535.507 391.752 537.38 386.87 537.247 381.834V381.834C537.181 379.339 536.624 376.883 535.609 374.604C534.593 372.325 533.138 370.268 531.328 368.551C529.517 366.835 527.386 365.491 525.056 364.598C522.726 363.705 520.244 363.28 517.749 363.347H517.729Z" fill="#5B9900"/>
<path d="M487.411 402.159H479.779H472.147L479.976 412.688L487.804 423.21L487.608 412.688L487.411 402.159Z" fill="#1F5D00"/>
<path d="M448.986 336.787H442.419C442.251 336.788 442.087 336.738 441.948 336.646C441.808 336.553 441.699 336.421 441.635 336.266C441.57 336.112 441.553 335.941 441.585 335.777C441.617 335.613 441.697 335.461 441.815 335.342C441.894 335.263 441.988 335.199 442.092 335.156C442.195 335.113 442.306 335.091 442.419 335.091H448.986C449.097 335.091 449.207 335.113 449.31 335.156C449.412 335.199 449.505 335.263 449.583 335.342C449.662 335.421 449.726 335.514 449.769 335.617C449.812 335.72 449.835 335.831 449.835 335.943C449.835 336.055 449.812 336.165 449.769 336.268C449.726 336.371 449.662 336.465 449.583 336.543C449.423 336.699 449.209 336.787 448.986 336.787Z" fill="#1F5D00"/>
<path d="M511.006 364.602H490.531C490.419 364.602 490.308 364.58 490.204 364.537C490.101 364.494 490.007 364.431 489.928 364.351C489.81 364.232 489.73 364.081 489.698 363.916C489.665 363.752 489.683 363.582 489.747 363.427C489.812 363.273 489.921 363.141 490.06 363.048C490.2 362.955 490.364 362.906 490.531 362.906H511.006C511.231 362.906 511.446 362.995 511.605 363.154C511.765 363.314 511.854 363.529 511.854 363.754C511.854 363.865 511.831 363.975 511.788 364.078C511.745 364.18 511.682 364.273 511.603 364.351C511.525 364.431 511.432 364.494 511.33 364.537C511.227 364.581 511.117 364.603 511.006 364.602V364.602Z" fill="#1F5D00"/>
<path d="M481.108 314.176C481.023 314.176 480.938 314.162 480.857 314.135C480.773 314.109 480.693 314.07 480.62 314.02C480.528 313.956 480.451 313.875 480.391 313.78C480.332 313.686 480.292 313.58 480.274 313.47C480.253 313.361 480.255 313.249 480.28 313.14C480.304 313.032 480.351 312.929 480.416 312.839L481.468 311.354L482.513 309.868C482.645 309.687 482.841 309.563 483.062 309.522C483.283 309.484 483.51 309.536 483.693 309.665C483.785 309.728 483.863 309.809 483.922 309.904C483.982 309.998 484.021 310.104 484.039 310.214C484.059 310.324 484.057 310.438 484.032 310.547C484.008 310.657 483.962 310.76 483.897 310.852L482.852 312.317L481.8 313.803C481.721 313.914 481.616 314.004 481.495 314.067C481.377 314.134 481.244 314.171 481.108 314.176V314.176Z" fill="#1F5D00"/>
<path d="M334.674 480.305C334.574 480.304 334.475 480.286 334.382 480.251C334.282 480.216 334.19 480.163 334.11 480.095L316.736 464.756L299.362 449.417C299.193 449.268 299.09 449.057 299.076 448.832C299.062 448.607 299.138 448.385 299.288 448.216C299.437 448.047 299.647 447.944 299.873 447.93C300.098 447.916 300.319 447.992 300.488 448.141L317.863 463.48L335.237 478.819C335.405 478.969 335.507 479.179 335.521 479.404C335.535 479.629 335.46 479.85 335.311 480.02C335.23 480.11 335.131 480.181 335.02 480.23C334.91 480.278 334.793 480.304 334.674 480.305V480.305Z" fill="#1F5D00"/>
<path d="M89.5574 164.023L97.6576 176.805L105.751 189.579C106.262 186.73 106.794 184.068 107.345 181.594C107.895 179.118 108.451 176.845 108.987 174.776C109.774 171.744 110.541 169.118 111.144 167.131C111.748 165.143 112.203 163.786 112.366 163.291C113.152 160.957 113.928 158.797 114.692 156.812C115.452 154.831 116.178 153.033 116.857 151.432L104.747 152.423L92.6374 153.413C92.1218 155.186 91.6107 156.954 91.1041 158.718C90.5976 160.482 90.082 162.25 89.5574 164.023Z" fill="#5B9900"/>
<path d="M435.797 388.977C435.309 395.951 434.818 402.923 434.325 409.893C433.832 416.862 433.341 423.832 432.853 430.801C432.712 432.819 432.987 434.843 433.661 436.749C434.336 438.656 435.396 440.403 436.775 441.881C438.154 443.36 439.823 444.54 441.677 445.346C443.532 446.152 445.532 446.568 447.554 446.568H494.364C486.784 436.437 479.204 426.313 471.624 416.195L448.884 385.857C448.118 384.563 446.958 383.548 445.573 382.961C444.189 382.373 442.653 382.245 441.19 382.594C439.728 382.942 438.415 383.75 437.444 384.899C436.474 386.048 435.897 387.477 435.797 388.977Z" fill="#DEB8FC"/>
<path d="M336.376 76.3593C336.378 86.6351 332.816 96.5935 326.298 104.538C319.78 112.482 310.709 117.92 300.631 119.926C290.553 121.932 280.091 120.381 271.028 115.539C261.965 110.696 254.862 102.86 250.928 93.3668C246.995 83.8736 246.475 73.3102 249.457 63.4765C252.438 53.6428 258.738 45.1473 267.281 39.4375C275.825 33.7277 286.084 31.1569 296.31 32.1631C306.537 33.1693 316.098 37.6903 323.365 44.9557C327.496 49.0746 330.772 53.9694 333.005 59.3587C335.238 64.7481 336.384 70.5257 336.376 76.3593Z" fill="#F98638"/>
<path d="M442.174 420.496H416.714H391.246V415.517V410.537H416.714H442.174V415.517V420.496Z" fill="#F98638"/>
<path d="M391.246 420.496L387.97 433.515L384.693 446.54H410.228H435.764L438.972 433.515L442.175 420.496H416.714H391.246Z" fill="#F98638"/>
<path d="M442.174 420.496L445.309 433.515L448.443 446.54H442.1H435.763L438.972 433.515L442.174 420.496Z" fill="#1F5D00"/>
<path d="M480.742 414.492L485.593 404.995L490.443 395.497C490.808 394.948 491.053 394.328 491.162 393.678C491.271 393.028 491.241 392.363 491.074 391.725C490.959 391.152 490.714 390.613 490.357 390.15C490 389.687 489.542 389.312 489.018 389.055C488.493 388.797 487.916 388.663 487.332 388.664C486.747 388.665 486.171 388.8 485.647 389.059C485.078 389.305 484.563 389.661 484.132 390.107C483.702 390.553 483.363 391.08 483.137 391.657L474.426 408.02L465.749 424.39C464.662 426.429 464.39 428.805 464.988 431.037C465.586 433.269 467.01 435.19 468.972 436.412L471.217 437.816L473.47 439.22L472.052 442.877L470.641 446.534H500.816L510.131 427.891L519.425 409.241C519.88 408.173 520.037 407 519.88 405.849C519.827 405.275 519.637 404.721 519.327 404.235C519.016 403.749 518.594 403.344 518.095 403.054C517.658 402.824 517.172 402.703 516.677 402.703C516.183 402.703 515.697 402.824 515.26 403.054C514.389 403.509 513.679 404.219 513.224 405.09L507.797 415.327L502.37 425.564C502.104 426.206 501.707 426.785 501.205 427.265C500.703 427.746 500.106 428.116 499.453 428.352C498.879 428.577 498.262 428.672 497.648 428.63C497.033 428.588 496.435 428.41 495.898 428.108C495.05 427.573 494.429 426.745 494.154 425.781C493.839 424.713 493.884 423.571 494.283 422.531L499.032 411.874L503.781 401.223C504.117 400.679 504.333 400.07 504.416 399.436C504.499 398.802 504.447 398.158 504.263 397.546C504.115 397.003 503.848 396.5 503.482 396.072C503.116 395.645 502.66 395.305 502.146 395.076C501.671 394.904 501.165 394.829 500.66 394.857C500.156 394.885 499.662 395.015 499.208 395.239C498.162 395.73 497.342 396.601 496.915 397.675L491.658 407.851L486.386 418.149C485.879 419.12 485.089 419.915 484.121 420.428C483.764 420.636 483.368 420.767 482.958 420.814C482.549 420.861 482.133 420.822 481.739 420.7C481.298 420.472 480.916 420.144 480.624 419.742C480.332 419.341 480.138 418.876 480.057 418.386C479.778 417.048 480.023 415.655 480.742 414.492V414.492Z" fill="#1F5D00"/>
<path d="M463.592 421.344C463.455 421.344 463.32 421.311 463.198 421.249C463.072 421.185 462.964 421.089 462.886 420.971L453.633 407.247L444.379 393.523C444.317 393.431 444.274 393.328 444.252 393.22C444.23 393.112 444.229 393 444.25 392.892C444.27 392.782 444.312 392.677 444.374 392.583C444.436 392.49 444.516 392.41 444.61 392.349C444.797 392.224 445.026 392.177 445.248 392.22C445.356 392.241 445.46 392.284 445.552 392.346C445.644 392.407 445.723 392.487 445.784 392.58L455.037 406.297L464.291 420.021C464.355 420.113 464.4 420.217 464.423 420.326C464.447 420.436 464.448 420.549 464.426 420.659C464.377 420.878 464.249 421.071 464.067 421.202C463.995 421.247 463.917 421.284 463.836 421.31C463.756 421.332 463.674 421.343 463.592 421.344Z" fill="#1F5D00"/>
<path d="M423.03 446.54H398.139H373.248V439.22V431.907H398.139H423.03V439.22V446.54Z" fill="#F1FF7C"/>
<path d="M500.375 522.048H430.234H360.094L356.322 484.294L352.55 446.54H430.886H509.222L504.798 484.294L500.375 522.048Z" fill="#FFAA9F"/>
<path d="M65.5891 304.617C65.6371 309.818 66.1662 315.002 67.1698 320.105C68.4895 326.808 70.7172 333.299 73.7911 339.399C77.9294 347.54 83.7027 354.629 90.3104 360.898C96.9181 367.167 104.36 372.635 111.83 377.628C119.177 382.533 126.958 386.786 134.678 391.114C142.399 395.443 150.065 399.859 157.174 405.076C164.139 410.192 170.665 415.878 176.686 422.077C184.298 429.942 191.151 438.507 197.153 447.66C197.716 446.371 198.286 445.014 198.842 443.589C199.399 442.165 199.941 440.652 200.464 439.078C200.986 437.504 201.434 436.005 201.821 434.539C202.207 433.074 202.58 431.663 202.892 430.306C196.714 421.424 189.476 413.327 181.339 406.195C173.211 399.06 164.537 392.57 155.397 386.786C145.445 380.402 134.909 374.853 124.835 368.679C114.76 362.506 105.161 355.708 97.0198 346.821C93.6839 343.181 90.8 339.152 88.4312 334.82C86.0936 330.493 84.1828 325.949 82.7258 321.252C82.4951 320.573 81.0636 316.13 80.0121 311.863C78.9606 307.595 78.2075 303.484 79.388 303.376L69.3407 304.291L65.5891 304.617Z" fill="#83C00E"/>
<path d="M65.8739 310.75L74.8357 317.534L83.8043 324.318C83.3837 323.142 82.9744 321.93 82.5764 320.682C82.1784 319.434 81.7871 318.145 81.4027 316.815C80.8532 314.909 80.3715 313.05 79.9373 311.238C79.5032 309.427 79.1368 307.677 78.8044 305.981L72.3391 308.348L65.8739 310.75Z" fill="#5B9900"/>
<path d="M508.014 457.89H353.594C353.371 457.889 353.157 457.802 352.997 457.646C352.881 457.527 352.802 457.376 352.77 457.212C352.738 457.048 352.755 456.878 352.818 456.724C352.882 456.569 352.989 456.437 353.127 456.343C353.265 456.249 353.427 456.197 353.594 456.194H508.014C508.182 456.194 508.347 456.244 508.487 456.337C508.627 456.431 508.736 456.564 508.8 456.72C508.864 456.875 508.88 457.047 508.847 457.212C508.813 457.377 508.731 457.528 508.611 457.646C508.451 457.802 508.237 457.889 508.014 457.89V457.89Z" fill="#1F5D00"/>
<path d="M211.922 358.523C209.745 352.345 208.232 345.952 207.411 339.453C206.312 330.159 206.922 319.644 213.15 313.077C214.154 311.978 215.278 310.995 216.501 310.146C218.273 308.896 220.35 308.151 222.512 307.989C225.579 307.799 228.692 308.945 231.521 311.13C234.648 313.674 237.156 316.897 238.855 320.553C236.277 310.16 236.67 300.743 238.97 293.491C241.27 286.239 245.49 281.158 250.564 279.434C252.214 278.892 253.954 278.675 255.686 278.797C258.278 278.939 261.717 279.726 265.903 282.04C266.625 277.655 267.911 273.381 269.729 269.326C272.633 263.03 277.531 256.85 285.489 257.325C289.121 257.547 292.54 259.117 295.075 261.728C297.631 264.351 299.199 267.78 299.512 271.429C299.872 275.105 299.508 278.816 298.44 282.352C297.079 286.653 294.495 290.464 291.004 293.321C294.263 295.506 296.999 298.383 299.016 301.747C300.015 303.438 300.694 305.299 301.018 307.236C301.981 313.341 299.267 320.254 293.501 326.408C287.734 332.561 278.922 337.94 267.687 340.926C270.859 342.393 273.839 344.243 276.561 346.434C280.631 349.745 284.532 354.426 284.573 360.199C284.571 362.111 284.177 364.002 283.413 365.755C282.925 366.881 282.328 367.956 281.629 368.964C276.201 377.024 263.101 380.016 250.815 380.931C242.193 381.503 233.537 381.344 224.941 380.456C224.276 379.045 223.564 377.603 222.804 376.128C222.044 374.656 221.237 373.15 220.375 371.63C218.984 369.168 217.566 366.881 216.149 364.663C214.731 362.445 213.32 360.43 211.922 358.523Z" fill="#83C00E"/>
<path d="M383.092 199.592C382.958 199.593 382.826 199.566 382.702 199.515C382.579 199.464 382.467 199.389 382.372 199.294C382.182 199.103 382.075 198.844 382.074 198.575V192.51C382.074 192.24 382.181 191.981 382.372 191.79C382.563 191.599 382.822 191.492 383.092 191.492C383.361 191.493 383.62 191.6 383.811 191.791C383.906 191.885 383.981 191.997 384.032 192.12C384.083 192.244 384.109 192.376 384.109 192.51V198.575C384.109 198.845 384.002 199.104 383.811 199.294C383.62 199.485 383.361 199.592 383.092 199.592V199.592Z" fill="#5B9900"/>
<path d="M454.325 231.959C454.191 231.96 454.059 231.933 453.935 231.882C453.812 231.831 453.7 231.756 453.606 231.661C453.51 231.567 453.434 231.455 453.383 231.332C453.332 231.208 453.306 231.076 453.307 230.942V224.877C453.307 224.607 453.414 224.348 453.605 224.157C453.796 223.966 454.055 223.859 454.325 223.859C454.459 223.858 454.591 223.883 454.715 223.935C454.839 223.986 454.95 224.062 455.044 224.158C455.139 224.252 455.214 224.364 455.265 224.487C455.316 224.611 455.343 224.743 455.342 224.877V230.942C455.342 231.212 455.235 231.47 455.044 231.661C454.854 231.852 454.595 231.959 454.325 231.959V231.959Z" fill="#5B9900"/>
<path d="M398.573 265.045C398.44 265.046 398.307 265.019 398.184 264.968C398.06 264.917 397.948 264.842 397.854 264.747C397.758 264.653 397.683 264.541 397.631 264.418C397.58 264.294 397.554 264.162 397.556 264.028V257.963C397.556 257.693 397.663 257.434 397.854 257.243C398.044 257.052 398.303 256.945 398.573 256.945C398.707 256.944 398.84 256.97 398.963 257.021C399.087 257.072 399.199 257.148 399.292 257.244C399.387 257.338 399.462 257.45 399.514 257.573C399.565 257.697 399.591 257.829 399.591 257.963V264.028C399.591 264.298 399.484 264.556 399.293 264.747C399.102 264.938 398.843 265.045 398.573 265.045V265.045Z" fill="#5B9900"/>
<path d="M85.5412 255.928C83.7748 252.365 81.0555 249.361 77.6852 247.251C74.241 245.082 70.2389 243.966 66.1695 244.038C62.1002 244.11 58.1403 245.368 54.7753 247.658C51.2736 250.027 48.5443 253.372 46.9261 257.278C45.1493 256.859 43.3219 256.694 41.4988 256.789C38.1924 256.887 35.0013 258.027 32.381 260.046C29.2246 262.627 27.16 266.305 26.6009 270.344C25.9502 274.377 26.7868 278.509 28.955 281.972C30.9134 284.934 33.7937 287.169 37.1502 288.329C38.9414 288.996 40.8197 289.4 42.7267 289.529C42.7353 291.763 43.055 293.985 43.6765 296.13C44.7418 300.066 46.9831 303.583 50.101 306.211C53.6419 309.084 58.0449 310.685 62.6041 310.757C67.4677 310.863 72.2504 309.502 76.3284 306.849C80.0699 308.672 84.293 309.261 88.3905 308.532C92.2799 307.855 95.8207 305.868 98.4242 302.901C101.001 299.82 102.407 295.927 102.393 291.911C102.439 289.849 102.183 287.792 101.633 285.805C104.436 283.008 106.236 279.364 106.755 275.439C107.273 271.676 106.543 267.847 104.677 264.539C102.81 261.23 99.9112 258.625 96.4229 257.122C93.0077 255.603 89.2044 255.186 85.5412 255.928V255.928Z" fill="#F1FF7C"/>
<path d="M92.1623 278.858C91.7485 283.396 88.7703 287.27 84.2114 289.862C79.6525 292.453 73.635 293.756 67.1358 293.165C60.6366 292.575 54.9244 290.201 50.9286 286.836C46.9328 283.471 44.6804 279.116 45.0943 274.577C45.5081 270.038 48.4863 266.165 53.0452 263.573C57.6041 260.982 63.6284 259.679 70.1276 260.269C76.6268 260.86 82.339 263.234 86.328 266.599C90.3171 269.964 92.5762 274.326 92.1623 278.858Z" fill="#F98638"/>
<path d="M100.575 480.719C103.016 480.47 105.381 479.729 107.529 478.543C109.676 477.356 111.561 475.747 113.071 473.812C114.484 472.099 115.536 470.118 116.164 467.987C116.792 465.857 116.984 463.622 116.727 461.416C116.471 459.21 115.771 457.079 114.671 455.15C113.57 453.221 112.092 451.534 110.323 450.19C106.857 447.459 102.52 446.071 98.112 446.283C100.803 445.372 103.274 443.911 105.37 441.994C107.465 440.076 109.138 437.743 110.283 435.143C111.395 432.809 112.004 430.267 112.069 427.682C112.134 425.097 111.655 422.527 110.662 420.14C109.669 417.752 108.184 415.601 106.305 413.825C104.425 412.049 102.193 410.688 99.7538 409.832C94.8575 407.987 89.4423 408.08 84.6117 410.089C85.8235 408.507 86.8246 406.774 87.5899 404.934C89.1666 401.239 89.6601 397.173 89.0126 393.209C88.3651 389.245 86.6035 385.547 83.9333 382.546C82.4023 380.743 80.6148 379.175 78.6281 377.892C74.6009 376.038 70.1009 375.467 65.7383 376.257C61.1519 377.037 57.0018 379.448 54.0523 383.046C51.1028 386.643 49.5526 391.186 49.6871 395.836C49.7463 401.1 51.716 406.163 55.2297 410.083C52.5912 409.162 49.7916 408.794 47.0048 409C44.2179 409.207 41.5033 409.984 39.0293 411.283C34.3618 413.733 30.8205 417.891 29.6265 422.816C29.1105 425.172 29.074 427.607 29.5193 429.976C29.9645 432.346 30.8823 434.601 32.2181 436.609C35.0269 441.016 39.4237 444.174 44.4973 445.428C39.9287 444.94 35.3208 445.873 31.3022 448.101C27.617 450.1 24.7645 453.347 23.2563 457.259C22.3066 459.899 21.9883 462.724 22.3269 465.509C22.6864 468.644 23.9551 471.606 25.9767 474.03C28.0742 476.506 30.857 478.307 33.9752 479.206C35.6412 479.71 37.3701 479.977 39.1107 480C34.7492 481.017 30.8602 483.48 28.0755 486.988C25.2907 490.496 23.774 494.842 23.7719 499.321V499.321C23.7755 504.582 25.8675 509.626 29.5883 513.346C33.3091 517.065 38.3543 519.156 43.6154 519.157H93.587C98.8481 519.156 103.893 517.065 107.614 513.346C111.335 509.626 113.427 504.582 113.431 499.321V499.321C113.427 495.28 112.191 491.337 109.888 488.017C107.585 484.696 104.324 482.158 100.541 480.739L100.575 480.719Z" fill="#7DBA07"/>
<path d="M76.0911 343.524C70.6697 341.233 64.7349 340.432 58.9002 341.204C53.5234 341.895 48.5082 344.287 44.5857 348.029C42.1359 350.443 40.23 353.352 38.9956 356.563C38.1569 358.72 37.5806 360.971 37.2793 363.266C30.9189 362.247 24.4006 363.028 18.4602 365.518C12.7564 367.875 7.91046 371.921 4.57312 377.112C2.18702 380.909 0.693222 385.198 0.204163 389.656C-0.298876 394.166 0.130629 398.731 1.46601 403.068C3.33002 409.102 6.9213 414.457 11.7959 418.472C16.6706 422.487 22.6149 424.986 28.8941 425.659C30.532 425.835 32.1811 425.88 33.8262 425.795C35.6 425.698 37.3618 425.444 39.0906 425.035C46.5531 423.264 53.1744 418.603 58.0047 412.064C63.1218 404.988 65.9958 396.539 66.2542 387.81C68.223 387.216 70.1187 386.401 71.9053 385.382C74.49 383.918 76.7885 381.999 78.6894 379.717C83.228 374.256 84.3948 367.919 84.3881 362.797C84.3887 359.533 83.9157 356.286 82.9837 353.157L79.5374 348.361L76.0911 343.524Z" fill="#83C00E"/>
<path d="M261.745 429.241L234.018 454.783L206.305 480.352C204.721 481.818 203.351 483.499 202.234 485.346C201.12 487.19 200.294 489.194 199.785 491.288C199.785 491.417 199.724 491.546 199.697 491.675L199.616 492.069C199.09 494.611 198.931 497.215 199.141 499.802C199.35 503.778 200.777 507.592 203.229 510.728C205.681 513.864 209.038 516.17 212.845 517.333C214.758 517.956 216.744 518.323 218.754 518.425H331.594V471.153H301.669C304.102 467.189 306.009 462.924 307.34 458.467C308.987 452.912 309.732 447.128 309.545 441.337C309.421 437.258 308.866 433.204 307.89 429.241H261.758H261.745Z" fill="#F1FF7C"/>
<path d="M140.112 477.605V501.39C140.114 502.212 140.319 503.021 140.71 503.744C141.1 504.468 141.664 505.083 142.351 505.535L150.709 511.03L159.067 516.525C159.251 516.644 159.39 516.819 159.466 517.025C159.541 517.23 159.548 517.454 159.485 517.663C159.423 517.872 159.294 518.056 159.118 518.186C158.943 518.316 158.729 518.385 158.511 518.384H102.026C100.996 518.382 100.008 517.972 99.2797 517.244C98.5511 516.515 98.141 515.527 98.1392 514.497V477.605H140.112Z" fill="#F98638"/>
<path d="M160.526 477.605V501.39C160.527 502.212 160.733 503.021 161.123 503.744C161.514 504.468 162.078 505.083 162.765 505.535L171.123 511.03L179.481 516.525C179.664 516.644 179.804 516.819 179.879 517.025C179.955 517.23 179.962 517.454 179.899 517.663C179.836 517.872 179.707 518.056 179.532 518.186C179.356 518.316 179.143 518.385 178.924 518.384H125.398C124.367 518.382 123.38 517.972 122.651 517.244C121.922 516.515 121.512 515.527 121.51 514.497V477.605H160.526Z" fill="#F98638"/>
<path d="M160.533 365.063V477.605H121.51V365.063C121.51 365.063 131.266 364.935 141.022 364.873C150.777 364.812 160.533 364.812 160.533 365.063Z" fill="#5B9900"/>
<path d="M302.537 321.136C302.537 325.035 301.185 328.813 298.712 331.826C296.239 334.84 292.797 336.903 288.974 337.663C285.15 338.424 281.181 337.836 277.743 335.998C274.304 334.161 271.61 331.188 270.117 327.586C268.625 323.985 268.428 319.977 269.559 316.246C270.69 312.515 273.08 309.292 276.321 307.126C279.562 304.959 283.454 303.983 287.334 304.365C291.213 304.746 294.841 306.461 297.598 309.217C299.166 310.781 300.409 312.639 301.256 314.684C302.104 316.729 302.539 318.922 302.537 321.136Z" fill="#AD4D4D"/>
<path d="M326.756 336.353C326.756 341.085 325.115 345.671 322.113 349.329C319.111 352.987 314.933 355.49 310.292 356.413C305.651 357.336 300.833 356.621 296.66 354.391C292.486 352.16 289.216 348.551 287.405 344.179C285.594 339.807 285.355 334.942 286.729 330.414C288.103 325.886 291.005 321.974 294.939 319.345C298.874 316.716 303.599 315.533 308.308 315.997C313.017 316.461 317.42 318.543 320.766 321.889C322.67 323.786 324.179 326.04 325.208 328.522C326.236 331.005 326.762 333.666 326.756 336.353Z" fill="#AD4D4D"/>
<path d="M341.695 359.317C341.695 363.731 340.164 368.008 337.364 371.42C334.563 374.831 330.667 377.166 326.337 378.027C322.008 378.887 317.515 378.22 313.623 376.138C309.731 374.057 306.68 370.691 304.992 366.613C303.304 362.535 303.082 357.997 304.364 353.774C305.646 349.55 308.353 345.902 312.024 343.451C315.694 341 320.101 339.897 324.494 340.331C328.886 340.765 332.992 342.709 336.112 345.83C337.884 347.601 339.289 349.703 340.247 352.018C341.205 354.332 341.697 356.813 341.695 359.317Z" fill="#AD4D4D"/>
<path d="M259.574 352.581C259.574 352.581 254.031 353.313 248.075 360.186C242.118 367.058 235.761 380.07 234.113 404.621L232.173 431.371L230.232 458.128L245.992 443.684L261.745 429.241H307.876L308.44 432.328L309.003 435.421L295.244 450.767L281.507 466.113L295.258 479.531L309.016 492.944L324.443 478.236L339.85 463.535C344.051 459.544 347.364 454.713 349.572 449.356C351.778 444.018 352.779 438.259 352.502 432.491C352.502 432.307 352.502 432.124 352.502 431.941C352.502 431.758 352.502 431.575 352.462 431.385C352.345 429.846 352.144 428.315 351.858 426.799C351.586 425.354 351.254 424.004 350.888 422.728L346.091 402.912L341.302 383.096C339.58 376.443 336.522 370.211 332.313 364.778C325.318 355.756 313.317 347.038 293.304 348.212L276.452 350.389L259.574 352.581Z" fill="#1F5D00"/>
<path d="M251.575 356.732L268.698 369.88L275.089 374.778L273.142 368.455C271.9 364.385 270.109 358.591 267.932 351.495L263.753 352.038L259.574 352.574C259.404 352.574 259.201 352.642 258.983 352.696C258.766 352.75 258.515 352.818 258.251 352.899L257.674 353.096L257.158 353.306C256.656 353.51 256.222 353.714 255.883 353.883C255.544 354.053 255.293 354.182 255.205 354.243L254.621 354.575C254.357 354.731 254.031 354.935 253.665 355.172C253.298 355.41 253.054 355.586 252.708 355.85C252.362 356.115 251.962 356.414 251.575 356.732Z" fill="#DEB8FC"/>
<path d="M275.096 374.771L280.828 361.936L286.561 349.1C287.85 348.849 289.064 348.666 290.184 348.524C291.303 348.381 292.348 348.293 293.277 348.232C294.946 348.123 296.486 348.103 297.877 348.123C299.267 348.144 300.489 348.232 301.533 348.32C303.026 348.449 304.322 348.632 305.312 348.788C306.303 348.944 306.988 349.087 307.266 349.141C308.256 349.351 309.179 349.575 310.02 349.819C310.862 350.064 311.621 350.281 312.293 350.498L293.718 362.628L275.096 374.771Z" fill="#DEB8FC"/>
<path d="M98.1392 365.063V477.605H139.956L139.895 421.331L139.834 365.023H98.1392V365.063Z" fill="#5B9900"/>
<path d="M275.096 374.771C275.792 378.688 276.489 382.6 277.185 386.508L279.281 398.244C279.325 398.485 279.421 398.713 279.563 398.912C279.705 399.112 279.889 399.277 280.102 399.397C280.316 399.517 280.553 399.588 280.796 399.606C281.04 399.624 281.285 399.587 281.513 399.5L284.824 398.217L288.128 396.935C288.363 396.844 288.574 396.7 288.745 396.516C288.917 396.331 289.044 396.109 289.117 395.868C289.19 395.627 289.208 395.373 289.168 395.124C289.128 394.875 289.032 394.638 288.888 394.432L281.988 384.602L275.096 374.771Z" fill="#DEB8FC"/>
<path d="M275.096 374.771L274.526 386.488L273.956 398.204C273.945 398.435 273.877 398.66 273.759 398.858C273.641 399.057 273.475 399.224 273.277 399.343C273.084 399.466 272.865 399.54 272.637 399.56C272.409 399.58 272.18 399.546 271.968 399.459L268.386 397.973L264.797 396.494C264.61 396.416 264.441 396.298 264.303 396.149C264.165 396 264.06 395.823 263.996 395.631C263.932 395.438 263.909 395.234 263.931 395.031C263.952 394.829 264.016 394.634 264.119 394.459L269.607 384.608L275.096 374.771Z" fill="#DEB8FC"/>
<path d="M293.474 337.418C293.473 341.969 291.893 346.379 289.006 349.897C286.118 353.415 282.099 355.822 277.636 356.709C273.172 357.597 268.538 356.909 264.525 354.763C260.511 352.618 257.365 349.147 255.624 344.942C253.882 340.737 253.652 336.059 254.973 331.704C256.293 327.348 259.083 323.586 262.867 321.056C266.651 318.527 271.194 317.388 275.724 317.833C280.253 318.278 284.488 320.28 287.707 323.497C289.536 325.325 290.987 327.495 291.976 329.884C292.966 332.273 293.474 334.833 293.474 337.418Z" fill="#FFAA9F"/>
<path d="M281.507 466.112C282.097 465.522 281.507 466.112 280.625 467.008L277.965 469.708C277.965 469.708 277.287 470.346 276.188 471.37C275.089 472.395 273.474 473.806 271.541 475.339C267.593 478.5 263.597 480.447 259.452 482.591C255.307 484.735 251.012 487.062 246.487 490.997C245.748 491.641 244.791 492.503 243.706 493.602C242.45 494.87 241.259 496.202 240.137 497.591C239.267 498.577 238.609 499.732 238.204 500.983C238.043 501.385 237.977 501.82 238.013 502.252C238.048 502.684 238.183 503.102 238.407 503.473C238.512 503.603 238.633 503.719 238.767 503.819C238.959 503.95 239.169 504.052 239.391 504.124C238.807 504.867 238.5 505.791 238.523 506.736C238.532 507.582 238.873 508.391 239.472 508.988C240.031 509.496 240.753 509.787 241.508 509.809C241.913 509.826 242.319 509.789 242.715 509.7C243.009 510.653 243.592 511.49 244.384 512.095C245.68 513.045 247.891 513.513 251.555 511.559C253.805 510.348 256.133 509.285 258.522 508.377C262.674 506.77 268.183 505.148 273.569 505.053C274.232 505.104 274.873 505.315 275.435 505.671C276.168 506.207 276.507 507.211 274.926 509.063C274.126 510.006 273.312 510.942 272.518 511.892C271.724 512.841 270.923 513.798 270.157 514.775L269.675 515.392L269.187 516.01C268.431 516.847 268.013 517.935 268.013 519.062C268.001 519.499 268.088 519.932 268.266 520.33C268.445 520.728 268.711 521.081 269.044 521.362C269.298 521.545 269.587 521.672 269.892 521.735C270.22 521.806 270.557 521.822 270.89 521.783C271.245 521.747 271.593 521.656 271.921 521.511C272.248 521.36 272.557 521.174 272.843 520.955C275.964 518.825 279.141 516.586 282.375 514.239C285.609 511.892 288.883 509.427 292.198 506.844C295.197 504.51 298.094 502.177 300.896 499.87C303.697 497.564 306.391 495.257 308.989 492.984L295.231 479.572L281.507 466.112Z" fill="#83C00E"/>
<path d="M242.742 510.494C242.597 510.495 242.454 510.458 242.328 510.386C242.196 510.315 242.085 510.21 242.01 510.08C241.89 509.875 241.856 509.632 241.915 509.402C241.942 509.295 241.99 509.194 242.057 509.106C242.123 509.017 242.206 508.943 242.301 508.886C242.607 508.703 246.324 506.492 251.073 503.988C255.822 501.485 261.609 498.676 266.046 497.326C266.157 497.289 266.274 497.276 266.391 497.286C266.508 497.297 266.621 497.331 266.724 497.387C266.822 497.44 266.908 497.512 266.978 497.598C267.048 497.684 267.1 497.783 267.131 497.889C267.166 497.995 267.178 498.107 267.167 498.218C267.157 498.329 267.124 498.436 267.07 498.534C266.964 498.733 266.783 498.881 266.568 498.948C262.226 500.304 256.426 503.099 251.684 505.603C246.942 508.106 243.278 510.297 243.204 510.352C243.136 510.393 243.063 510.425 242.986 510.447C242.908 510.476 242.826 510.492 242.742 510.494V510.494Z" fill="#1F5D00"/>
<path d="M239.398 504.918C239.251 504.916 239.106 504.878 238.978 504.805C238.85 504.733 238.742 504.629 238.665 504.504C238.607 504.408 238.569 504.302 238.553 504.191C238.536 504.08 238.542 503.968 238.57 503.859C238.628 503.64 238.769 503.453 238.964 503.337C239.269 503.161 243.034 500.935 247.593 498.52C252.152 496.105 257.505 493.507 260.985 492.584C261.093 492.556 261.205 492.549 261.316 492.564C261.426 492.579 261.533 492.616 261.629 492.672C261.725 492.728 261.809 492.802 261.877 492.89C261.944 492.978 261.993 493.078 262.022 493.185C262.05 493.293 262.057 493.404 262.042 493.514C262.027 493.624 261.991 493.73 261.935 493.826C261.88 493.923 261.807 494.009 261.718 494.076C261.629 494.144 261.527 494.193 261.419 494.219C258.027 495.115 252.688 497.74 248.149 500.148C243.611 502.557 239.9 504.755 239.825 504.795C239.76 504.837 239.689 504.869 239.615 504.89C239.544 504.909 239.471 504.918 239.398 504.918V504.918Z" fill="#1F5D00"/>
<path d="M240.124 498.412C239.968 498.412 239.816 498.37 239.683 498.289C239.547 498.205 239.437 498.086 239.364 497.943C239.314 497.844 239.284 497.735 239.276 497.624C239.268 497.512 239.282 497.401 239.317 497.295C239.352 497.189 239.408 497.091 239.482 497.007C239.555 496.922 239.644 496.853 239.744 496.804C240.008 496.668 243.299 495.026 247.023 493.249C250.748 491.471 254.906 489.565 256.921 488.914C257.031 488.874 257.149 488.858 257.265 488.866C257.382 488.874 257.496 488.907 257.6 488.961C257.699 489.011 257.788 489.081 257.86 489.166C257.933 489.251 257.987 489.35 258.02 489.457C258.055 489.562 258.069 489.673 258.061 489.784C258.053 489.894 258.023 490.002 257.973 490.101C257.87 490.303 257.692 490.457 257.477 490.528C255.524 491.159 251.324 493.093 247.593 494.87C243.862 496.648 240.605 498.262 240.538 498.323L240.348 498.391C240.274 498.408 240.199 498.415 240.124 498.412V498.412Z" fill="#1F5D00"/>
<path d="M264.092 343.069C264.092 343.41 263.958 343.737 263.719 343.978C263.599 344.098 263.457 344.194 263.3 344.259C263.144 344.324 262.976 344.357 262.806 344.357C262.637 344.357 262.469 344.324 262.312 344.259C262.156 344.194 262.013 344.098 261.894 343.978C261.655 343.736 261.521 343.41 261.521 343.069C261.521 342.729 261.655 342.403 261.894 342.16C262.013 342.04 262.156 341.945 262.312 341.88C262.469 341.815 262.637 341.782 262.806 341.782C262.976 341.782 263.144 341.815 263.3 341.88C263.457 341.945 263.599 342.04 263.719 342.16C263.958 342.402 264.092 342.729 264.092 343.069Z" fill="#1F5D00"/>
<path d="M274.207 341.529C274.208 341.698 274.175 341.865 274.111 342.021C274.047 342.177 273.953 342.319 273.833 342.438C273.714 342.557 273.572 342.652 273.416 342.716C273.26 342.78 273.093 342.813 272.925 342.812C272.582 342.812 272.253 342.678 272.009 342.439C271.858 342.289 271.747 342.104 271.685 341.901C271.623 341.698 271.612 341.483 271.653 341.275C271.695 341.066 271.787 340.871 271.921 340.707C272.056 340.543 272.229 340.415 272.425 340.334C272.621 340.252 272.835 340.221 273.046 340.242C273.257 340.263 273.46 340.336 273.636 340.454C273.813 340.573 273.957 340.733 274.056 340.92C274.156 341.108 274.208 341.317 274.207 341.529V341.529Z" fill="#1F5D00"/>
<path d="M269.16 351.298C268.093 351.283 267.044 351.023 266.093 350.539C265.633 350.317 265.2 350.041 264.804 349.718C264.714 349.648 264.639 349.56 264.583 349.46C264.528 349.36 264.493 349.25 264.481 349.137C264.469 349.023 264.48 348.909 264.514 348.799C264.547 348.69 264.603 348.589 264.676 348.502C264.75 348.414 264.84 348.343 264.942 348.291C265.044 348.24 265.155 348.209 265.269 348.202C265.383 348.195 265.498 348.21 265.605 348.248C265.713 348.286 265.812 348.345 265.896 348.422C266.308 348.75 266.765 349.018 267.253 349.216C268.163 349.618 269.18 349.71 270.148 349.477C271.115 349.244 271.979 348.699 272.606 347.927C272.92 347.553 273.18 347.138 273.379 346.692C273.469 346.485 273.637 346.321 273.847 346.237C273.949 346.194 274.059 346.172 274.17 346.172C274.28 346.172 274.39 346.194 274.492 346.237C274.698 346.326 274.861 346.492 274.946 346.699C274.994 346.806 275.018 346.921 275.018 347.038C275.018 347.155 274.994 347.27 274.946 347.377C274.666 348.01 274.293 348.597 273.841 349.121C273.094 349.996 272.123 350.65 271.032 351.013C270.715 351.117 270.391 351.194 270.062 351.244C269.763 351.284 269.461 351.302 269.16 351.298Z" fill="#AD4D4D"/>
<path d="M182.859 254.279C183.497 259.313 180.234 264.36 174.433 268.451C168.633 272.542 160.309 275.683 150.818 276.87C141.327 278.057 132.501 277.128 125.852 274.618C119.204 272.108 114.794 268.037 114.156 263.003C113.519 257.97 116.782 252.922 122.582 248.831C128.383 244.741 136.707 241.613 146.191 240.406C155.675 239.198 164.508 240.155 171.156 242.665C177.805 245.175 182.221 249.225 182.859 254.279Z" fill="#7DBA07"/>
<path d="M133.349 280.079C127.053 279.835 120.778 280.948 114.95 283.342C105.52 287.297 95.6222 295.906 93.743 314.549L95.9411 339.827L98.1391 365.097H160.553L170.227 334.345L179.881 303.565C179.881 303.565 179.053 297.718 172.819 291.856C166.584 285.995 154.949 280.126 133.349 280.079Z" fill="#DEB8FC"/>
<path d="M168.212 519.232C168.112 519.234 168.013 519.215 167.921 519.178C167.823 519.144 167.733 519.091 167.656 519.022C167.572 518.95 167.503 518.862 167.454 518.763C167.405 518.664 167.377 518.556 167.371 518.445C167.357 518.221 167.43 518 167.575 517.828C167.773 517.585 167.881 517.28 167.88 516.966C167.873 516.85 167.848 516.735 167.805 516.627C167.776 516.543 167.738 516.464 167.69 516.39L154.861 511.356L142.039 506.342C141.745 506.242 141.461 506.115 141.191 505.962C140.925 505.807 140.677 505.623 140.452 505.413C139.762 504.755 139.325 503.877 139.217 502.93C139.062 501.556 139.01 500.173 139.061 498.792V497.523C139.061 497.082 139.061 496.614 139.061 496.119C139.061 495.501 139.061 494.931 139.061 494.45C139.061 493.968 139.061 493.547 139.027 493.235V366.034C139.025 365.865 139.073 365.7 139.166 365.559C139.259 365.419 139.391 365.309 139.547 365.245C139.703 365.18 139.874 365.164 140.039 365.198C140.204 365.233 140.355 365.316 140.472 365.436C140.552 365.514 140.616 365.607 140.659 365.709C140.702 365.812 140.724 365.922 140.723 366.034V493.208C140.723 493.514 140.723 493.921 140.757 494.416C140.791 494.911 140.757 495.481 140.757 496.112C140.757 496.607 140.757 497.082 140.757 497.523V498.785C140.717 500.007 140.753 501.231 140.866 502.448C140.891 503.092 141.157 503.702 141.612 504.158C141.747 504.287 141.897 504.398 142.06 504.49C142.236 504.59 142.422 504.669 142.616 504.728L155.655 509.843L168.701 514.965L168.762 515.026L168.83 515.094C169.284 515.591 169.548 516.232 169.576 516.905C169.601 517.649 169.347 518.375 168.864 518.94C168.78 519.032 168.678 519.106 168.565 519.157C168.454 519.207 168.334 519.233 168.212 519.232V519.232Z" fill="#1F5D00"/>
<path d="M137.731 365.912H137.636C137.525 365.899 137.418 365.864 137.32 365.81C137.222 365.756 137.136 365.683 137.067 365.595C136.998 365.508 136.946 365.407 136.916 365.3C136.886 365.192 136.877 365.079 136.89 364.969L141.34 326.347L145.825 287.718C145.85 287.494 145.962 287.29 146.137 287.148C146.225 287.079 146.326 287.028 146.435 286.998C146.543 286.969 146.656 286.963 146.768 286.979C146.878 286.99 146.985 287.023 147.081 287.077C147.178 287.13 147.263 287.203 147.331 287.291C147.4 287.378 147.451 287.478 147.481 287.585C147.512 287.692 147.52 287.804 147.507 287.915L143.023 326.564L138.572 365.186C138.552 365.393 138.452 365.585 138.294 365.722C138.136 365.852 137.936 365.919 137.731 365.912Z" fill="#AD4D4D"/>
<path d="M255.971 253.533C256.168 253.614 256.365 253.689 256.575 253.757C256.785 253.824 256.989 253.892 257.213 253.947C258.34 254.257 259.504 254.412 260.673 254.408C262.528 254.427 264.332 253.793 265.767 252.617C267.153 251.399 268.082 249.746 268.4 247.929C268.745 246.102 268.542 244.214 267.816 242.502C267.153 240.985 266.085 239.68 264.73 238.73C263.352 237.766 261.749 237.177 260.076 237.02C261.318 236.954 262.542 236.696 263.705 236.254C265.218 235.683 266.554 234.723 267.579 233.472C268.957 231.747 269.715 229.608 269.729 227.4C269.748 225.076 269.036 222.805 267.694 220.908C266.979 220.039 266.148 219.272 265.225 218.629C263.562 217.43 261.555 216.802 259.506 216.838C257.083 216.966 254.796 217.997 253.095 219.728C251.186 221.621 249.95 224.087 249.574 226.749C248.719 224.599 247.156 222.804 245.144 221.661C243.252 220.566 241.026 220.197 238.882 220.623C237.214 220.976 235.683 221.803 234.472 223.004C233.226 224.237 232.361 225.804 231.983 227.516C231.509 229.696 231.852 231.975 232.946 233.92L232.6 233.628L232.254 233.336C231.355 232.574 230.315 231.995 229.193 231.635C228.07 231.274 226.888 231.138 225.713 231.235C224.538 231.331 223.394 231.658 222.345 232.197C221.296 232.735 220.364 233.475 219.602 234.374C218.839 235.273 218.261 236.314 217.9 237.436C217.539 238.558 217.403 239.741 217.5 240.916C217.596 242.091 217.923 243.235 218.462 244.284C219.001 245.332 219.741 246.264 220.64 247.027L224.032 249.937L227.464 252.848L218.876 262.963L210.274 273.098L215.212 277.291L220.144 281.476L228.733 271.361L237.322 261.246L240.748 264.157L244.194 267.067C245.092 267.832 246.131 268.412 247.254 268.774C248.376 269.136 249.559 269.274 250.734 269.178C251.91 269.082 253.055 268.755 254.103 268.216C255.152 267.677 256.084 266.936 256.846 266.036V266.036C258.361 264.25 259.118 261.943 258.956 259.608C258.794 257.272 257.725 255.092 255.978 253.533H255.971Z" fill="#5B9900"/>
<path d="M162.201 310.065L173.504 292.711L184.806 275.357C187.785 270.643 191.967 266.809 196.923 264.252C201.088 262.016 205.822 261.06 210.529 261.504C215.236 261.948 219.707 263.773 223.381 266.748C225.071 268.036 226.598 269.526 227.926 271.185C228.977 272.55 229.886 274.018 230.639 275.568C231.93 278.205 232.689 281.07 232.871 284C233.064 288.297 232.143 292.572 230.199 296.408C228.816 299.31 226.901 301.926 224.554 304.122L179.888 343.524L135.208 382.926C133.864 384.109 132.143 384.775 130.353 384.805C128.563 384.834 126.821 384.226 125.438 383.089L122.86 380.965L120.289 378.835C118.805 377.61 117.847 375.862 117.611 373.952C117.375 372.042 117.879 370.114 119.021 368.564L140.614 339.318C147.806 329.562 155.001 319.811 162.201 310.065Z" fill="#F98638"/>
<path d="M194.426 328.782C194.317 328.782 194.209 328.761 194.107 328.721C194.003 328.679 193.908 328.617 193.829 328.538L186.529 321.265L179.257 313.993C179.097 313.835 179.007 313.62 179.006 313.396C179.008 313.17 179.098 312.953 179.257 312.792C179.335 312.714 179.428 312.652 179.531 312.61C179.633 312.568 179.743 312.547 179.854 312.548C180.079 312.548 180.296 312.635 180.458 312.792L187.73 320.065L194.996 327.337C195.076 327.414 195.14 327.507 195.183 327.61C195.226 327.712 195.248 327.823 195.247 327.934C195.247 328.046 195.225 328.158 195.182 328.261C195.139 328.365 195.076 328.459 194.996 328.538C194.917 328.617 194.822 328.679 194.718 328.721C194.625 328.758 194.526 328.779 194.426 328.782V328.782Z" fill="#1F5D00"/>
<path d="M217.017 311.639C216.908 311.639 216.8 311.618 216.698 311.578C216.594 311.536 216.499 311.474 216.42 311.394L207.811 302.887L199.195 294.393C199.036 294.235 198.946 294.021 198.944 293.796C198.943 293.685 198.964 293.575 199.006 293.471C199.048 293.368 199.11 293.274 199.188 293.195C199.266 293.115 199.359 293.052 199.461 293.009C199.564 292.965 199.674 292.943 199.785 292.942C200.011 292.94 200.228 293.028 200.389 293.186L208.998 301.68L217.614 310.18C217.693 310.258 217.755 310.351 217.798 310.454C217.841 310.556 217.863 310.666 217.863 310.777C217.863 310.888 217.841 310.998 217.798 311.1C217.755 311.203 217.693 311.296 217.614 311.374C217.536 311.459 217.438 311.524 217.329 311.564C217.232 311.611 217.125 311.637 217.017 311.639Z" fill="#1F5D00"/>
<path d="M93.7431 314.515L91.3958 328.687L89.0485 342.845C88.5069 346.245 88.5989 349.716 89.3199 353.083C90.5342 358.347 93.9127 363.897 102.549 365.05H137.731V337.235L129.217 337.133L120.723 337.018L122.196 327.724L123.647 318.423L108.722 316.462L93.7431 314.515Z" fill="#DEB8FC"/>
<path d="M128.24 365.911C128.129 365.911 128.019 365.889 127.917 365.846C127.814 365.803 127.721 365.74 127.643 365.66C127.563 365.583 127.5 365.49 127.457 365.387C127.414 365.285 127.392 365.175 127.392 365.063V337.106C127.392 336.995 127.414 336.885 127.457 336.782C127.5 336.679 127.563 336.587 127.643 336.509C127.722 336.429 127.815 336.366 127.918 336.323C128.021 336.279 128.132 336.257 128.244 336.257C128.355 336.257 128.466 336.279 128.569 336.323C128.672 336.366 128.766 336.429 128.844 336.509C129 336.669 129.088 336.883 129.088 337.106V365.063C129.088 365.288 128.999 365.504 128.84 365.663C128.681 365.822 128.465 365.911 128.24 365.911Z" fill="#AD4D4D"/>
<path d="M137.731 337.221C139.345 337.363 140.972 337.244 142.548 336.869C146.147 336.076 149.358 334.056 151.632 331.156C152.313 330.357 153.09 329.644 153.945 329.033C155.302 328.11 156.93 327.479 158.253 328.626C158.813 329.116 159.166 329.799 159.244 330.539C159.329 331.286 159.165 332.04 158.776 332.683L156.279 336.787L153.783 340.858C153.499 341.662 153.403 342.521 153.504 343.368C153.694 344.63 154.549 345.912 157.202 345.993H171.699C172.59 345.9 173.49 346.021 174.325 346.346C174.632 346.446 174.912 346.613 175.147 346.835C175.382 347.057 175.564 347.328 175.682 347.628C175.724 347.771 175.744 347.92 175.743 348.069C175.741 348.301 175.697 348.531 175.614 348.748C175.828 348.888 176.022 349.057 176.19 349.25C176.512 349.616 176.703 350.079 176.733 350.566C176.752 351.052 176.606 351.53 176.319 351.923C176.021 352.343 175.599 352.661 175.112 352.832C175.172 352.996 175.213 353.167 175.234 353.34C175.247 353.476 175.247 353.612 175.234 353.748C175.127 354.42 174.762 355.024 174.216 355.43C173.53 355.959 172.735 356.329 171.889 356.515C168.533 358.002 165.095 359.296 161.591 360.389C153.868 362.911 145.863 364.472 137.758 365.036V337.221H137.731Z" fill="#FFAA9F"/>
<path d="M159.481 351.068C159.27 351.066 159.067 350.986 158.911 350.844C158.751 350.703 158.652 350.506 158.633 350.294C158.616 350.07 158.687 349.848 158.832 349.676C158.976 349.503 159.183 349.394 159.406 349.372L167.459 348.646L175.512 347.92C175.623 347.909 175.735 347.92 175.842 347.952C175.949 347.985 176.048 348.038 176.134 348.11C176.22 348.181 176.291 348.269 176.342 348.368C176.394 348.467 176.425 348.575 176.435 348.686C176.457 348.912 176.391 349.137 176.248 349.314C176.106 349.491 175.9 349.604 175.675 349.629L167.608 350.308L159.556 351.034H159.481V351.068Z" fill="#AD4D4D"/>
<path d="M159.861 355.688C159.657 355.684 159.46 355.61 159.305 355.477C159.152 355.34 159.053 355.152 159.026 354.948C159.011 354.838 159.018 354.725 159.047 354.617C159.076 354.509 159.126 354.408 159.194 354.32C159.262 354.232 159.347 354.158 159.444 354.102C159.541 354.047 159.648 354.012 159.759 353.999L167.364 353.022L174.996 352.018C175.22 351.993 175.446 352.053 175.627 352.187C175.804 352.325 175.918 352.528 175.946 352.75C175.962 352.861 175.955 352.975 175.925 353.083C175.896 353.191 175.846 353.293 175.776 353.381C175.709 353.47 175.624 353.544 175.528 353.598C175.431 353.653 175.324 353.688 175.213 353.7L167.608 354.691L159.997 355.681H159.881L159.861 355.688Z" fill="#AD4D4D"/>
<path d="M200.518 321.211H176.57C176.198 321.211 175.827 321.252 175.464 321.333C175.101 321.411 174.752 321.541 174.426 321.72C173.852 322.026 173.369 322.481 173.029 323.036C172.577 323.835 172.378 324.753 172.459 325.668C171.688 325.595 170.918 325.821 170.308 326.299C169.742 326.717 169.356 327.335 169.23 328.027C169.104 328.719 169.247 329.433 169.63 330.024C169.997 330.597 170.543 331.034 171.184 331.265C171.075 332.03 171.128 332.809 171.34 333.551C171.686 334.718 172.595 335.912 174.806 336.048C174.909 336.85 175.157 337.628 175.539 338.341C175.883 339.04 176.424 339.624 177.095 340.019C177.767 340.415 178.539 340.605 179.318 340.566H199.812C203.597 340.593 207.336 339.748 210.742 338.097C214.086 336.401 216.847 333.762 217.973 329.996C218.522 328.217 218.752 326.354 218.652 324.495C218.574 322.64 218.112 320.822 217.295 319.155C216.187 317.038 214.39 315.363 212.2 314.407C210.012 313.472 207.725 312.79 205.382 312.371C204.154 312.114 202.94 311.815 201.712 311.544C200.484 311.272 199.263 311.035 198.015 310.865C197.339 310.781 196.66 310.731 195.979 310.716C195.294 310.697 194.609 310.772 193.944 310.94C193.655 311.016 193.388 311.157 193.162 311.352C192.936 311.547 192.758 311.791 192.642 312.066C192.411 312.625 192.389 313.249 192.581 313.823C192.848 314.597 193.382 315.251 194.087 315.668C194.787 316.098 195.536 316.442 196.319 316.693C197.268 317.025 198.238 317.303 199.222 317.554C200.206 317.805 201.203 318.009 202.187 318.233C202.687 318.316 203.165 318.501 203.591 318.776C203.809 318.904 203.977 319.103 204.066 319.34C204.155 319.577 204.16 319.838 204.08 320.078C203.896 320.702 203.266 320.987 202.553 321.116C201.881 321.226 201.198 321.258 200.518 321.211Z" fill="#FFAA9F"/>
<path d="M192.635 336.896H174.827C174.716 336.898 174.606 336.877 174.503 336.836C174.4 336.795 174.307 336.734 174.228 336.656C174.149 336.579 174.086 336.486 174.043 336.384C174.001 336.282 173.979 336.172 173.979 336.061C173.979 335.836 174.068 335.621 174.227 335.462C174.386 335.303 174.602 335.213 174.827 335.213H192.635C192.746 335.214 192.856 335.236 192.959 335.279C193.061 335.322 193.154 335.385 193.232 335.464C193.312 335.542 193.375 335.635 193.418 335.737C193.461 335.84 193.483 335.95 193.483 336.061C193.483 336.174 193.461 336.285 193.418 336.388C193.375 336.492 193.312 336.586 193.232 336.665C193.07 336.816 192.856 336.898 192.635 336.896Z" fill="#AD4D4D"/>
<path d="M192.255 332.093H171.224C171.056 332.093 170.891 332.043 170.751 331.95C170.611 331.856 170.503 331.723 170.438 331.567C170.374 331.411 170.358 331.24 170.392 331.075C170.425 330.91 170.507 330.759 170.627 330.641C170.787 330.485 171.001 330.398 171.224 330.397H192.255C192.423 330.396 192.586 330.446 192.726 330.538C192.865 330.631 192.974 330.763 193.039 330.918C193.104 331.072 193.121 331.242 193.089 331.407C193.057 331.571 192.977 331.723 192.859 331.842C192.78 331.921 192.686 331.985 192.582 332.028C192.478 332.071 192.367 332.093 192.255 332.093Z" fill="#AD4D4D"/>
<path d="M191.699 326.523H172.459C172.347 326.523 172.236 326.501 172.132 326.458C172.028 326.415 171.934 326.352 171.855 326.272C171.737 326.153 171.657 326.002 171.625 325.837C171.593 325.673 171.61 325.502 171.675 325.348C171.74 325.193 171.849 325.061 171.988 324.969C172.128 324.876 172.292 324.827 172.459 324.827H191.699C191.922 324.828 192.136 324.915 192.296 325.071C192.412 325.191 192.491 325.341 192.523 325.505C192.555 325.669 192.538 325.839 192.475 325.993C192.411 326.148 192.304 326.28 192.166 326.374C192.028 326.468 191.866 326.52 191.699 326.523Z" fill="#AD4D4D"/>
<path d="M133.349 280.079L132.019 287.82L130.696 295.56L138.667 291.687L146.632 287.82L139.99 283.946L133.349 280.079Z" fill="#F98638"/>
<path d="M146.632 287.82L152.941 285.872L159.244 283.925L159.718 291.788L160.2 299.644L153.416 293.728L146.632 287.82Z" fill="#F98638"/>
<path d="M331.594 518.452H355.379C356.202 518.452 357.012 518.657 357.737 519.048C358.462 519.438 359.078 520.003 359.531 520.691L365.019 529.049L370.514 537.407C370.627 537.603 370.802 537.756 371.012 537.842C371.222 537.927 371.455 537.941 371.673 537.879C371.891 537.817 372.082 537.685 372.217 537.502C372.351 537.319 372.42 537.097 372.414 536.871V475.475C372.412 474.444 372.002 473.456 371.273 472.728C370.544 471.999 369.557 471.589 368.526 471.587H331.594V518.452Z" fill="#F98638"/>
<path d="M272.009 337.248C275.852 339.237 280.081 340.369 284.403 340.566C287.414 340.711 290.431 340.435 293.365 339.745C293.413 339.365 293.447 338.978 293.474 338.592C293.501 338.205 293.474 337.812 293.474 337.418C293.474 333.431 292.264 329.538 290.002 326.255C287.741 322.972 284.535 320.453 280.81 319.032C277.084 317.612 273.016 317.357 269.142 318.301C265.269 319.245 261.773 321.343 259.119 324.318C260.405 326.759 262.001 329.023 263.868 331.055C266.202 333.576 268.956 335.672 272.009 337.248Z" fill="#AD4D4D"/>
<path d="M137.731 338.097L128.722 337.988L119.713 337.88L121.266 328.104L122.82 318.328C122.836 318.218 122.874 318.112 122.932 318.018C122.991 317.923 123.068 317.842 123.159 317.778C123.34 317.645 123.567 317.589 123.79 317.622C124.01 317.66 124.207 317.781 124.339 317.961C124.472 318.143 124.528 318.37 124.495 318.592L123.098 327.412L121.7 336.231L129.726 336.326L137.751 336.421C137.863 336.421 137.973 336.443 138.076 336.486C138.178 336.53 138.271 336.593 138.349 336.673C138.427 336.752 138.488 336.847 138.528 336.95C138.569 337.054 138.589 337.164 138.586 337.276C138.586 337.386 138.564 337.495 138.521 337.597C138.478 337.698 138.414 337.79 138.335 337.866C138.254 337.942 138.16 338.002 138.056 338.042C137.952 338.081 137.842 338.1 137.731 338.097Z" fill="#AD4D4D"/>
<path d="M149.895 306.008L149.698 305.92L149.502 305.838C146.82 304.681 144.31 303.163 142.039 301.327C136.135 296.57 132.228 289.773 131.09 282.277C130.709 279.774 130.631 277.234 130.859 274.713C130.869 274.601 130.901 274.493 130.954 274.394C131.006 274.295 131.078 274.207 131.164 274.136C131.249 274.065 131.348 274.012 131.454 273.979C131.56 273.946 131.671 273.935 131.782 273.946C132.005 273.965 132.213 274.072 132.358 274.244C132.503 274.416 132.574 274.638 132.555 274.862C132.333 277.245 132.403 279.647 132.765 282.012C133.819 288.973 137.403 295.299 142.833 299.78C144.946 301.53 147.288 302.984 149.793 304.102C152.374 302.484 154.724 300.526 156.781 298.281C161.645 293.072 164.495 286.302 164.82 279.183C164.942 276.607 164.749 274.026 164.243 271.497C164.22 271.388 164.219 271.275 164.24 271.166C164.261 271.056 164.304 270.952 164.366 270.859C164.428 270.767 164.508 270.687 164.601 270.625C164.694 270.564 164.799 270.521 164.908 270.5C165.129 270.456 165.357 270.5 165.546 270.622C165.731 270.75 165.86 270.944 165.906 271.165C166.437 273.832 166.64 276.555 166.509 279.272C166.39 281.955 165.934 284.612 165.153 287.182C163.672 291.883 161.138 296.185 157.744 299.76C155.54 302.095 153.03 304.122 150.282 305.784L150.099 305.893L149.895 306.008Z" fill="#1F5D00"/>
<path d="M145.92 313.077C145.845 313.083 145.77 313.083 145.696 313.077C145.622 313.055 145.551 313.023 145.486 312.982C145.39 312.926 145.306 312.852 145.239 312.764C145.173 312.675 145.125 312.574 145.099 312.466C145.071 312.358 145.065 312.245 145.081 312.134C145.098 312.024 145.136 311.917 145.194 311.822L147.182 308.518L149.135 305.234C149.221 305.095 149.337 304.977 149.475 304.888C149.613 304.799 149.771 304.745 149.936 304.732C150.1 304.717 150.265 304.74 150.418 304.8C150.568 304.862 150.703 304.957 150.811 305.078L153.477 308.077L156.143 311.082C156.292 311.253 156.369 311.474 156.36 311.7C156.351 311.868 156.291 312.029 156.189 312.164C156.088 312.298 155.948 312.399 155.789 312.453C155.629 312.508 155.457 312.514 155.294 312.47C155.132 312.427 154.985 312.335 154.875 312.208L152.507 309.542L150.099 306.89L148.376 309.787L146.646 312.683C146.572 312.812 146.464 312.918 146.334 312.989C146.205 313.051 146.063 313.081 145.92 313.077Z" fill="#1F5D00"/>
<path d="M166.177 269.516C166.179 273.755 164.711 277.863 162.024 281.14C159.336 284.418 155.595 286.662 151.438 287.49C147.281 288.318 142.966 287.679 139.228 285.681C135.489 283.684 132.559 280.452 130.937 276.536C129.315 272.62 129.101 268.263 130.332 264.207C131.563 260.151 134.162 256.648 137.686 254.294C141.211 251.939 145.443 250.88 149.661 251.297C153.879 251.714 157.822 253.581 160.817 256.579C162.518 258.276 163.867 260.293 164.787 262.513C165.707 264.733 166.179 267.113 166.177 269.516Z" fill="#FFAA9F"/>
<path d="M144.468 272.142C144.467 272.396 144.391 272.644 144.249 272.855C144.108 273.066 143.907 273.231 143.672 273.328C143.437 273.425 143.178 273.451 142.929 273.401C142.679 273.352 142.45 273.23 142.27 273.051C142.151 272.931 142.056 272.789 141.992 272.633C141.928 272.477 141.896 272.31 141.897 272.142C141.896 271.973 141.928 271.806 141.993 271.65C142.057 271.494 142.151 271.352 142.27 271.233C142.39 271.114 142.531 271.019 142.687 270.955C142.843 270.891 143.01 270.858 143.179 270.859C143.348 270.858 143.515 270.891 143.672 270.955C143.828 271.019 143.97 271.113 144.09 271.232C144.21 271.352 144.305 271.493 144.37 271.649C144.435 271.805 144.468 271.973 144.468 272.142V272.142Z" fill="#1F5D00"/>
<path d="M155.322 270.859C155.32 271.112 155.244 271.359 155.102 271.569C154.961 271.778 154.761 271.942 154.527 272.039C154.294 272.135 154.037 272.162 153.789 272.113C153.54 272.065 153.312 271.945 153.131 271.768C153.01 271.65 152.915 271.508 152.849 271.352C152.784 271.196 152.75 271.029 152.75 270.859C152.75 270.69 152.784 270.523 152.849 270.367C152.915 270.21 153.01 270.069 153.131 269.95C153.25 269.83 153.392 269.735 153.548 269.67C153.704 269.604 153.871 269.571 154.04 269.57C154.381 269.573 154.708 269.71 154.949 269.95C155.189 270.192 155.323 270.519 155.322 270.859V270.859Z" fill="#1F5D00"/>
<path d="M149.108 280.635C147.957 280.622 146.827 280.319 145.825 279.753C145.337 279.484 144.882 279.161 144.468 278.79C144.31 278.631 144.217 278.417 144.21 278.193C144.207 278.082 144.227 277.971 144.268 277.867C144.308 277.763 144.37 277.669 144.447 277.589C144.523 277.508 144.614 277.444 144.716 277.399C144.817 277.355 144.927 277.332 145.038 277.331C145.15 277.328 145.262 277.348 145.367 277.389C145.472 277.43 145.567 277.491 145.648 277.569C146.056 277.924 146.513 278.219 147.005 278.444C147.89 278.901 148.9 279.055 149.88 278.882C150.861 278.709 151.757 278.219 152.432 277.487C152.773 277.132 153.061 276.73 153.287 276.293C153.39 276.094 153.564 275.941 153.776 275.866C153.886 275.828 154.003 275.813 154.12 275.821C154.236 275.829 154.35 275.861 154.454 275.913C154.653 276.017 154.804 276.195 154.875 276.409C154.911 276.514 154.925 276.625 154.917 276.736C154.909 276.847 154.878 276.955 154.827 277.053C154.512 277.67 154.105 278.235 153.62 278.729C152.819 279.555 151.808 280.146 150.696 280.438C150.439 280.509 150.179 280.561 149.915 280.594C149.647 280.623 149.378 280.637 149.108 280.635Z" fill="#AD4D4D"/>
<path d="M140.723 268.973C142.926 268.408 144.944 267.279 146.578 265.697C147.496 264.831 148.29 263.842 148.939 262.759C149.76 262.956 150.605 263.036 151.449 262.997C152.971 262.96 154.452 262.49 155.716 261.64C156.742 260.925 157.584 259.976 158.172 258.872C158.773 257.74 159.129 256.494 159.217 255.215C156.709 253.204 153.712 251.897 150.532 251.429C147.352 250.961 144.105 251.348 141.125 252.551C138.144 253.754 135.538 255.729 133.574 258.273C131.61 260.817 130.359 263.838 129.95 267.026C131.309 267.892 132.795 268.542 134.353 268.953C136.44 269.502 138.633 269.509 140.723 268.973Z" fill="#AD4D4D"/>
<path d="M302.537 497.286C302.428 497.286 302.32 497.265 302.218 497.224C302.114 497.183 302.02 497.121 301.94 497.041L289.349 484.633L276.758 472.191C276.677 472.114 276.614 472.021 276.571 471.918C276.528 471.816 276.506 471.705 276.507 471.594C276.507 471.369 276.594 471.152 276.751 470.99C276.909 470.831 277.123 470.741 277.348 470.739C277.573 470.739 277.79 470.827 277.952 470.984L290.523 483.412L303.094 495.834C303.252 495.993 303.345 496.206 303.351 496.431C303.352 496.543 303.331 496.654 303.287 496.758C303.244 496.862 303.181 496.956 303.1 497.034C303.021 497.116 302.927 497.18 302.822 497.224C302.731 497.261 302.635 497.281 302.537 497.286V497.286Z" fill="#1F5D00"/>
<path d="M308.134 431.419C307.936 431.417 307.744 431.348 307.592 431.222C307.437 431.095 307.333 430.917 307.3 430.72L304.491 414.947L301.689 399.153C301.668 399.045 301.669 398.932 301.692 398.824C301.715 398.716 301.761 398.613 301.825 398.523C301.888 398.43 301.969 398.35 302.064 398.29C302.158 398.229 302.264 398.188 302.375 398.17C302.484 398.15 302.596 398.152 302.705 398.176C302.813 398.201 302.915 398.247 303.005 398.312C303.097 398.375 303.176 398.455 303.236 398.548C303.297 398.641 303.338 398.746 303.358 398.855L306.16 414.628L308.969 430.401C309.005 430.621 308.954 430.846 308.828 431.03C308.701 431.213 308.509 431.34 308.29 431.385H308.141L308.134 431.419Z" fill="#5B9900"/>
<path d="M260.598 430.157C259.497 430.172 258.404 429.965 257.386 429.548C256.367 429.13 255.443 428.511 254.669 427.728C251.08 424.187 249.798 417.342 249.425 411.27C249.196 407.34 249.266 403.398 249.635 399.479C249.644 399.368 249.675 399.26 249.728 399.162C249.781 399.064 249.853 398.978 249.94 398.909C250.116 398.768 250.34 398.7 250.564 398.719C250.788 398.744 250.993 398.856 251.134 399.031C251.204 399.118 251.257 399.218 251.288 399.325C251.319 399.432 251.329 399.544 251.317 399.655C250.994 403.337 250.924 407.036 251.107 410.727C251.419 416.602 252.559 423.271 255.856 426.52C256.586 427.26 257.481 427.815 258.468 428.142C259.495 428.458 260.578 428.546 261.643 428.4C261.753 428.385 261.866 428.393 261.973 428.423C262.081 428.453 262.181 428.503 262.269 428.572C262.357 428.641 262.43 428.726 262.484 428.824C262.539 428.921 262.573 429.028 262.586 429.139C262.6 429.249 262.593 429.361 262.564 429.468C262.535 429.575 262.485 429.676 262.416 429.763C262.275 429.94 262.071 430.055 261.846 430.082C261.636 430.082 261.426 430.123 261.215 430.136L260.598 430.157Z" fill="#5B9900"/>
<path d="M259.852 451.561L260.564 451.296C260.802 451.201 261.039 451.099 261.283 450.984C262.53 450.403 263.692 449.654 264.736 448.759C266.418 447.356 267.551 445.406 267.939 443.25C268.26 441.099 267.834 438.903 266.731 437.029C265.648 435.129 264.029 433.591 262.077 432.606C260.325 431.746 258.369 431.389 256.426 431.575C254.452 431.763 252.563 432.465 250.944 433.61C252.007 432.605 252.909 431.443 253.617 430.164C254.539 428.493 255.007 426.61 254.974 424.702C254.897 422.098 253.941 419.597 252.261 417.606C250.507 415.496 248.133 413.991 245.476 413.305C244.16 413.075 242.818 413.025 241.487 413.156C239.083 413.337 236.802 414.289 234.981 415.87C232.913 417.831 231.644 420.49 231.42 423.332C231.154 426.518 231.943 429.703 233.665 432.396C231.255 431.12 228.483 430.699 225.803 431.202C223.265 431.662 220.982 433.029 219.378 435.048C218.155 436.641 217.413 438.55 217.241 440.55C217.048 442.621 217.463 444.702 218.435 446.54C219.049 447.703 219.875 448.741 220.87 449.6C221.85 450.449 222.974 451.115 224.188 451.567H223.123C221.734 451.567 220.359 451.841 219.075 452.373C217.792 452.904 216.626 453.683 215.644 454.665C214.662 455.647 213.883 456.813 213.351 458.096C212.82 459.38 212.546 460.755 212.546 462.144V462.144C212.545 463.533 212.818 464.909 213.35 466.193C213.881 467.477 214.66 468.644 215.642 469.627C216.624 470.61 217.79 471.389 219.074 471.921C220.357 472.453 221.733 472.727 223.123 472.727H233.726V518.459H248.991V472.707H259.594C260.984 472.707 262.359 472.433 263.643 471.901C264.927 471.369 266.093 470.589 267.075 469.607C268.057 468.624 268.836 467.457 269.367 466.173C269.899 464.889 270.171 463.513 270.171 462.124V462.124C270.171 459.364 269.092 456.714 267.164 454.74C265.235 452.765 262.611 451.625 259.852 451.561V451.561Z" fill="#7DBA07"/>
<path d="M372.414 267.081H353.011C352.877 267.081 352.745 267.055 352.622 267.003C352.498 266.952 352.386 266.877 352.292 266.782C352.196 266.689 352.12 266.577 352.069 266.453C352.018 266.33 351.992 266.197 351.993 266.063C351.992 265.929 352.017 265.796 352.069 265.673C352.12 265.549 352.196 265.437 352.292 265.344C352.386 265.249 352.498 265.174 352.622 265.123C352.745 265.071 352.877 265.045 353.011 265.045H372.414C372.684 265.045 372.942 265.153 373.133 265.344C373.324 265.534 373.431 265.793 373.431 266.063C373.43 266.333 373.323 266.591 373.133 266.782C373.039 266.877 372.926 266.952 372.803 267.003C372.68 267.055 372.547 267.081 372.414 267.081Z" fill="#5B9900"/>
<path d="M415.391 281.558C415.39 285.449 414.041 289.219 411.573 292.227C409.104 295.234 405.669 297.293 401.853 298.052C398.037 298.81 394.076 298.223 390.644 296.388C387.213 294.554 384.524 291.587 383.035 287.992C381.546 284.397 381.35 280.397 382.48 276.674C383.609 272.951 385.995 269.734 389.23 267.573C392.465 265.411 396.35 264.439 400.222 264.82C404.094 265.202 407.714 266.914 410.465 269.665C412.028 271.227 413.267 273.08 414.112 275.121C414.958 277.162 415.392 279.349 415.391 281.558Z" fill="#DEB8FC"/>
<path d="M471.143 247.76C471.142 251.65 469.793 255.421 467.324 258.428C464.856 261.436 461.421 263.494 457.605 264.253C453.789 265.012 449.827 264.424 446.396 262.59C442.965 260.756 440.276 257.788 438.787 254.193C437.298 250.599 437.102 246.599 438.231 242.876C439.361 239.152 441.747 235.936 444.982 233.775C448.217 231.613 452.102 230.64 455.974 231.022C459.846 231.403 463.466 233.116 466.217 235.867C467.78 237.428 469.02 239.282 469.865 241.322C470.711 243.363 471.145 245.551 471.143 247.76Z" fill="#DEB8FC"/>
<path d="M399.91 215.393C399.909 219.283 398.56 223.054 396.091 226.061C393.623 229.069 390.188 231.128 386.372 231.886C382.556 232.645 378.594 232.057 375.163 230.223C371.732 228.389 369.043 225.421 367.554 221.827C366.065 218.232 365.869 214.232 366.998 210.509C368.128 206.785 370.514 203.569 373.749 201.408C376.984 199.246 380.869 198.273 384.741 198.655C388.613 199.036 392.233 200.749 394.984 203.5C396.547 205.061 397.787 206.915 398.632 208.955C399.477 210.996 399.912 213.184 399.91 215.393Z" fill="#DEB8FC"/>
<path d="M356.267 451.561L356.946 451.296C357.183 451.201 357.427 451.099 357.672 450.984C358.918 450.401 360.079 449.653 361.125 448.759C362.806 447.36 363.944 445.415 364.34 443.264C364.66 441.112 364.231 438.916 363.126 437.043C362.045 435.142 360.426 433.603 358.472 432.62C356.723 431.759 354.768 431.402 352.828 431.588C350.853 431.778 348.961 432.48 347.339 433.624C348.404 432.621 349.306 431.458 350.012 430.177C350.934 428.507 351.402 426.624 351.369 424.716C351.292 422.112 350.336 419.611 348.656 417.62C346.902 415.51 344.528 414.005 341.871 413.319C340.555 413.089 339.213 413.039 337.882 413.17C335.48 413.351 333.201 414.303 331.383 415.883C329.314 417.845 328.046 420.503 327.822 423.346C327.565 426.529 328.361 429.709 330.087 432.396C327.675 431.11 324.898 430.682 322.211 431.181C319.674 431.642 317.391 433.009 315.787 435.028C314.562 436.62 313.818 438.529 313.643 440.53C313.456 442.601 313.873 444.681 314.844 446.52C315.455 447.683 316.279 448.72 317.272 449.58C318.253 450.427 319.376 451.093 320.59 451.547H319.531C316.726 451.547 314.035 452.661 312.05 454.645C310.066 456.628 308.95 459.318 308.948 462.124V462.124C308.948 464.93 310.063 467.622 312.048 469.607C314.033 471.592 316.725 472.707 319.531 472.707H330.149V518.438H345.406V472.707H356.01C358.816 472.707 361.508 471.592 363.493 469.607C365.478 467.622 366.593 464.93 366.593 462.124V462.124C366.593 459.363 365.513 456.711 363.583 454.737C361.653 452.763 359.027 451.623 356.267 451.561V451.561Z" fill="#7DBA07"/>
<path d="M172.371 451.561L173.049 451.296C173.293 451.201 173.531 451.099 173.775 450.984C175.021 450.401 176.183 449.653 177.228 448.759C178.912 447.361 180.05 445.416 180.444 443.264C180.763 441.112 180.335 438.916 179.229 437.043C178.15 435.14 176.531 433.6 174.576 432.619C172.826 431.759 170.872 431.402 168.931 431.588C166.956 431.778 165.064 432.479 163.443 433.623C164.508 432.619 165.412 431.457 166.123 430.177C167.042 428.506 167.509 426.623 167.479 424.716C167.402 422.112 166.446 419.611 164.766 417.62C163.012 415.509 160.639 414.004 157.982 413.319C156.667 413.089 155.327 413.039 153.999 413.169C151.595 413.35 149.313 414.301 147.493 415.883C145.425 417.845 144.156 420.503 143.932 423.346C143.671 426.527 144.462 429.707 146.184 432.396C143.774 431.12 141.002 430.699 138.321 431.202C135.784 431.662 133.501 433.029 131.897 435.048C130.672 436.64 129.928 438.549 129.753 440.55C129.566 442.621 129.983 444.702 130.954 446.54C131.568 447.703 132.394 448.741 133.389 449.6C134.368 450.447 135.489 451.113 136.7 451.567H135.648C132.843 451.567 130.152 452.682 128.167 454.665C126.183 456.648 125.067 459.338 125.065 462.144V462.144C125.065 464.951 126.18 467.643 128.165 469.627C130.15 471.612 132.842 472.727 135.648 472.727H146.252V518.459H161.516V472.707H172.12C174.925 472.705 177.615 471.589 179.599 469.605C181.582 467.62 182.696 464.929 182.696 462.123C182.697 459.364 181.618 456.713 179.689 454.739C177.761 452.765 175.136 451.624 172.378 451.561H172.371Z" fill="#7DBA07"/>
<path d="M440.675 421.344H392.42C392.309 421.344 392.199 421.322 392.096 421.279C391.994 421.235 391.901 421.172 391.823 421.093C391.743 421.016 391.68 420.923 391.637 420.82C391.594 420.718 391.571 420.608 391.571 420.496C391.571 420.385 391.594 420.275 391.637 420.172C391.68 420.07 391.743 419.977 391.823 419.899C391.901 419.82 391.994 419.757 392.096 419.714C392.199 419.671 392.309 419.649 392.42 419.648H440.675C440.786 419.649 440.896 419.671 440.999 419.714C441.101 419.757 441.194 419.82 441.272 419.899C441.352 419.977 441.415 420.07 441.458 420.172C441.501 420.275 441.523 420.385 441.523 420.496C441.523 420.608 441.501 420.718 441.458 420.82C441.415 420.923 441.352 421.016 441.272 421.093C441.194 421.172 441.101 421.235 440.999 421.279C440.896 421.322 440.786 421.344 440.675 421.344V421.344Z" fill="#1F5D00"/>
<path d="M9.46428 416.29C9.34808 416.288 9.23321 416.265 9.12508 416.222C9.01789 416.173 8.92115 416.104 8.84015 416.019C8.76321 415.938 8.70366 415.842 8.66517 415.737C8.62667 415.632 8.61003 415.52 8.61627 415.408C8.62302 415.184 8.71814 414.972 8.88085 414.818L42.4893 383.55L76.0706 352.343C76.2378 352.193 76.4564 352.113 76.6811 352.119C76.7925 352.122 76.9022 352.147 77.0038 352.192C77.1055 352.238 77.1969 352.304 77.2728 352.385C77.3486 352.467 77.4074 352.563 77.4456 352.667C77.4838 352.772 77.5007 352.883 77.4952 352.994C77.4926 353.105 77.4679 353.215 77.4225 353.316C77.377 353.418 77.3118 353.509 77.2306 353.585L43.6494 384.839L10.0681 416.087C9.9882 416.162 9.89345 416.22 9.78992 416.256C9.68513 416.291 9.574 416.303 9.46428 416.29V416.29Z" fill="#5B9900"/>
<path d="M225.578 367.682C225.5 367.681 225.423 367.669 225.348 367.648C225.268 367.628 225.192 367.594 225.124 367.546C224.935 367.423 224.801 367.231 224.751 367.01C224.705 366.791 224.746 366.562 224.866 366.373L258.922 313.748L292.972 261.131C293.031 261.037 293.11 260.956 293.202 260.893C293.294 260.83 293.398 260.786 293.508 260.765C293.616 260.74 293.729 260.738 293.838 260.757C293.948 260.777 294.052 260.819 294.145 260.88C294.239 260.941 294.319 261.019 294.382 261.111C294.445 261.203 294.489 261.307 294.512 261.416C294.536 261.525 294.539 261.637 294.519 261.747C294.499 261.856 294.457 261.961 294.396 262.054L260.347 314.671L226.291 367.268C226.213 367.388 226.105 367.487 225.979 367.553C225.859 367.63 225.721 367.675 225.578 367.682V367.682Z" fill="#5B9900"/>
<path d="M183.266 65.43C181.335 62.0843 178.458 59.3842 174.996 57.669C171.559 55.9685 167.727 55.2279 163.904 55.5253C164.134 54.598 164.309 53.6579 164.427 52.7099C164.544 51.7396 164.603 50.7632 164.603 49.7859C164.594 44.6639 162.929 39.682 159.857 35.5838C156.784 31.4856 152.469 28.4908 147.555 27.0463C142.641 25.6019 137.391 25.7851 132.59 27.5689C127.788 29.3526 123.693 32.6411 120.913 36.9436C119.719 30.4286 116.015 24.6427 110.598 20.8307C105.181 17.0187 98.4846 15.4852 91.9487 16.56C85.4128 17.6348 79.56 21.232 75.6492 26.5779C71.7384 31.9238 70.0821 38.5911 71.0367 45.1456C71.2269 46.3936 71.5127 47.6251 71.8915 48.8294C68.2775 47.2319 64.322 46.5616 60.3835 46.8792C56.445 47.1968 52.648 48.4922 49.3367 50.6481C46.0254 52.804 43.3044 55.7522 41.4204 59.2254C39.5365 62.6987 38.549 66.5872 38.5477 70.5385C38.5442 72.3354 38.7468 74.1268 39.1515 75.8776C39.5382 77.5738 40.1139 79.2213 40.8678 80.7892C36.4605 81.3688 32.3448 83.3121 29.0969 86.3472C25.849 89.3823 23.6317 93.3571 22.7553 97.7152C21.8789 102.073 22.3874 106.596 24.2095 110.651C26.0316 114.705 29.0762 118.089 32.9169 120.327C30.5022 122.247 28.5331 124.668 27.1456 127.423C25.7581 130.178 24.9854 133.201 24.8807 136.284C24.776 139.367 25.342 142.436 26.5394 145.279C27.7368 148.122 29.5371 150.671 31.8161 152.75C34.095 154.829 36.7981 156.388 39.7386 157.32C42.6791 158.252 45.787 158.535 48.8474 158.148C51.9078 157.762 54.8478 156.715 57.4642 155.081C60.0807 153.447 62.3112 151.265 64.0016 148.685C66.3489 154.2 72.2172 157.924 79.9239 159.478C87.6306 161.032 97.1826 160.414 106.891 157.246C115.791 154.349 123.322 149.784 128.6 144.58C133.878 139.377 136.917 133.502 136.829 127.986C140.476 129.84 144.53 130.75 148.62 130.632C152.916 130.507 157.114 129.311 160.831 127.152C166.292 124.033 170.411 119.008 172.398 113.041C174.328 107.289 173.924 101.009 171.272 95.5514C171.876 95.3343 172.473 95.0833 173.063 94.812C173.653 94.5406 174.236 94.2353 174.813 93.9029C179.721 91.0979 183.364 86.5152 184.989 81.1013C185.786 78.5098 186.045 75.7826 185.748 73.0875C185.452 70.3924 184.607 67.7864 183.266 65.43Z" fill="#F1FF7C"/>
<path d="M147.527 73.666C150.587 80.7418 148.023 89.4526 141.422 97.8174C134.821 106.182 124.116 114.221 110.961 119.893C97.8068 125.564 84.6457 127.864 74.0218 126.962C63.3979 126.06 55.2909 121.955 52.2041 114.9C49.1173 107.844 51.7089 99.1131 58.3098 90.7484C64.9107 82.3836 75.6025 74.3648 88.7568 68.6729C101.911 62.981 115.072 60.6948 125.696 61.6039C136.32 62.5129 144.468 66.5902 147.527 73.666Z" fill="#F98638"/>
<path d="M237.335 261.246L234.391 258.655L231.447 256.063L230.979 262.671L230.511 269.279L233.903 265.263C235.047 263.919 236.191 262.581 237.335 261.246Z" fill="#1F5D00"/>
<path d="M234.866 237.285C234.759 237.284 234.653 237.264 234.554 237.224C234.454 237.18 234.363 237.121 234.282 237.047L233.299 236.104L232.322 235.168C232.241 235.091 232.176 234.999 232.132 234.896C232.088 234.793 232.065 234.683 232.064 234.571C232.059 234.347 232.142 234.131 232.295 233.967C232.372 233.886 232.464 233.822 232.567 233.777C232.669 233.733 232.78 233.71 232.892 233.71C233.115 233.704 233.332 233.787 233.496 233.94L234.472 234.883L235.456 235.819C235.537 235.896 235.602 235.989 235.646 236.092C235.69 236.194 235.713 236.305 235.714 236.416C235.719 236.64 235.636 236.857 235.483 237.02C235.4 237.104 235.301 237.171 235.192 237.217C235.088 237.26 234.978 237.283 234.866 237.285Z" fill="#1F5D00"/>
<path d="M260.788 238.289H260.666L259.309 238.092L257.952 237.895C257.842 237.88 257.736 237.842 257.64 237.785C257.544 237.728 257.461 237.652 257.395 237.563C257.328 237.473 257.28 237.371 257.254 237.263C257.227 237.155 257.223 237.042 257.24 236.932C257.273 236.71 257.393 236.509 257.574 236.375C257.754 236.24 257.98 236.182 258.203 236.213L259.56 236.41L260.917 236.606C261.139 236.64 261.34 236.76 261.474 236.94C261.609 237.121 261.667 237.347 261.636 237.57C261.606 237.774 261.502 237.96 261.344 238.092C261.189 238.223 260.991 238.293 260.788 238.289V238.289Z" fill="#1F5D00"/>
<path d="M196.318 447.253C196.244 447.263 196.169 447.263 196.095 447.253C196.022 447.23 195.951 447.201 195.884 447.164C195.788 447.108 195.704 447.033 195.638 446.943C195.571 446.853 195.523 446.751 195.498 446.642C195.466 446.529 195.457 446.41 195.472 446.294C195.487 446.177 195.526 446.065 195.586 445.964C195.586 445.964 195.939 445.373 196.346 444.553C196.816 443.654 197.202 442.714 197.499 441.744C197.562 441.527 197.708 441.344 197.906 441.235C198.008 441.176 198.121 441.139 198.237 441.127C198.354 441.114 198.472 441.125 198.584 441.161C198.799 441.223 198.982 441.367 199.093 441.561C199.15 441.663 199.185 441.776 199.198 441.893C199.211 442.009 199.201 442.127 199.168 442.239C198.843 443.294 198.426 444.318 197.92 445.299C197.479 446.181 197.112 446.805 197.078 446.859C197.003 446.987 196.895 447.092 196.766 447.164C196.628 447.236 196.473 447.266 196.318 447.253V447.253Z" fill="#1F5D00"/>
<path d="M142.025 452.395H135.648C135.537 452.396 135.427 452.374 135.324 452.331C135.222 452.288 135.129 452.224 135.051 452.144C134.972 452.067 134.908 451.974 134.865 451.871C134.822 451.769 134.8 451.658 134.8 451.547C134.804 451.325 134.895 451.112 135.054 450.956C135.212 450.8 135.426 450.713 135.648 450.713H142.032C142.257 450.713 142.473 450.802 142.632 450.961C142.791 451.12 142.88 451.336 142.88 451.561C142.879 451.785 142.789 452 142.63 452.158C142.471 452.317 142.257 452.407 142.032 452.409L142.025 452.395Z" fill="#5B9900"/>
<path d="M161.476 436.018C161.344 436.022 161.213 435.994 161.095 435.936C160.977 435.878 160.875 435.792 160.797 435.686C160.66 435.508 160.599 435.284 160.627 435.061C160.655 434.839 160.77 434.636 160.946 434.499L162.303 433.461L163.66 432.429C163.748 432.361 163.848 432.311 163.955 432.282C164.062 432.253 164.174 432.245 164.284 432.26C164.395 432.273 164.503 432.308 164.599 432.364C164.696 432.42 164.781 432.496 164.847 432.585C164.915 432.673 164.965 432.773 164.995 432.881C165.024 432.988 165.031 433.1 165.017 433.21C165.004 433.321 164.968 433.428 164.912 433.525C164.856 433.622 164.781 433.706 164.691 433.773L163.334 434.804L161.978 435.842C161.902 435.9 161.817 435.946 161.727 435.978C161.645 436.003 161.561 436.017 161.476 436.018V436.018Z" fill="#5B9900"/>
<path d="M259.852 452.748H254.092C253.981 452.748 253.871 452.725 253.768 452.682C253.666 452.639 253.573 452.576 253.495 452.497C253.415 452.419 253.352 452.327 253.309 452.224C253.266 452.121 253.244 452.011 253.244 451.9C253.244 451.788 253.266 451.676 253.309 451.573C253.352 451.469 253.415 451.375 253.495 451.296C253.655 451.14 253.869 451.053 254.092 451.052H259.852C260.077 451.052 260.292 451.141 260.451 451.3C260.61 451.459 260.7 451.675 260.7 451.9C260.698 452.124 260.608 452.339 260.449 452.498C260.291 452.656 260.076 452.746 259.852 452.748V452.748Z" fill="#5B9900"/>
<path d="M234.954 434.756C234.729 434.756 234.513 434.668 234.35 434.512L233.279 433.434L232.2 432.355C232.082 432.236 232.002 432.086 231.97 431.922C231.938 431.758 231.955 431.588 232.018 431.434C232.082 431.28 232.19 431.148 232.328 431.054C232.467 430.961 232.63 430.911 232.797 430.91C232.909 430.91 233.02 430.932 233.124 430.975C233.228 431.018 233.322 431.081 233.401 431.161L234.473 432.233L235.551 433.311C235.711 433.469 235.801 433.684 235.802 433.908C235.8 434.135 235.71 434.351 235.551 434.512C235.472 434.592 235.377 434.654 235.273 434.695C235.172 434.736 235.063 434.756 234.954 434.756V434.756Z" fill="#5B9900"/>
<path d="M324.701 452.259H319.131C318.964 452.26 318.8 452.21 318.66 452.118C318.521 452.025 318.412 451.893 318.347 451.738C318.283 451.584 318.265 451.414 318.297 451.249C318.329 451.085 318.41 450.933 318.528 450.814C318.607 450.735 318.701 450.671 318.804 450.628C318.908 450.585 319.019 450.563 319.131 450.563H324.701C324.813 450.563 324.924 450.585 325.028 450.628C325.132 450.671 325.226 450.735 325.305 450.814C325.423 450.933 325.503 451.085 325.535 451.249C325.567 451.414 325.55 451.584 325.485 451.738C325.42 451.893 325.312 452.025 325.172 452.118C325.032 452.21 324.869 452.26 324.701 452.259V452.259Z" fill="#5B9900"/>
<path d="M344.85 435.747C344.7 435.746 344.552 435.707 344.422 435.632C344.29 435.549 344.181 435.435 344.104 435.299C343.997 435.102 343.973 434.87 344.036 434.655C344.067 434.547 344.12 434.447 344.191 434.361C344.262 434.275 344.35 434.204 344.45 434.153L346.431 433.074L348.412 431.995C348.514 431.938 348.627 431.902 348.744 431.891C348.86 431.879 348.978 431.892 349.09 431.927C349.197 431.959 349.297 432.011 349.384 432.083C349.47 432.154 349.541 432.242 349.592 432.341C349.651 432.443 349.687 432.556 349.699 432.673C349.711 432.79 349.697 432.908 349.66 433.02C349.596 433.234 349.449 433.415 349.253 433.522L347.272 434.6L345.277 435.638C345.216 435.674 345.149 435.701 345.081 435.72C345.005 435.737 344.928 435.746 344.85 435.747V435.747Z" fill="#5B9900"/>
<path d="M48.9477 480.827H39.1107C38.9995 480.828 38.8892 480.806 38.7867 480.763C38.6841 480.72 38.5913 480.656 38.5137 480.576C38.4336 480.499 38.37 480.406 38.3269 480.304C38.2837 480.201 38.2619 480.091 38.2627 479.979C38.2645 479.755 38.3544 479.54 38.5131 479.382C38.6717 479.223 38.8864 479.133 39.1107 479.131H48.9477C49.172 479.133 49.3867 479.223 49.5454 479.382C49.704 479.54 49.7939 479.755 49.7957 479.979C49.7965 480.091 49.7747 480.201 49.7315 480.304C49.6884 480.406 49.6248 480.499 49.5447 480.576C49.4672 480.656 49.3743 480.72 49.2717 480.763C49.1692 480.806 49.0589 480.828 48.9477 480.827Z" fill="#5B9900"/>
<path d="M76.627 415.286C76.4768 415.286 76.3292 415.247 76.1996 415.171C76.0632 415.096 75.9522 414.983 75.8807 414.845C75.8212 414.744 75.7837 414.631 75.7709 414.514C75.758 414.397 75.77 414.279 75.8061 414.167C75.8699 413.95 76.0161 413.768 76.2131 413.658L80.1954 411.487L84.1709 409.309C84.2731 409.252 84.3862 409.216 84.503 409.204C84.6198 409.192 84.7377 409.205 84.8493 409.241C85.064 409.306 85.2444 409.453 85.3512 409.65C85.458 409.847 85.4824 410.078 85.4192 410.293C85.3896 410.4 85.3381 410.5 85.2681 410.586C85.198 410.673 85.1109 410.744 85.0121 410.795L81.0366 412.973L77.0544 415.15C76.9931 415.185 76.9267 415.21 76.8576 415.225C76.785 415.259 76.7069 415.279 76.627 415.286V415.286Z" fill="#5B9900"/>
<path d="M51.0711 446.255H43.5475C43.38 446.256 43.2161 446.206 43.0766 446.114C42.9371 446.021 42.8281 445.889 42.7636 445.734C42.699 445.58 42.6816 445.41 42.7137 445.245C42.7458 445.081 42.8258 444.929 42.9438 444.81C43.0228 444.731 43.1168 444.667 43.2205 444.624C43.3241 444.581 43.4353 444.559 43.5475 444.559H51.0711C51.1834 444.559 51.2945 444.581 51.3982 444.624C51.5018 444.667 51.5959 444.731 51.6749 444.81C51.7928 444.929 51.8729 445.081 51.905 445.245C51.937 445.41 51.9197 445.58 51.8551 445.734C51.7905 445.889 51.6816 446.021 51.542 446.114C51.4025 446.206 51.2386 446.256 51.0711 446.255V446.255Z" fill="#5B9900"/>
</svg>
