<svg width="548" height="599" viewBox="0 0 548 599" fill="none" xmlns="http://www.w3.org/2000/svg">
<path d="M408.043 0.848022H278.949H149.847L74.9236 75.5681L0 150.288V374.028V597.767H272.538H545.075V374.028V150.288L476.563 75.5681L408.043 0.848022Z" fill="#1F5D00"/>
<path d="M215.626 305.637C215.266 309.199 214.316 318.975 214.032 331.308C213.747 343.642 214.113 358.513 216.372 372.278C216.935 375.703 217.552 379.448 218.482 383.634C219.534 388.375 220.871 393.049 222.485 397.63C223.841 401.456 224.811 403.735 225.944 406.293C227.077 408.851 228.366 411.775 230.347 416.897C232.328 422.019 233.848 426.564 235.096 430.6C236.344 434.637 237.213 438.063 237.864 440.777C237.864 440.777 238.597 443.999 239.35 449.284C240.338 456.213 240.875 463.2 240.958 470.199C241.059 480.097 239.438 496.766 235.897 518.57C232.355 540.374 226.887 567.28 219.31 597.761H207.729C210.511 586.77 213.801 573.073 217.084 557.599C220.368 542.124 223.638 524.886 226.399 506.799C227.423 500.09 228.495 492.397 228.963 483.842C229.508 474.462 229.137 465.051 227.858 455.742C226.996 449.637 225.782 443.89 224.655 439.277C223.529 434.664 222.491 431.177 221.989 429.529C220.168 423.542 218.037 417.655 215.605 411.89C213.692 407.358 212.179 404.298 211.603 403.071C208.672 396.883 205.836 387.365 204.059 372.033C202.281 356.701 201.583 335.555 202.899 306.092L209.262 305.868L215.626 305.637Z" fill="#F1FF7C"/>
<path d="M269.573 400.669L276.723 399.312L283.874 397.955C282.022 400.838 279.912 404.305 277.727 408.321C275.543 412.338 273.277 416.91 271.092 422.005C269.519 425.689 267.544 430.356 265.665 435.892C263.561 442.116 262.006 448.513 261.018 455.01C259.79 463.219 259.562 471.548 260.34 479.812C261.04 486.567 262.127 493.276 263.596 499.907C265.205 507.86 267.535 515.651 270.557 523.183C272.877 529.289 275.129 535.116 277.096 544.892C278.605 552.358 279.513 559.933 279.81 567.544C280.035 573.31 279.917 579.085 279.457 584.837L272.639 586.119L265.814 587.394C266.675 581.268 267.097 575.088 267.076 568.901C267.052 560.779 266.222 552.68 264.6 544.722C262.721 535.51 260.53 530.15 258.189 524.37C255.11 517.035 252.763 509.413 251.181 501.616C249.76 495.261 248.713 488.828 248.047 482.349C247.205 473.628 247.369 464.84 248.535 456.156C249.409 449.757 250.797 443.438 252.687 437.262C254.281 432.005 255.91 427.88 256.995 425.146C258.876 420.431 261.007 415.821 263.379 411.333C265.509 407.236 267.639 403.681 269.573 400.669Z" fill="#F1FF7C"/>
<path d="M302.754 422.595L273.494 410.072L244.234 397.548C244.008 397.446 243.816 397.279 243.682 397.07C243.549 396.86 243.479 396.616 243.481 396.368C243.476 396.104 243.535 395.842 243.654 395.606C243.772 395.37 243.945 395.166 244.16 395.011L256.174 386.226L268.196 377.406C270.962 375.349 274.195 374.008 277.605 373.505C280.856 373.036 284.174 373.465 287.198 374.747C289.974 375.948 292.399 377.834 294.247 380.228C296.178 382.731 297.502 385.648 298.114 388.749L301.384 404.767L304.653 420.784C304.706 421.055 304.69 421.335 304.606 421.599C304.522 421.862 304.372 422.1 304.172 422.29C303.992 422.476 303.762 422.604 303.509 422.658C303.257 422.712 302.994 422.691 302.754 422.595Z" fill="#F98638"/>
<path d="M257.802 307.13L210.789 307.652L163.782 308.168C163.416 308.166 163.058 308.059 162.751 307.859C162.444 307.659 162.201 307.376 162.052 307.042C161.88 306.691 161.797 306.303 161.81 305.913C161.823 305.523 161.932 305.141 162.126 304.803L173.137 286.018L184.141 267.233C186.663 262.854 190.229 259.167 194.52 256.5C198.644 253.955 203.379 252.574 208.224 252.504C212.692 252.468 217.097 253.55 221.039 255.652C225.129 257.85 228.656 260.964 231.344 264.75L245.313 284.172L259.281 303.602C259.514 303.931 259.658 304.313 259.701 304.713C259.743 305.114 259.683 305.518 259.526 305.888C259.393 306.242 259.159 306.549 258.852 306.77C258.545 306.991 258.18 307.116 257.802 307.13Z" fill="#F98638"/>
<path d="M234.547 289.281C234.452 290.1 234.169 290.886 233.72 291.577C233.27 292.268 232.666 292.845 231.955 293.263C230.283 294.255 228.343 294.7 226.406 294.537C224.469 294.374 222.631 293.611 221.148 292.354C220.498 291.841 219.984 291.176 219.653 290.417C219.322 289.658 219.184 288.828 219.251 288.003C219.318 287.178 219.588 286.382 220.038 285.686C220.487 284.99 221.102 284.417 221.827 284.016C223.5 283.028 225.439 282.585 227.375 282.748C229.311 282.911 231.149 283.672 232.634 284.925C233.268 285.454 233.771 286.122 234.103 286.878C234.435 287.634 234.587 288.456 234.547 289.281Z" fill="#AD4D4D"/>
<path d="M245.205 298.412C245.146 298.912 244.972 299.392 244.696 299.813C244.421 300.234 244.051 300.586 243.617 300.841C242.596 301.446 241.412 301.719 240.229 301.62C239.046 301.522 237.923 301.057 237.016 300.291C236.619 299.977 236.306 299.569 236.104 299.104C235.903 298.638 235.82 298.131 235.862 297.626C235.904 297.121 236.071 296.634 236.347 296.209C236.623 295.784 236.999 295.434 237.443 295.19C238.466 294.587 239.65 294.317 240.833 294.416C242.015 294.516 243.137 294.981 244.044 295.746C244.431 296.07 244.737 296.48 244.938 296.943C245.139 297.405 245.23 297.908 245.205 298.412Z" fill="#AD4D4D"/>
<path d="M288.372 383.485C288.227 384 287.963 384.474 287.603 384.869C287.243 385.265 286.795 385.571 286.296 385.764C285.127 386.214 283.847 386.291 282.633 385.985C281.418 385.679 280.328 385.004 279.512 384.055C279.149 383.658 278.891 383.179 278.759 382.658C278.628 382.138 278.627 381.593 278.757 381.072C278.888 380.551 279.145 380.071 279.506 379.674C279.868 379.277 280.322 378.976 280.828 378.797C282.001 378.336 283.288 378.254 284.511 378.56C285.733 378.867 286.829 379.547 287.646 380.506C287.987 380.914 288.229 381.395 288.355 381.911C288.481 382.427 288.487 382.966 288.372 383.485Z" fill="#AD4D4D"/>
<path d="M275.502 388.417C275.404 388.763 275.227 389.082 274.985 389.348C274.742 389.614 274.441 389.82 274.105 389.95C273.315 390.261 272.447 390.317 271.623 390.11C270.8 389.903 270.062 389.444 269.512 388.797C269.267 388.53 269.092 388.207 269.003 387.856C268.914 387.505 268.913 387.138 269.001 386.786C269.089 386.435 269.263 386.111 269.508 385.844C269.752 385.577 270.059 385.375 270.401 385.255C271.189 384.932 272.06 384.875 272.884 385.093C273.71 385.291 274.449 385.75 274.994 386.402C275.229 386.675 275.397 387 275.485 387.349C275.574 387.699 275.58 388.065 275.502 388.417Z" fill="#AD4D4D"/>
<path d="M78.8853 316.648L52.0542 457.207L25.2095 597.767H141.754L114.916 457.207L88.0777 316.648C87.8717 315.58 87.3002 314.617 86.4614 313.925C85.6227 313.232 84.5691 312.854 83.4815 312.854C82.3939 312.854 81.3403 313.232 80.5016 313.925C79.6628 314.617 79.0914 315.58 78.8853 316.648V316.648Z" fill="#5B9900"/>
<path d="M94.638 262.273H94.543H94.448C92.1007 271.527 88.8783 280.516 85.5948 289.491C82.3113 298.466 78.9871 307.428 76.4362 316.627C73.8854 325.827 72.1894 335.521 72.1351 345.073C72.0808 354.625 73.6887 364.069 77.7523 372.684C79.7131 376.831 82.2008 380.707 85.1538 384.217C88.1056 387.729 91.4777 390.864 95.1943 393.552C98.5863 395.995 102.806 397.697 106.768 399.699C110.73 401.7 114.441 404 116.768 407.643C124.081 419.088 119.746 429.271 112.392 438.728C105.038 448.185 94.6448 456.916 89.8484 465.45C86.2325 471.875 84.3261 479.256 83.4781 486.806C82.7422 494.262 82.7422 501.772 83.4781 509.228C83.9768 515.284 84.8491 521.304 86.09 527.253C87.3451 533.257 89.0207 539.634 91.2459 547.545C92.3382 551.445 93.6068 555.909 95.2757 560.95C96.9446 565.99 99.0205 571.608 101.741 577.829C103.288 581.377 105.594 586.37 107.514 590.481C109.434 594.592 110.967 597.808 110.967 597.808H133.192C116.429 576.289 108.464 557.415 104.902 542.402C101.341 527.389 102.189 516.222 103.023 510.13C103.83 504.364 104.414 496.854 106.13 489.289C107.847 481.725 110.696 474.107 116.021 468.123C122.731 460.572 129.786 452.147 134.712 442.913C139.637 433.68 142.418 423.653 140.58 412.894C138.675 402.027 132.706 392.293 123.884 385.669C120.302 383.003 116.3 380.92 112.419 378.634C108.539 376.348 104.787 373.987 101.707 370.751C99.1508 368.028 97.1036 364.868 95.6624 361.423C94.1976 357.95 93.1941 354.301 92.6774 350.568C91.7448 343.414 92.0016 336.154 93.4372 329.083C94.8568 321.947 96.8557 314.938 99.414 308.127C101.877 301.343 104.624 294.593 107.066 287.775C109.599 281.008 111.55 274.038 112.901 266.941L103.769 264.6L94.638 262.273Z" fill="#83C00E"/>
<path d="M117.426 385.628C117.426 385.628 123.389 370.832 132.31 353.194C141.231 335.555 153.117 315.06 164.969 303.67C167.698 300.945 171.281 299.24 175.117 298.843C178.953 298.445 182.81 299.378 186.04 301.485C192.146 305.339 195.965 312.876 193.068 321.369C191.368 326.093 188.992 330.544 186.013 334.585C181.714 340.483 176.837 345.937 171.454 350.867L149.48 373.607L127.514 396.32C126.82 395.173 126.038 394.082 125.173 393.057C122.88 390.295 120.281 387.803 117.426 385.628V385.628Z" fill="#83C00E"/>
<path d="M122.086 390.079C121.999 390.078 121.912 390.064 121.828 390.038C121.742 390.01 121.662 389.966 121.591 389.909C121.501 389.845 121.425 389.763 121.367 389.668C121.308 389.574 121.269 389.469 121.252 389.36C121.234 389.249 121.238 389.137 121.265 389.028C121.292 388.92 121.34 388.818 121.408 388.729L148.083 352.346L174.758 315.969C174.823 315.879 174.905 315.803 174.999 315.745C175.093 315.687 175.198 315.648 175.308 315.63C175.418 315.612 175.531 315.617 175.639 315.644C175.747 315.67 175.849 315.719 175.938 315.786C176.028 315.851 176.105 315.933 176.163 316.027C176.221 316.121 176.26 316.226 176.278 316.336C176.296 316.446 176.292 316.559 176.265 316.667C176.238 316.776 176.189 316.878 176.122 316.967L149.447 353.35L122.771 389.733C122.691 389.842 122.587 389.93 122.466 389.991C122.348 390.048 122.218 390.078 122.086 390.079V390.079Z" fill="#5B9900"/>
<path d="M90.0859 276.343L95.6082 289.912L101.13 303.48C101.13 303.48 103.281 297.971 105.493 292.062C107.704 286.153 109.97 279.851 110.241 278.202L106.029 270.441L101.816 262.68L95.9678 269.498L90.0859 276.343Z" fill="#1F5D00"/>
<path d="M73.6684 220.022C70.1491 219.842 66.6516 220.67 63.5872 222.41C60.5971 224.092 58.1905 226.646 56.6878 229.73C55.1262 233.024 54.5829 236.709 55.1274 240.313C55.6342 244.039 57.5829 247.418 60.5547 249.723C62.7556 251.365 65.3751 252.352 68.1122 252.572C70.9758 252.791 73.8493 252.3 76.477 251.141C72.798 252.756 69.8271 255.648 68.1122 259.281C66.4093 262.829 66.0736 266.879 67.1692 270.658C68.3028 274.436 70.7689 277.673 74.1093 279.769C77.3414 281.87 81.2473 282.672 85.0453 282.015C88.4992 281.318 91.6002 279.434 93.8104 276.689C95.0105 275.278 96.002 273.702 96.7547 272.008C97.3614 274.021 98.2597 275.934 99.4208 277.687C101.553 281.064 104.753 283.631 108.512 284.98C112.21 286.231 116.206 286.307 119.949 285.197C123.74 284.141 127.02 281.748 129.183 278.46C130.677 276.068 131.51 273.322 131.598 270.502C131.666 268.814 131.516 267.125 131.15 265.475C133.862 268.694 137.354 271.163 141.292 272.646C144.914 274.025 148.877 274.231 152.622 273.236C154.425 272.744 156.148 271.995 157.737 271.011C160.53 269.337 162.68 266.773 163.843 263.732C165.012 260.473 165.012 256.909 163.843 253.651C163.283 251.957 162.473 250.357 161.441 248.902C165.493 250.182 169.874 249.941 173.761 248.223C177.446 246.626 180.376 243.672 181.943 239.974C183.352 236.447 183.369 232.516 181.99 228.977C180.742 225.605 178.529 222.674 175.627 220.551C173.604 219.118 171.286 218.156 168.842 217.736C167.305 217.458 165.74 217.372 164.182 217.478C165.695 216.39 167.063 215.114 168.252 213.679C170.094 211.494 171.313 208.852 171.78 206.033C172.519 201.162 170.715 196.067 167.438 192.112C164.161 188.157 159.399 185.328 154.236 184.982C150.374 184.795 146.557 185.871 143.361 188.048C141.536 189.234 139.883 190.665 138.45 192.302C138.612 190.139 138.498 187.964 138.111 185.83C137.557 182.581 136.112 179.549 133.938 177.072C129.868 172.601 123.355 170.627 116.944 171.041C110.533 171.455 104.244 174.25 100.662 179.317C98.5514 182.41 97.4105 186.061 97.3856 189.806C97.3272 192.128 97.5758 194.448 98.1251 196.705C95.8488 193.707 92.8301 191.355 89.3668 189.88C86.0943 188.47 82.4755 188.068 78.9735 188.727C74.2312 189.762 70.039 192.514 67.2031 196.454C64.4081 200.287 63.0648 204.995 64.1435 209.412C64.9418 212.378 66.6443 215.022 69.0145 216.976C70.4267 218.189 71.9912 219.213 73.6684 220.022Z" fill="#DEB8FC"/>
<path d="M105.703 219.092C102.909 218.193 99.9474 217.936 97.0398 218.339C95.5777 218.534 94.1755 219.045 92.9303 219.836C91.6851 220.626 90.6266 221.678 89.8283 222.919C87.4199 226.677 88.0441 230.829 90.2896 233.956C91.4289 235.571 92.9616 236.868 94.7425 237.724C96.5234 238.58 98.4934 238.967 100.466 238.848C100.255 238.848 99.9298 239.323 99.6313 239.811C99.3328 240.3 99.0547 240.829 98.9529 240.985C98.2281 242.173 97.7621 243.501 97.5856 244.881C97.4091 246.262 97.5259 247.664 97.9285 248.997C98.3517 250.324 99.0632 251.54 100.012 252.559C100.961 253.579 102.124 254.375 103.417 254.892C106.036 255.978 109.068 255.523 111.755 254.214C114.37 252.986 116.548 250.988 117.996 248.488C118.613 247.238 119.142 245.946 119.577 244.621C120.024 243.325 120.336 242.287 120.336 242.287C122.833 245.204 124.353 246.839 125.248 247.715C125.605 248.105 125.996 248.464 126.415 248.786C127.509 249.446 128.689 249.951 129.922 250.286C132.277 250.999 134.8 250.932 137.113 250.096C137.713 249.867 138.29 249.583 138.837 249.248C139.41 248.902 139.95 248.505 140.451 248.061C142.438 246.258 143.744 243.827 144.149 241.175C144.387 239.868 144.333 238.525 143.99 237.242C143.648 235.959 143.025 234.767 142.168 233.753C141.398 232.941 140.555 232.2 139.651 231.541C138.796 230.863 138.097 230.415 138.097 230.415L139.101 229.927L139.99 229.479C141.287 228.8 142.435 227.869 143.367 226.74C144.299 225.611 144.996 224.307 145.417 222.905C145.876 221.498 146.042 220.012 145.906 218.539C145.769 217.066 145.333 215.636 144.623 214.337C143.747 212.791 142.468 211.511 140.922 210.634C139.376 209.758 137.622 209.316 135.845 209.357C134.06 209.351 132.295 209.726 130.667 210.456C129.038 211.186 127.584 212.254 126.401 213.591C126.444 212.992 126.444 212.391 126.401 211.793C126.351 211.006 126.22 210.226 126.008 209.466C125.381 207.301 124.133 205.367 122.419 203.903C121.533 203.117 120.545 202.455 119.482 201.935C117.388 200.974 115.083 200.563 112.786 200.741C110.316 200.886 107.982 201.917 106.212 203.645C104.724 205.181 103.738 207.133 103.383 209.242C103.174 210.319 103.112 211.419 103.2 212.512C103.267 213.153 103.392 213.786 103.573 214.405C103.715 214.889 103.892 215.363 104.102 215.823C104.204 216.094 104.455 216.861 104.78 217.58C105.106 218.299 105.425 219.004 105.703 219.092Z" fill="#F98638"/>
<path d="M43.5941 441.55C37.2442 452.906 33.6215 465.097 33.038 476.739C32.4546 488.38 34.9036 499.459 40.6905 508.624C45.5954 516.358 52.6712 522.348 58.9533 526.588C63.2323 529.486 67.7564 532.003 72.474 534.112C78.1508 536.613 84.1033 538.435 90.2076 539.539L88.8508 528.006L87.494 516.514C87.494 516.514 71.4903 514.642 60.3576 504.303C49.2249 493.964 42.9157 475.253 62.3385 441.509H43.5941V441.55Z" fill="#83C00E"/>
<path d="M24.3275 420.899C22.1964 420.782 20.0766 421.281 18.2219 422.337C16.4226 423.354 14.9729 424.891 14.0632 426.747C13.1232 428.732 12.7972 430.953 13.127 433.124C13.3709 435.069 14.2832 436.868 15.7076 438.215C17.132 439.561 18.98 440.371 20.9355 440.505C22.6706 440.649 24.4142 440.36 26.01 439.664C23.7939 440.635 22.0036 442.375 20.9694 444.562C19.945 446.699 19.7422 449.138 20.3995 451.414C21.0822 453.689 22.567 455.639 24.5786 456.902C26.5259 458.166 28.8777 458.65 31.1659 458.259C33.2473 457.837 35.1162 456.702 36.4507 455.05C37.1727 454.199 37.769 453.249 38.2214 452.228C38.5867 453.443 39.1284 454.597 39.8292 455.654C41.1178 457.683 43.0434 459.227 45.304 460.043C47.5329 460.798 49.941 460.843 52.1966 460.172C54.4817 459.532 56.4578 458.086 57.7596 456.102C58.6588 454.659 59.1597 453.004 59.2114 451.305C59.2555 450.289 59.1643 449.272 58.94 448.28C60.5727 450.217 62.675 451.702 65.0457 452.594C67.2265 453.428 69.6142 453.554 71.8705 452.954C72.9564 452.65 73.9935 452.193 74.9505 451.597C76.6251 450.581 77.914 449.037 78.6139 447.208C79.3165 445.245 79.3165 443.099 78.6139 441.136C78.276 440.114 77.7891 439.147 77.1689 438.266C79.608 439.04 82.246 438.893 84.5839 437.853C86.8057 436.89 88.5719 435.11 89.516 432.88C90.3571 430.753 90.3571 428.386 89.516 426.259C88.7638 424.228 87.4308 422.463 85.6829 421.184C84.4688 420.324 83.0783 419.744 81.6125 419.488C80.686 419.323 79.7429 419.271 78.8039 419.332C79.7143 418.677 80.5373 417.909 81.2529 417.046C82.3598 415.728 83.0931 414.137 83.3763 412.439C83.5492 410.937 83.4061 409.415 82.9563 407.971C82.5065 406.527 81.76 405.193 80.7645 404.054C79.7955 402.841 78.5922 401.834 77.2263 401.095C75.8603 400.356 74.3596 399.9 72.8135 399.753C70.4793 399.641 68.1719 400.291 66.2397 401.605C65.1435 402.321 64.1486 403.181 63.2818 404.163C63.3808 402.861 63.3124 401.553 63.0783 400.269C62.7471 398.309 61.8754 396.481 60.5614 394.991C58.1191 392.277 54.1912 391.11 50.331 391.361C46.4708 391.612 42.6785 393.295 40.5076 396.347C39.2357 398.209 38.5483 400.409 38.5335 402.663C38.4972 404.061 38.6478 405.457 38.9812 406.815C37.6121 405.025 35.8 403.622 33.7235 402.745C31.7483 401.899 29.5654 401.663 27.455 402.066C24.5955 402.682 22.0679 404.342 20.3656 406.72C19.5107 407.809 18.9029 409.071 18.5842 410.418C18.2656 411.765 18.2438 413.166 18.5204 414.522C19.0008 416.311 20.0249 417.906 21.4511 419.088C22.3257 419.816 23.293 420.425 24.3275 420.899Z" fill="#DEB8FC"/>
<path d="M43.6281 420.336C41.942 419.8 40.1578 419.644 38.4044 419.881C37.5237 420.002 36.6795 420.312 35.93 420.789C35.1805 421.267 34.5434 421.902 34.0625 422.649C33.4149 423.649 33.0939 424.825 33.1437 426.014C33.1935 427.204 33.6118 428.349 34.3407 429.291C35.0237 430.261 35.9428 431.041 37.0111 431.558C38.0794 432.074 39.2617 432.31 40.4464 432.242C40.3175 432.242 40.1207 432.527 39.9443 432.819C39.768 433.11 39.5984 433.436 39.5441 433.497C39.1059 434.213 38.8244 435.014 38.7179 435.846C38.6115 436.679 38.6827 437.524 38.9267 438.327C39.1814 439.126 39.6097 439.858 40.181 440.472C40.7522 441.085 41.4521 441.565 42.2306 441.875C43.048 442.166 43.9176 442.282 44.7826 442.214C45.6477 442.146 46.4887 441.897 47.2508 441.482C48.8268 440.742 50.1402 439.54 51.016 438.036C51.384 437.28 51.7013 436.5 51.9658 435.702C52.2371 434.922 52.4203 434.298 52.4203 434.298C53.9264 436.055 54.8422 437.011 55.385 437.581C55.5921 437.815 55.8191 438.031 56.0634 438.226C56.7246 438.621 57.4367 438.925 58.18 439.128C59.5972 439.559 61.116 439.518 62.5083 439.013C63.2551 438.729 63.9445 438.313 64.5435 437.785C65.7372 436.698 66.5225 435.235 66.7687 433.64C66.9114 432.852 66.8784 432.043 66.672 431.271C66.4656 430.498 66.0909 429.78 65.5747 429.169C65.1124 428.672 64.606 428.218 64.0618 427.812C63.5462 427.425 63.1256 427.134 63.1256 427.134L63.7294 426.835L64.2653 426.564C65.0467 426.155 65.7381 425.594 66.2987 424.914C66.8592 424.233 67.2774 423.447 67.5285 422.602C67.8065 421.756 67.9077 420.862 67.826 419.975C67.7444 419.088 67.4815 418.227 67.0536 417.446C66.5254 416.515 65.7555 415.744 64.8251 415.215C63.8948 414.686 62.8388 414.419 61.7688 414.441C60.6934 414.438 59.6298 414.664 58.6485 415.104C57.6672 415.544 56.7906 416.187 56.0769 416.991C56.1051 416.632 56.1051 416.272 56.0769 415.913C56.0528 415.437 55.9755 414.966 55.8463 414.508C55.4634 413.206 54.7118 412.042 53.6821 411.157C53.149 410.684 52.5532 410.287 51.9115 409.977C50.65 409.394 49.2604 409.144 47.875 409.251C46.3889 409.339 44.9847 409.961 43.9198 411.001C43.0207 411.933 42.4248 413.116 42.2102 414.393C42.0911 415.042 42.0546 415.703 42.1017 416.36C42.1437 416.747 42.2209 417.128 42.3323 417.5C42.4167 417.792 42.521 418.078 42.6444 418.355C42.7055 418.518 42.8547 418.979 43.0311 419.407C43.2075 419.834 43.4517 420.288 43.6281 420.336Z" fill="#F98638"/>
<path d="M386.015 397.453L359.137 497.607L332.238 597.767H448.789L421.93 497.607L395.052 397.453C394.783 396.461 394.195 395.584 393.378 394.959C392.561 394.335 391.562 393.996 390.534 393.996C389.505 393.996 388.506 394.335 387.689 394.959C386.872 395.584 386.284 396.461 386.015 397.453Z" fill="#1F5D00"/>
<path d="M509.893 284.484L504.683 284.627L499.472 284.763C499.444 284.765 499.416 284.756 499.393 284.739C499.37 284.721 499.355 284.696 499.35 284.668C499.346 284.639 499.351 284.61 499.366 284.585C499.381 284.56 499.404 284.541 499.432 284.532C503.285 283.227 506.818 281.121 509.798 278.352C512.399 275.958 514.265 272.873 515.178 269.458C515.932 266.167 515.749 262.731 514.648 259.539C513.578 256.153 511.687 253.084 509.143 250.606C506.599 248.127 503.482 246.316 500.069 245.333C494.488 243.567 488.522 243.402 482.851 244.859C488.25 243.623 493.075 240.605 496.548 236.29C499.653 232.516 501.41 227.814 501.543 222.929C501.675 218.044 500.176 213.254 497.281 209.317C494.64 205.549 490.839 202.748 486.458 201.341C482.077 199.934 477.356 199.997 473.014 201.522C468.359 203.09 464.28 206.018 461.305 209.927C463.774 205.062 464.688 199.556 463.924 194.154C463.218 188.911 460.808 184.046 457.065 180.308C453.203 176.575 448.235 174.195 442.907 173.524C437.76 172.775 432.513 173.858 428.083 176.583C422.812 179.975 419.264 185.878 418.233 192.614C417.119 199.965 418.854 207.463 423.083 213.577C423.114 213.625 423.128 213.682 423.121 213.738C423.115 213.795 423.089 213.847 423.048 213.886C423.007 213.926 422.953 213.95 422.897 213.954C422.84 213.958 422.784 213.942 422.737 213.909C420.532 212.299 418.03 211.141 415.376 210.5C412.721 209.86 409.967 209.751 407.27 210.178C402.154 210.986 397.541 213.686 394.828 217.797C391.965 222.132 391.381 227.79 392.948 233.047C393.773 235.838 395.178 238.424 397.07 240.635C398.963 242.845 401.301 244.631 403.932 245.876C403.932 245.876 403.932 245.876 403.932 245.876C400.603 245.184 397.17 245.158 393.831 245.798C390.492 246.439 387.312 247.733 384.475 249.607C379.238 253.061 375.656 258.264 374.889 263.773C374.211 268.562 375.73 273.671 378.817 278.019C382.114 282.63 386.856 286.008 392.29 287.619L386.931 287.761L381.578 287.904C378.067 287.996 374.609 288.779 371.401 290.208C368.193 291.637 365.298 293.685 362.881 296.233C360.465 298.781 358.574 301.781 357.316 305.06C356.059 308.34 355.461 311.835 355.554 315.345V315.345C355.744 322.435 358.742 329.158 363.888 334.038C369.034 338.918 375.907 341.555 382.996 341.369L405.044 340.786L427.1 340.202C427.649 368.017 428.205 418.043 428.755 468.055C429.304 518.068 429.867 568.094 430.417 595.915L450.769 596.248L471.122 596.573C470.443 568.46 469.826 518.156 469.175 467.852C468.523 417.548 467.879 367.244 467.234 339.13L489.283 338.547L511.338 337.977C518.427 337.788 525.151 334.791 530.03 329.645C534.909 324.498 537.544 317.624 537.355 310.535C537.166 303.446 534.169 296.723 529.022 291.844C523.876 286.964 517.002 284.329 509.913 284.518L509.893 284.484Z" fill="#5B9900"/>
<path d="M411.781 246.765H402.535C402.366 246.767 402.201 246.719 402.06 246.626C401.92 246.533 401.81 246.401 401.746 246.245C401.682 246.089 401.665 245.918 401.7 245.753C401.734 245.588 401.817 245.437 401.938 245.32C402.015 245.24 402.108 245.176 402.21 245.133C402.313 245.09 402.423 245.068 402.535 245.069H411.781C411.95 245.069 412.114 245.118 412.254 245.212C412.394 245.306 412.503 245.439 412.567 245.594C412.631 245.75 412.648 245.921 412.614 246.086C412.58 246.251 412.498 246.402 412.378 246.521C412.219 246.676 412.005 246.764 411.781 246.765V246.765Z" fill="#1F5D00"/>
<path d="M500.429 285.909H471.61C471.499 285.91 471.389 285.888 471.286 285.845C471.183 285.802 471.091 285.738 471.013 285.658C470.933 285.581 470.87 285.488 470.827 285.385C470.784 285.283 470.762 285.172 470.762 285.061C470.762 284.836 470.852 284.62 471.011 284.461C471.17 284.302 471.385 284.213 471.61 284.213H500.429C500.652 284.214 500.866 284.302 501.026 284.457C501.106 284.536 501.169 284.63 501.212 284.734C501.255 284.838 501.277 284.949 501.277 285.061C501.278 285.172 501.256 285.283 501.212 285.385C501.169 285.488 501.106 285.581 501.026 285.658C500.948 285.737 500.855 285.8 500.753 285.843C500.65 285.886 500.54 285.909 500.429 285.909V285.909Z" fill="#1F5D00"/>
<path d="M533.888 455.749L532.409 455.79L530.931 455.83C532.473 454.615 533.77 453.116 534.75 451.414C535.702 449.749 536.283 447.897 536.453 445.987C536.535 444.554 536.423 443.116 536.12 441.713C535.635 439.067 534.185 436.695 532.05 435.057C529.759 433.5 526.975 432.839 524.228 433.199C521.037 433.578 518.03 434.893 515.585 436.977C517.841 435.374 519.477 433.043 520.218 430.376C520.894 428.014 520.756 425.493 519.826 423.219C518.895 420.945 517.227 419.05 515.09 417.838C512.952 416.627 510.469 416.17 508.04 416.54C505.611 416.911 503.377 418.088 501.698 419.881C499.76 421.909 498.587 424.547 498.38 427.344C499.247 424.284 499.109 421.026 497.987 418.05C496.953 415.249 494.973 412.898 492.39 411.401C490.79 410.536 489.022 410.027 487.207 409.91C485.392 409.793 483.573 410.07 481.875 410.723C478.418 411.931 475.54 414.39 473.808 417.616C472.957 419.309 472.458 421.157 472.341 423.048C472.225 424.939 472.493 426.835 473.13 428.619C474.455 432.462 477.238 435.629 480.877 437.439C479.18 436.82 477.37 436.568 475.568 436.7C473.766 436.833 472.012 437.345 470.423 438.205C468.959 438.954 467.678 440.016 466.67 441.315C465.662 442.614 464.951 444.118 464.589 445.722C464.185 447.928 464.481 450.206 465.437 452.235C466.431 454.387 468.008 456.217 469.989 457.52L466.943 457.601L463.897 457.682C462.619 457.716 461.36 458.002 460.192 458.522C459.025 459.042 457.971 459.788 457.091 460.715C456.211 461.643 455.523 462.735 455.065 463.928C454.607 465.122 454.389 466.394 454.423 467.672C454.457 468.95 454.742 470.209 455.262 471.377C455.783 472.544 456.528 473.598 457.456 474.478C458.383 475.358 459.475 476.046 460.669 476.504C461.862 476.962 463.134 477.18 464.412 477.146L475.945 476.841L487.478 476.535L488.415 537.192L489.425 597.808H507.166L506.182 536.914L505.232 475.986L519.839 475.599L534.445 475.213C535.723 475.178 536.981 474.893 538.149 474.372C539.317 473.851 540.37 473.105 541.25 472.178C542.129 471.25 542.817 470.158 543.274 468.964C543.732 467.77 543.95 466.498 543.915 465.22C543.881 463.942 543.595 462.683 543.075 461.515C542.554 460.348 541.808 459.294 540.88 458.415C539.952 457.535 538.86 456.847 537.666 456.39C536.473 455.932 535.2 455.715 533.922 455.749H533.888Z" fill="#7DBA07"/>
<path d="M505.198 475.986H499.751H494.296L500.029 481.718L505.755 487.444L505.477 481.718L505.198 475.986Z" fill="#1F5D00"/>
<path d="M452.852 457.465C451.443 463.291 450.847 469.284 451.081 475.274C451.3 481.286 452.55 487.216 454.779 492.804C456.294 496.511 458.29 500.003 460.715 503.19C463.135 506.381 466.005 509.203 469.236 511.569C472.646 514.091 476.618 515.748 480.809 516.399C484.792 517.023 488.95 516.819 493.489 516.277C496.475 515.847 499.513 515.929 502.471 516.521C505.428 517.142 508.094 518.729 510.049 521.032C511.95 523.379 513.291 526.129 513.97 529.072C514.668 532.008 515.025 535.015 515.035 538.033L515.239 545.245L515.449 552.45L522.633 552.361L529.818 552.273C530.225 552.273 530.198 548.488 530.048 544.539C529.899 540.591 529.628 536.459 529.546 535.761C529.117 532.016 528.345 528.319 527.24 524.716C526.144 521.11 524.589 517.661 522.613 514.452C521.155 512.096 519.382 509.95 517.342 508.075C515.312 506.188 512.965 504.675 510.408 503.604C507.484 502.489 504.372 501.952 501.243 502.023C498.109 502.023 494.941 502.308 491.861 502.424C488.703 502.563 485.544 502.178 482.512 501.284C479.479 500.393 476.671 498.864 474.276 496.8C466.814 490.266 465.009 480.999 465.654 471.359C466.298 461.719 469.392 451.719 471.719 443.707C472.865 439.772 474.154 435.471 475.592 430.817C477.031 426.164 478.611 421.245 480.341 416.008L473.489 413.538L466.631 411.062C464.853 416.037 463.123 421.155 461.441 426.415C459.758 431.674 458.144 437.12 456.597 442.751C455.914 445.238 455.256 447.705 454.623 450.152C453.99 452.599 453.399 455.037 452.852 457.465Z" fill="#83C00E"/>
<path d="M467.153 461.068L468.062 457.323L468.978 453.578C469.039 453.354 469.086 453.171 469.127 453.008L469.236 452.574C469.317 452.255 469.425 451.814 469.595 451.217C469.765 450.62 469.989 449.799 470.273 448.741C471.488 444.514 472.309 441.957 472.987 439.854C473.666 437.751 474.222 435.973 474.853 433.307C475.246 431.645 475.368 430.899 475.531 429.983C475.694 429.067 475.864 427.948 476.366 425.6C476.922 422.982 477.485 420.621 478.014 418.565C478.543 416.51 479.039 414.766 479.446 413.382L471.128 412.025L462.811 410.669C462.248 413.063 461.508 416.191 460.735 419.488C459.962 422.785 459.141 426.272 458.415 429.359C456.699 436.679 455.403 442.249 454.344 447.16C453.286 452.072 452.553 456.427 451.902 461.339C451.733 462.628 451.583 463.808 451.468 464.84C451.353 465.871 451.251 466.753 451.176 467.451L463.021 462.703L467.092 461.081L467.153 461.068Z" fill="#1F5D00"/>
<path d="M457.35 483.903C455.834 483.197 454.24 482.673 452.601 482.343C451.059 482.029 449.485 481.904 447.913 481.97C448.083 479.578 447.734 477.178 446.889 474.934C445.948 472.493 444.415 470.323 442.426 468.623C440.437 466.922 438.057 465.743 435.498 465.192C432.804 464.618 430.009 464.709 427.358 465.457C427.266 463.887 426.91 462.343 426.306 460.891C425.67 459.353 424.783 457.932 423.681 456.685C421.315 453.978 418.03 452.245 414.461 451.821C412.793 451.605 411.098 451.748 409.491 452.242C407.883 452.736 406.4 453.569 405.142 454.684C403.883 455.8 402.878 457.172 402.194 458.708C401.51 460.245 401.164 461.91 401.178 463.591C401.161 467.185 402.484 470.656 404.889 473.327C406.188 474.796 407.765 475.995 409.529 476.854C411.189 477.651 412.989 478.112 414.827 478.211C414.061 481.087 414.061 484.114 414.827 486.99C415.582 489.778 417.088 492.305 419.18 494.297C421.272 496.289 423.871 497.668 426.693 498.285C429.365 498.861 432.138 498.78 434.773 498.048C435.463 500.544 436.716 502.848 438.436 504.784C440.322 506.925 442.632 508.65 445.22 509.852C449.259 511.796 453.842 512.297 458.205 511.27C462.173 510.259 465.457 507.837 467.133 504.255C468.808 500.673 468.537 496.596 466.766 492.905C464.746 488.918 461.424 485.742 457.35 483.903Z" fill="#83C00E"/>
<path d="M458.422 500.069C458.354 500.08 458.286 500.08 458.218 500.069C458.15 500.054 458.083 500.028 458.022 499.995C455.023 498.394 452.058 496.709 449.128 494.941C446.197 493.172 443.323 491.341 440.505 489.446C433.753 484.873 427.289 479.888 421.15 474.521C414.975 469.121 409.134 463.351 403.661 457.241C403.512 457.071 403.435 456.85 403.444 456.624C403.45 456.513 403.479 456.404 403.527 456.304C403.576 456.204 403.645 456.114 403.728 456.041C403.811 455.967 403.908 455.91 404.013 455.874C404.117 455.838 404.228 455.823 404.339 455.83C404.45 455.834 404.559 455.861 404.66 455.909C404.76 455.956 404.85 456.024 404.922 456.109C410.35 462.165 416.141 467.885 422.263 473.238C428.352 478.554 434.764 483.489 441.462 488.014C444.25 489.893 447.106 491.718 450.01 493.441C452.913 495.165 455.857 496.833 458.829 498.448C459.028 498.554 459.176 498.735 459.243 498.95C459.278 499.062 459.291 499.179 459.281 499.295C459.27 499.412 459.237 499.525 459.182 499.629C459.106 499.764 458.996 499.876 458.863 499.954C458.729 500.032 458.577 500.072 458.422 500.069V500.069Z" fill="#5B9900"/>
<path d="M502.45 366.796C517.667 351.301 520.924 339.531 517.023 335.732C513.122 331.932 502.098 336.098 488.652 352.475C494.432 331.342 491.012 319.843 485.307 319.585C479.602 319.328 471.61 330.311 468.252 354.184C462.336 330.555 453.089 320.515 447.459 321.621C441.828 322.726 439.82 335.046 448.374 356.111C432.886 340.894 421.116 337.638 417.31 341.539C413.504 345.44 417.676 356.464 434.053 369.91C412.921 364.13 401.422 367.549 401.164 373.254C400.906 378.96 411.896 386.951 435.729 390.31C412.1 396.225 402.059 405.472 403.165 411.103C404.271 416.734 416.598 418.742 437.656 410.187C422.439 425.675 419.182 437.445 423.083 441.251C426.984 445.057 438.008 440.885 451.454 424.501C445.674 445.641 449.094 457.14 454.799 457.398C460.504 457.655 468.496 446.665 471.854 422.799C477.77 446.428 487.017 456.468 492.647 455.362C498.278 454.257 500.286 441.93 491.732 420.872C507.226 436.082 518.997 439.345 522.796 435.444C526.595 431.543 522.43 420.519 506.053 407.073C527.185 412.853 538.684 409.427 538.942 403.729C539.2 398.03 528.216 390.031 504.343 386.673C527.972 380.758 538.013 371.511 536.907 365.88C535.801 360.249 523.549 358.241 502.45 366.796Z" fill="#F98638"/>
<path d="M482.913 388.776C482.998 392.112 481.924 395.373 479.874 398.006C477.825 400.638 474.926 402.478 471.671 403.213C468.417 403.948 465.008 403.532 462.026 402.036C459.044 400.539 456.673 398.055 455.317 395.007C453.961 391.959 453.703 388.535 454.588 385.318C455.474 382.101 457.447 379.291 460.171 377.365C462.896 375.44 466.204 374.519 469.532 374.759C472.86 374.999 476.001 376.385 478.422 378.682C479.799 379.985 480.904 381.548 481.675 383.281C482.446 385.013 482.866 386.881 482.913 388.776Z" fill="#DEB8FC"/>
<path d="M372.094 540.143H371.993C371.881 540.13 371.774 540.096 371.676 540.041C371.578 539.986 371.492 539.912 371.423 539.824C371.354 539.737 371.304 539.636 371.275 539.529C371.246 539.422 371.238 539.31 371.253 539.2L380.697 461.861L390.147 384.523C390.175 384.3 390.289 384.098 390.466 383.96C390.645 383.825 390.867 383.763 391.09 383.783C391.314 383.812 391.518 383.926 391.66 384.102C391.729 384.19 391.78 384.292 391.809 384.4C391.839 384.509 391.845 384.622 391.829 384.733L382.386 462.072L372.942 539.404C372.918 539.612 372.816 539.803 372.657 539.94C372.5 540.073 372.3 540.145 372.094 540.143V540.143Z" fill="#5B9900"/>
<path d="M372.095 540.143C371.878 540.142 371.67 540.06 371.511 539.913C371.355 539.765 371.26 539.564 371.247 539.349L364.123 431.116L356.925 322.882C356.911 322.657 356.987 322.435 357.136 322.265C357.209 322.181 357.298 322.112 357.398 322.064C357.499 322.015 357.608 321.986 357.719 321.98C357.829 321.971 357.94 321.985 358.045 322.02C358.15 322.055 358.247 322.11 358.33 322.184C358.497 322.335 358.601 322.543 358.621 322.767L365.779 431.007L372.943 539.248C372.951 539.358 372.938 539.469 372.903 539.574C372.868 539.679 372.812 539.775 372.739 539.858C372.589 540.026 372.38 540.131 372.156 540.15H372.101L372.095 540.143Z" fill="#5B9900"/>
<path d="M395.486 285.739C395.717 294.489 392.907 303.049 387.535 309.959C382.163 316.87 374.561 321.704 366.025 323.638C357.488 325.572 348.545 324.486 340.719 320.566C332.893 316.646 326.668 310.134 323.105 302.139C319.543 294.144 318.862 285.161 321.179 276.72C323.497 268.28 328.669 260.904 335.815 255.849C342.961 250.795 351.639 248.374 360.369 249C369.1 249.626 377.343 253.259 383.695 259.281C387.307 262.697 390.208 266.793 392.232 271.333C394.255 275.874 395.361 280.77 395.486 285.739Z" fill="#DEB8FC"/>
<path d="M410.689 368.804C410.794 372.767 409.522 376.644 407.089 379.775C404.656 382.905 401.213 385.095 397.346 385.971C393.48 386.847 389.429 386.356 385.884 384.58C382.339 382.805 379.52 379.855 377.906 376.234C376.292 372.612 375.984 368.543 377.034 364.72C378.083 360.897 380.426 357.556 383.663 355.267C386.9 352.978 390.831 351.882 394.785 352.165C398.74 352.449 402.473 354.095 405.35 356.823C406.986 358.369 408.301 360.224 409.217 362.28C410.133 364.336 410.634 366.554 410.689 368.804Z" fill="#DEB8FC"/>
<path d="M385.574 285.936C383.546 285.913 381.578 285.238 379.964 284.01C378.269 282.741 376.995 280.992 376.307 278.989C374.294 280.009 372.036 280.446 369.788 280.251C367.657 280.076 365.638 279.223 364.028 277.816C362.677 276.584 361.695 275.001 361.192 273.243C360.865 272.142 360.698 271 360.697 269.851C360.699 269.627 360.789 269.412 360.947 269.253C361.106 269.095 361.321 269.005 361.545 269.003V269.003C361.656 269.002 361.767 269.024 361.869 269.067C361.972 269.11 362.065 269.174 362.142 269.254C362.222 269.333 362.285 269.427 362.328 269.531C362.371 269.635 362.393 269.746 362.393 269.858C362.397 270.818 362.536 271.773 362.807 272.694C363.213 274.165 364.027 275.491 365.154 276.52C366.629 277.791 368.499 278.51 370.446 278.555C372.54 278.624 374.608 278.072 376.389 276.968L376.891 276.662L377.393 276.357L377.528 276.927L377.657 277.504C378.141 279.642 379.403 281.524 381.199 282.782C382.031 283.387 382.98 283.812 383.986 284.029C384.992 284.246 386.032 284.251 387.04 284.043C388.616 283.664 390.022 282.772 391.035 281.506C392.119 280.173 392.785 278.549 392.949 276.839C392.962 276.67 393.026 276.509 393.132 276.378C393.238 276.246 393.381 276.149 393.543 276.1C393.705 276.051 393.878 276.052 394.039 276.102C394.201 276.153 394.343 276.251 394.448 276.384C394.59 276.557 394.658 276.779 394.638 277.002C394.438 279.067 393.625 281.025 392.304 282.626C391.056 284.163 389.334 285.244 387.406 285.699C387.104 285.765 386.798 285.815 386.49 285.848C386.187 285.894 385.881 285.924 385.574 285.936V285.936Z" fill="#5B9900"/>
<path d="M337.428 303.5C336.427 303.489 335.448 303.202 334.599 302.673C334.069 302.351 333.589 301.953 333.174 301.492C333.099 301.41 333.041 301.313 333.004 301.209C332.967 301.104 332.951 300.993 332.957 300.882C332.97 300.658 333.07 300.449 333.235 300.298C333.319 300.223 333.416 300.165 333.522 300.128C333.628 300.091 333.74 300.075 333.852 300.081C334.075 300.095 334.285 300.194 334.436 300.359C334.731 300.691 335.074 300.976 335.453 301.207C336.043 301.587 336.727 301.794 337.428 301.804C338.334 301.785 339.205 301.449 339.89 300.854C340.635 300.219 341.177 299.379 341.45 298.439L341.613 297.869L341.783 297.306L342.265 297.646L342.746 297.985C343.606 298.582 344.663 298.825 345.697 298.663C346.602 298.527 347.416 298.039 347.963 297.306C348.382 296.696 348.583 295.962 348.533 295.224C348.488 294.435 348.215 293.675 347.746 293.039C347.679 292.95 347.63 292.848 347.604 292.74C347.577 292.631 347.572 292.518 347.59 292.408C347.606 292.298 347.643 292.192 347.7 292.096C347.757 292.001 347.833 291.918 347.923 291.852C348.104 291.719 348.331 291.663 348.553 291.696C348.776 291.732 348.975 291.854 349.11 292.035C349.788 292.957 350.177 294.06 350.229 295.203C350.3 296.367 349.947 297.516 349.236 298.44C348.526 299.364 347.505 300 346.362 300.23C345.132 300.507 343.846 300.374 342.699 299.85C342.215 300.898 341.461 301.797 340.514 302.455C339.615 303.092 338.543 303.44 337.441 303.453H337.407L337.428 303.5Z" fill="#5B9900"/>
<path d="M402.412 382.644C402.243 382.644 402.08 382.644 401.917 382.644C401.754 382.644 401.591 382.596 401.429 382.562C400.233 382.295 399.179 381.594 398.471 380.595C397.73 379.573 397.344 378.336 397.372 377.074C396.219 377.04 395.096 376.703 394.115 376.097C393.177 375.517 392.435 374.669 391.985 373.661C391.59 372.734 391.463 371.713 391.619 370.717C391.708 370.099 391.884 369.496 392.141 368.926C392.187 368.826 392.253 368.736 392.335 368.661C392.416 368.586 392.512 368.529 392.616 368.492C392.774 368.431 392.946 368.42 393.11 368.458C393.275 368.497 393.424 368.584 393.538 368.708C393.652 368.833 393.726 368.989 393.75 369.156C393.775 369.323 393.748 369.493 393.674 369.645C393.492 370.051 393.366 370.48 393.301 370.921C393.189 371.608 393.271 372.313 393.539 372.956C393.913 373.782 394.566 374.449 395.384 374.842C396.263 375.273 397.248 375.44 398.22 375.323L398.81 375.256L399.393 375.181L399.271 375.758L399.149 376.341C398.924 377.365 399.109 378.437 399.665 379.326C400.14 380.104 400.903 380.662 401.788 380.88C402.514 381.022 403.266 380.917 403.925 380.581C404.635 380.231 405.225 379.679 405.621 378.994C405.677 378.899 405.752 378.815 405.84 378.749C405.929 378.683 406.03 378.634 406.137 378.607C406.249 378.571 406.368 378.56 406.486 378.576C406.603 378.591 406.715 378.632 406.815 378.695C406.912 378.75 406.997 378.824 407.064 378.913C407.132 379.001 407.181 379.103 407.209 379.211C407.241 379.324 407.249 379.442 407.234 379.559C407.219 379.676 407.18 379.788 407.12 379.889C406.623 380.728 405.924 381.428 405.085 381.924C404.276 382.402 403.352 382.651 402.412 382.644Z" fill="#5B9900"/>
<path d="M545.075 597.774H443.355H341.634V558.467V519.16H443.355H545.075V558.467V597.774Z" fill="#F98638"/>
<path d="M545.075 545.57H341.634C341.523 545.573 341.413 545.552 341.31 545.51C341.207 545.468 341.114 545.405 341.037 545.326C340.957 545.248 340.893 545.154 340.85 545.051C340.807 544.948 340.785 544.838 340.785 544.726C340.785 544.614 340.807 544.503 340.85 544.4C340.893 544.297 340.957 544.204 341.037 544.125C341.114 544.045 341.207 543.982 341.309 543.939C341.412 543.895 341.522 543.874 341.634 543.874H545.075C545.187 543.874 545.299 543.896 545.402 543.939C545.506 543.982 545.6 544.046 545.679 544.125C545.835 544.286 545.923 544.502 545.923 544.726C545.923 544.95 545.835 545.165 545.679 545.326C545.6 545.405 545.505 545.467 545.402 545.509C545.298 545.551 545.187 545.572 545.075 545.57Z" fill="#AD4D4D"/>
<path d="M545.076 572.612H341.634C341.523 572.613 341.412 572.591 341.31 572.548C341.207 572.505 341.114 572.441 341.037 572.361C340.919 572.242 340.84 572.092 340.807 571.928C340.775 571.764 340.792 571.594 340.856 571.44C340.919 571.286 341.027 571.154 341.166 571.06C341.304 570.967 341.467 570.917 341.634 570.916H545.076C545.243 570.915 545.407 570.965 545.547 571.058C545.686 571.15 545.795 571.282 545.86 571.437C545.924 571.591 545.941 571.762 545.909 571.926C545.877 572.091 545.797 572.242 545.679 572.361C545.6 572.441 545.506 572.504 545.403 572.547C545.299 572.59 545.188 572.612 545.076 572.612Z" fill="#AD4D4D"/>
<path d="M547.001 151.136H299.348L299.226 151.014L299.104 150.885L223.447 75.4324L147.798 0H408.416L477.709 75.5681L547.001 151.136ZM300.06 149.44H543.148L475.382 75.5681L407.67 1.69602H151.909L225.978 75.5681L300.06 149.44Z" fill="#5B9900"/>
<path d="M383.024 151.136C382.911 151.137 382.8 151.114 382.698 151.068C382.591 151.024 382.495 150.96 382.413 150.878L310.298 76.1583L238.183 1.43823C238.025 1.27826 237.937 1.06257 237.937 0.837834C237.937 0.6131 238.025 0.397408 238.183 0.237442C238.348 0.0856064 238.563 0.00089492 238.787 0C238.898 0.00260188 239.007 0.0273425 239.109 0.0727751C239.21 0.118208 239.301 0.183418 239.377 0.264579L311.519 74.9779L383.634 149.698C383.792 149.858 383.881 150.074 383.881 150.298C383.881 150.523 383.792 150.739 383.634 150.899C383.553 150.974 383.459 151.033 383.356 151.075C383.251 151.118 383.137 151.139 383.024 151.136V151.136Z" fill="#5B9900"/>
<path d="M466.821 151.136C466.708 151.138 466.597 151.115 466.495 151.068C466.387 151.026 466.29 150.961 466.21 150.878L394.095 76.1583L321.98 1.43823C321.822 1.27826 321.734 1.06257 321.734 0.837834C321.734 0.6131 321.822 0.397408 321.98 0.237442C322.145 0.0856064 322.36 0.00089492 322.584 0C322.808 0.0067537 323.02 0.101874 323.174 0.264579L395.33 74.9779L467.445 149.698C467.599 149.861 467.685 150.077 467.682 150.302C467.675 150.526 467.583 150.739 467.424 150.899C467.343 150.974 467.249 151.033 467.146 151.075C467.043 151.117 466.932 151.137 466.821 151.136V151.136Z" fill="#5B9900"/>
<path d="M475.898 76.416H224.777C224.665 76.4178 224.554 76.3972 224.451 76.3552C224.347 76.3132 224.253 76.2508 224.174 76.1717C224.094 76.0926 224.032 75.9984 223.99 75.8947C223.948 75.791 223.927 75.6799 223.929 75.568C223.938 75.349 224.031 75.1419 224.189 74.9902C224.347 74.8384 224.558 74.7537 224.777 74.7539H475.898C476.115 74.7571 476.323 74.8431 476.479 74.9944C476.636 75.1456 476.728 75.3507 476.739 75.568C476.739 75.7929 476.649 76.0086 476.49 76.1676C476.331 76.3267 476.116 76.416 475.891 76.416H475.898Z" fill="#5B9900"/>
<path d="M158.151 75.4663C166.556 66.9116 168.327 60.4124 166.197 58.3161C164.067 56.2198 157.941 58.5128 150.532 67.5628C153.728 55.8942 151.835 49.5443 148.687 49.4018C145.539 49.2593 141.13 55.3243 139.271 68.4855C136.008 55.4396 130.899 49.8903 127.792 50.5144C124.685 51.1385 123.572 57.9294 128.294 69.5574C119.746 61.1586 113.247 59.3812 111.144 61.5114C109.041 63.6416 111.347 69.7677 120.391 77.1759C108.722 73.9874 102.372 75.8734 102.23 79.0212C102.087 82.169 108.152 86.5854 121.313 88.4375C108.267 91.7074 102.725 96.8091 103.349 99.923C103.973 103.037 110.764 104.136 122.392 99.4142C113.993 107.969 112.216 114.468 114.346 116.564C116.476 118.661 122.609 116.368 130.01 107.318C126.815 118.986 128.708 125.336 131.856 125.479C135.003 125.621 139.42 119.556 141.272 106.395C144.542 119.441 149.644 124.983 152.751 124.366C155.858 123.749 156.97 116.951 152.249 105.323C160.797 113.722 167.296 115.499 169.399 113.369C171.502 111.239 169.195 105.113 160.152 97.7046C171.821 100.893 178.171 99.0071 178.313 95.8525C178.456 92.6979 172.391 88.3222 159.243 86.443C172.289 83.173 177.832 78.0646 177.207 74.9575C176.583 71.8504 169.779 70.7446 158.151 75.4663Z" fill="#DEB8FC"/>
<path d="M152.879 87.1078C152.957 90.0262 152.019 92.8812 150.228 95.1861C148.436 97.491 145.9 99.1033 143.053 99.7482C140.205 100.393 137.222 100.031 134.612 98.7227C132.002 97.4148 129.926 95.2422 128.739 92.5753C127.551 89.9084 127.324 86.9121 128.098 84.097C128.872 81.2819 130.598 78.8223 132.982 77.1372C135.366 75.452 138.261 74.6457 141.173 74.8557C144.085 75.0656 146.834 76.2788 148.951 78.2884C150.155 79.4268 151.122 80.7921 151.796 82.3057C152.47 83.8193 152.839 85.4513 152.879 87.1078Z" fill="#F98638"/>
<path d="M331.118 487.539L349.761 487.37L368.397 487.227C374.095 486.256 379.24 483.232 382.861 478.727C386.474 474.272 388.322 468.643 388.051 462.913C387.745 456.882 385.133 452.533 381.063 449.637C376.993 446.74 371.463 445.302 365.337 445.105L359.232 445.268L353.126 445.43C355.222 445.43 357.305 445.586 359.395 445.742C361.491 445.942 363.599 445.998 365.704 445.912C369.173 445.754 372.601 445.094 375.88 443.952C379.168 442.854 382.076 440.845 384.265 438.158C386.349 435.27 387.283 431.71 386.884 428.172C386.591 424.619 385.269 421.228 383.078 418.416C379.896 414.454 375.29 412.195 370.297 410.988C365.323 409.899 360.219 409.529 355.141 409.889C355.046 409.889 354.32 409.889 353.615 409.963C353.14 409.948 352.666 410.019 352.217 410.173H352.068C351.993 410.173 351.918 410.173 351.912 410.173C351.905 410.173 354.707 409.407 358.329 407.894C361.952 406.381 366.389 404.027 369.611 400.567C371.723 398.268 373.321 395.546 374.299 392.582C375.412 389.484 375.412 386.095 374.299 382.996C373.488 381.001 372.2 379.235 370.548 377.854C369.533 376.997 368.425 376.257 367.244 375.649C360.806 372.216 353.167 372.841 347.02 374.415C343.077 375.386 339.283 376.882 335.738 378.865C337.095 369.143 336.261 360.46 333.846 353.764C331.431 347.068 327.441 342.394 322.503 340.67C320.321 339.936 317.994 339.736 315.719 340.087C314.532 340.252 313.37 340.562 312.259 341.01C307.435 343.045 303.717 347.882 301.682 354.578C299.647 361.274 299.274 369.842 301.146 379.265C296.599 378.061 291.933 377.363 287.232 377.182C280.448 376.986 272.931 378.18 268.854 383.451C268.485 383.927 268.15 384.428 267.85 384.95C267.53 385.522 267.246 386.113 267.002 386.721C266.462 388.345 266.154 390.037 266.086 391.748C266.047 392.96 266.161 394.173 266.425 395.357C267.246 399.048 269.566 402.406 273.013 405.16C276.959 408.164 281.509 410.28 286.35 411.361C288.799 411.578 290.896 411.897 292.381 412.154C293.867 412.412 294.735 412.616 294.735 412.616C293.256 412.528 291.818 412.372 290.421 412.161C289.023 411.951 287.666 411.68 286.35 411.361C281.601 410.94 275.57 410.872 270.068 412.243C264.566 413.613 259.58 416.428 257.002 421.74C255.579 424.702 255.083 428.024 255.577 431.272C256.061 434.541 257.474 437.603 259.648 440.091C261.906 442.662 264.68 444.728 267.789 446.156C272.337 448.176 277.237 449.285 282.212 449.419V449.419L275.713 449.596L269.214 449.765C264.15 449.908 259.318 451.915 255.645 455.403C251.969 458.869 249.78 463.626 249.54 468.673C249.408 471.401 249.841 474.128 250.811 476.682C251.781 479.235 253.268 481.562 255.178 483.514C257.089 485.467 259.381 487.005 261.913 488.032C264.445 489.058 267.161 489.551 269.892 489.48L284.817 488.944L299.742 488.401L299.939 542.674L300.135 596.946H331.22C331.22 585.8 331.179 564.023 331.159 542.246C331.139 520.469 331.139 498.686 331.118 487.539Z" fill="#83C00E"/>
<path d="M331.152 487.498H322.387H313.622L322.387 501.04L331.152 514.581V501.04V487.498Z" fill="#1F5D00"/>
<path d="M352.217 411.164H344.076C343.806 411.164 343.547 411.057 343.356 410.866C343.166 410.675 343.058 410.416 343.058 410.146C343.058 410.013 343.084 409.88 343.136 409.757C343.187 409.633 343.262 409.521 343.357 409.427C343.45 409.331 343.562 409.256 343.686 409.204C343.809 409.153 343.942 409.127 344.076 409.129H352.217C352.351 409.127 352.483 409.153 352.607 409.204C352.731 409.256 352.843 409.331 352.936 409.427C353.031 409.521 353.106 409.633 353.157 409.757C353.209 409.88 353.235 410.013 353.235 410.146C353.235 410.416 353.127 410.675 352.936 410.866C352.746 411.057 352.487 411.164 352.217 411.164Z" fill="#5B9900"/>
<path d="M303.894 382.969C303.766 382.971 303.639 382.948 303.521 382.901C303.396 382.853 303.283 382.779 303.188 382.684L301.831 381.327L300.475 379.971C300.378 379.878 300.301 379.768 300.247 379.646C300.194 379.523 300.165 379.392 300.162 379.258C300.159 378.989 300.262 378.728 300.447 378.532C300.541 378.437 300.653 378.36 300.776 378.308C300.9 378.256 301.032 378.228 301.166 378.227C301.299 378.224 301.432 378.247 301.555 378.296C301.679 378.345 301.791 378.418 301.886 378.512L303.242 379.869L304.599 381.226C304.785 381.405 304.896 381.647 304.911 381.904C304.915 382.038 304.892 382.171 304.843 382.296C304.794 382.421 304.72 382.534 304.626 382.63C304.529 382.729 304.414 382.81 304.287 382.867C304.163 382.925 304.03 382.959 303.894 382.969V382.969Z" fill="#5B9900"/>
<path d="M295.821 402.806C295.551 402.805 295.293 402.698 295.101 402.507C295.007 402.413 294.931 402.301 294.88 402.178C294.829 402.054 294.803 401.922 294.803 401.788V397.521C294.803 397.387 294.829 397.255 294.88 397.131C294.931 397.008 295.007 396.896 295.101 396.802C295.292 396.611 295.551 396.504 295.821 396.504C296.09 396.504 296.349 396.611 296.54 396.802C296.635 396.896 296.71 397.008 296.761 397.131C296.812 397.255 296.838 397.387 296.838 397.521V401.788C296.838 401.922 296.812 402.054 296.761 402.178C296.71 402.301 296.635 402.413 296.54 402.507C296.349 402.698 296.09 402.805 295.821 402.806Z" fill="#5B9900"/>
<path d="M345.962 425.594C345.692 425.594 345.433 425.486 345.242 425.296C345.052 425.105 344.944 424.846 344.944 424.576V420.302C344.944 420.032 345.052 419.773 345.242 419.583C345.433 419.392 345.692 419.284 345.962 419.284C346.232 419.284 346.491 419.392 346.682 419.583C346.872 419.773 346.98 420.032 346.98 420.302V424.576C346.98 424.846 346.872 425.105 346.682 425.296C346.491 425.486 346.232 425.594 345.962 425.594V425.594Z" fill="#5B9900"/>
<path d="M306.716 448.883C306.446 448.883 306.187 448.776 305.997 448.585C305.806 448.395 305.698 448.136 305.698 447.866V443.592C305.698 443.322 305.806 443.063 305.997 442.872C306.187 442.681 306.446 442.574 306.716 442.574C306.85 442.574 306.982 442.6 307.106 442.651C307.229 442.703 307.341 442.778 307.435 442.873C307.625 443.064 307.733 443.322 307.734 443.592V447.879C307.733 448.149 307.625 448.407 307.435 448.599C307.243 448.785 306.984 448.888 306.716 448.883V448.883Z" fill="#5B9900"/>
<path d="M288.317 450.315H274.661C274.527 450.315 274.395 450.289 274.271 450.238C274.148 450.186 274.036 450.111 273.942 450.016C273.752 449.825 273.644 449.567 273.643 449.297C273.643 449.027 273.751 448.769 273.941 448.578C274.132 448.387 274.391 448.28 274.661 448.28H288.317C288.451 448.279 288.583 448.306 288.707 448.357C288.83 448.408 288.942 448.483 289.036 448.578C289.133 448.671 289.209 448.783 289.26 448.907C289.311 449.031 289.337 449.163 289.335 449.297C289.336 449.431 289.311 449.564 289.259 449.687C289.208 449.811 289.132 449.923 289.036 450.016C288.942 450.111 288.83 450.186 288.707 450.238C288.583 450.289 288.451 450.315 288.317 450.315V450.315Z" fill="#5B9900"/>
<path d="M318.554 460.199C318.554 462.938 317.604 465.592 315.866 467.709C314.128 469.826 311.711 471.275 309.024 471.809C306.338 472.343 303.55 471.929 301.134 470.638C298.719 469.347 296.826 467.258 295.778 464.727C294.731 462.197 294.592 459.381 295.388 456.76C296.183 454.14 297.862 451.876 300.14 450.354C302.417 448.833 305.152 448.148 307.877 448.417C310.603 448.686 313.151 449.891 315.087 451.828C316.189 452.925 317.063 454.23 317.658 455.667C318.253 457.104 318.557 458.644 318.554 460.199Z" fill="#DEB8FC"/>
<path d="M357.801 436.414C357.8 439.153 356.85 441.807 355.113 443.924C353.375 446.041 350.957 447.49 348.271 448.024C345.584 448.558 342.796 448.144 340.381 446.853C337.965 445.561 336.073 443.473 335.025 440.942C333.977 438.412 333.839 435.596 334.634 432.975C335.429 430.355 337.109 428.091 339.386 426.569C341.664 425.048 344.398 424.363 347.124 424.632C349.849 424.9 352.397 426.106 354.334 428.043C355.435 429.141 356.308 430.446 356.903 431.882C357.498 433.319 357.803 434.859 357.801 436.414Z" fill="#DEB8FC"/>
<path d="M307.659 413.627C307.659 416.365 306.709 419.019 304.971 421.136C303.233 423.253 300.815 424.702 298.129 425.236C295.443 425.77 292.655 425.356 290.239 424.065C287.824 422.774 285.931 420.685 284.883 418.154C283.835 415.624 283.697 412.809 284.493 410.188C285.288 407.567 286.967 405.303 289.245 403.781C291.522 402.26 294.257 401.575 296.982 401.844C299.708 402.113 302.256 403.318 304.192 405.255C305.294 406.353 306.168 407.657 306.763 409.094C307.358 410.531 307.662 412.071 307.659 413.627Z" fill="#DEB8FC"/>
<path d="M246.69 597.767C242.304 595.659 238.845 592.014 236.968 587.523C235.154 583.292 235.045 578.523 236.663 574.213C238.078 570.662 240.609 567.667 243.874 565.679C247.28 563.586 251.239 562.573 255.231 562.775C252.964 557.52 251.922 551.817 252.185 546.1C252.443 540.347 254.098 534.811 257.456 530.781C261.315 526.227 266.572 523.079 272.408 521.826C275.385 521.132 278.449 520.885 281.499 521.094C287.723 521.566 293.734 523.566 299.002 526.914C303.887 529.997 307.72 534.493 309.992 539.804C311.296 543.081 312.227 546.495 312.767 549.98C313.31 553.332 313.445 556.337 313.16 558.08C319.219 554.664 326.322 553.592 333.119 555.068C339.613 556.432 345.337 560.231 349.116 565.685C352.261 570.39 353.763 576.002 353.39 581.648C353.033 587.525 350.851 593.143 347.149 597.72L296.946 597.761L246.69 597.767Z" fill="#7DBA07"/>
<path d="M20.0944 597.808C15.7056 595.704 12.2432 592.061 10.366 587.571C8.55458 583.336 8.44764 578.565 10.0675 574.254C11.4813 570.703 14.0127 567.71 17.279 565.726C20.6832 563.63 24.6429 562.615 28.6356 562.816C26.3688 557.555 25.3294 551.848 25.5963 546.127C25.8609 540.367 27.5094 534.838 30.8744 530.808C34.7216 526.242 39.976 523.083 45.8129 521.826C48.7865 521.124 51.8493 520.877 54.8969 521.093C61.1231 521.565 67.1371 523.564 72.4066 526.914C77.292 529.997 81.1248 534.493 83.3968 539.804C84.7013 543.081 85.6343 546.495 86.1783 549.98C86.7211 553.331 86.8567 556.337 86.5718 558.121C92.6326 554.709 99.7368 553.647 106.531 555.136C112.569 556.334 117.962 559.698 121.694 564.594C125.426 569.491 127.24 575.582 126.795 581.723C126.439 587.599 124.257 593.218 120.553 597.794H70.351L20.0944 597.808Z" fill="#7DBA07"/>
<path d="M239.594 272.293H235.272C229.096 272.294 222.981 271.078 217.275 268.715C211.569 266.352 206.384 262.888 202.017 258.521C197.65 254.154 194.186 248.97 191.823 243.264C189.46 237.558 188.244 231.442 188.245 225.266V223.109H286.614V225.266C286.613 237.738 281.657 249.698 272.838 258.517C264.019 267.336 252.059 272.292 239.587 272.293H239.594Z" fill="#F1FF7C"/>
<path d="M210.978 430.241C213.075 430.275 219.194 430.003 224.547 426.272C229.899 422.541 234.424 415.356 233.366 401.551C233.178 399.157 232.836 396.778 232.342 394.428C231.841 392.078 231.206 389.758 230.442 387.481L225.598 372.935L220.754 358.397C219.67 355.128 218.241 351.983 216.494 349.015C214.747 346.047 212.662 343.293 210.28 340.806C206.837 337.14 202.706 334.187 198.123 332.116C192.529 329.677 186.377 328.81 180.328 329.605C178.792 329.792 177.269 330.076 175.769 330.453C174.272 330.828 172.795 331.281 171.346 331.81L157.486 336.898L143.64 342.047C141.697 342.754 139.835 343.663 138.083 344.761C136.34 345.872 134.732 347.184 133.294 348.669C131.281 350.729 129.687 353.159 128.599 355.826C127.322 359.057 126.94 362.572 127.493 366.002C127.603 366.706 127.75 367.403 127.934 368.092C128.118 368.77 128.328 369.448 128.565 370.127L139.189 400.194L149.779 430.241H176.278H192.2H208.129H209.554H210.978Z" fill="#7DBA07"/>
<path d="M299.674 598.615C299.562 598.616 299.451 598.593 299.347 598.55C299.243 598.507 299.149 598.444 299.07 598.364C298.915 598.204 298.827 597.99 298.826 597.767V151.157H0.848012C0.623106 151.157 0.407412 151.067 0.248379 150.908C0.0893458 150.749 0 150.533 0 150.308C0 150.084 0.0893458 149.868 0.248379 149.709C0.407412 149.55 0.623106 149.46 0.848012 149.46H300.549V597.767C300.549 597.878 300.526 597.989 300.483 598.091C300.44 598.193 300.377 598.286 300.298 598.364C300.217 598.448 300.12 598.513 300.013 598.556C299.905 598.599 299.79 598.62 299.674 598.615Z" fill="#5B9900"/>
<path d="M156.217 544.37V577.408C156.217 578.38 155.999 579.34 155.579 580.217C155.176 581.065 154.567 581.799 153.809 582.354L144.833 588.907L135.858 595.467C135.653 595.62 135.5 595.832 135.419 596.075C135.339 596.318 135.336 596.58 135.41 596.824C135.461 597.065 135.592 597.281 135.782 597.438C135.972 597.595 136.209 597.682 136.455 597.686H197.125C197.685 597.682 198.238 597.559 198.747 597.325C199.256 597.091 199.709 596.752 200.076 596.329C200.875 595.428 201.312 594.263 201.304 593.059V544.37H156.217Z" fill="#F98638"/>
<path d="M174.677 325.603C174.677 330.071 173.128 334.402 170.294 337.856C167.459 341.311 163.515 343.675 159.132 344.548C154.75 345.42 150.2 344.745 146.259 342.639C142.318 340.533 139.229 337.126 137.519 332.997C135.809 328.869 135.583 324.276 136.879 319.999C138.176 315.723 140.916 312.029 144.631 309.546C148.346 307.063 152.807 305.946 157.254 306.383C161.701 306.821 165.859 308.787 169.019 311.947C170.814 313.738 172.238 315.867 173.209 318.211C174.18 320.554 174.679 323.066 174.677 325.603Z" fill="#FFAA9F"/>
<path d="M148.388 317.123C148.393 319.9 147.434 322.593 145.674 324.742C143.915 326.891 141.465 328.364 138.742 328.909C136.019 329.454 133.191 329.038 130.74 327.731C128.289 326.424 126.368 324.307 125.303 321.742C124.238 319.177 124.096 316.322 124.901 313.664C125.706 311.005 127.408 308.709 129.717 307.165C132.026 305.621 134.798 304.926 137.562 305.198C140.326 305.47 142.911 306.692 144.874 308.656C145.989 309.766 146.874 311.085 147.477 312.538C148.08 313.991 148.39 315.549 148.388 317.123Z" fill="#AD4D4D"/>
<path d="M150.946 423.538H150.844H150.736C150.628 423.512 150.527 423.465 150.438 423.398C150.349 423.332 150.275 423.248 150.22 423.152C150.158 423.051 150.117 422.939 150.1 422.822C150.084 422.706 150.092 422.587 150.125 422.473C151.423 417.264 151.94 411.891 151.658 406.53C151.251 399.312 149.202 390.927 143.307 383.465C141.642 381.367 139.754 379.456 137.676 377.766C135.545 376.032 133.242 374.52 130.804 373.254C130.655 373.177 130.533 373.057 130.452 372.91C130.372 372.763 130.337 372.596 130.351 372.429C130.366 372.262 130.429 372.103 130.534 371.972C130.639 371.842 130.78 371.745 130.94 371.694C131.051 371.658 131.168 371.645 131.285 371.656C131.402 371.666 131.515 371.7 131.618 371.755C134.162 373.074 136.562 374.652 138.782 376.463C140.952 378.231 142.924 380.228 144.664 382.42C150.77 390.154 152.94 398.871 153.368 406.361C153.668 411.922 153.133 417.498 151.78 422.901C151.736 423.087 151.628 423.253 151.475 423.369C151.323 423.482 151.136 423.542 150.946 423.538V423.538Z" fill="#5B9900"/>
<path d="M152.398 313.188C153.05 314.986 153.965 316.677 155.111 318.208C157.235 321.206 160.341 323.366 163.89 324.314C166.079 324.865 168.362 324.93 170.579 324.504C171.949 324.248 173.282 323.825 174.548 323.242C173.951 318.359 171.515 313.888 167.735 310.741C163.955 307.594 159.117 306.007 154.207 306.305C149.297 306.602 144.686 308.762 141.314 312.343C137.942 315.924 136.064 320.657 136.062 325.576C136.062 326.19 136.094 326.803 136.157 327.414C136.211 328.025 136.299 328.622 136.408 329.205C140.49 328.716 144.288 326.867 147.192 323.957C150.097 321.047 151.937 317.244 152.418 313.161L152.398 313.188Z" fill="#AD4D4D"/>
<path d="M107.351 374.971L118.335 371.633L129.318 368.295C133.714 378.213 138.108 388.132 142.5 398.05L155.681 427.805L136.788 433.911L117.894 440.017L99.3734 418.009L80.8528 396.008L82.9219 393.172L84.9911 390.343L99.2377 399.78L113.484 409.217L110.398 392.114L107.351 374.971Z" fill="#F1FF7C"/>
<path d="M143.945 331.105C144.235 331.295 144.437 331.593 144.508 331.932C144.545 332.101 144.548 332.276 144.516 332.446C144.485 332.616 144.42 332.778 144.325 332.923C144.134 333.212 143.836 333.415 143.497 333.486C143.156 333.556 142.801 333.489 142.51 333.298C142.219 333.107 142.015 332.809 141.943 332.468C141.875 332.128 141.943 331.775 142.133 331.485C142.227 331.341 142.349 331.217 142.491 331.12C142.633 331.023 142.793 330.956 142.961 330.921C143.3 330.85 143.654 330.916 143.945 331.105Z" fill="#1F5D00"/>
<path d="M151.781 326.702C151.925 326.795 152.049 326.917 152.145 327.059C152.242 327.201 152.31 327.361 152.344 327.529C152.379 327.698 152.381 327.871 152.349 328.04C152.317 328.21 152.252 328.371 152.158 328.515C152.064 328.658 151.942 328.782 151.8 328.879C151.658 328.976 151.498 329.044 151.33 329.08C151.161 329.115 150.988 329.116 150.818 329.085C150.649 329.053 150.488 328.988 150.344 328.894C150.2 328.799 150.077 328.678 149.98 328.536C149.883 328.394 149.815 328.234 149.779 328.065C149.743 327.896 149.74 327.722 149.772 327.552C149.803 327.382 149.868 327.22 149.963 327.075C150.057 326.931 150.18 326.806 150.323 326.71C150.466 326.613 150.628 326.546 150.797 326.512C150.965 326.476 151.139 326.475 151.308 326.507C151.477 326.54 151.638 326.606 151.781 326.702Z" fill="#1F5D00"/>
<path d="M149.067 339.239C148.813 339.24 148.559 339.226 148.307 339.198C148.076 339.198 147.873 339.137 147.703 339.103C147.593 339.082 147.487 339.039 147.393 338.977C147.299 338.915 147.218 338.835 147.155 338.742C147.092 338.649 147.048 338.544 147.026 338.434C147.003 338.323 147.003 338.21 147.025 338.099C147.074 337.878 147.208 337.686 147.398 337.563C147.49 337.501 147.595 337.458 147.704 337.437C147.814 337.416 147.927 337.417 148.036 337.441C148.47 337.532 148.915 337.564 149.358 337.536C149.991 337.499 150.609 337.328 151.17 337.034C152.005 336.599 152.684 335.913 153.11 335.073C153.362 334.601 153.543 334.093 153.646 333.567C153.687 333.347 153.814 333.153 153.998 333.025C154.182 332.898 154.409 332.849 154.63 332.889C154.852 332.931 155.048 333.058 155.179 333.242C155.306 333.426 155.355 333.653 155.315 333.873C155.18 334.584 154.937 335.27 154.596 335.908C154.179 336.717 153.59 337.424 152.868 337.979C152.147 338.533 151.312 338.922 150.424 339.117C149.977 339.206 149.522 339.247 149.067 339.239Z" fill="#AD4D4D"/>
<path d="M170.484 389.624C169.414 389.03 168.292 388.533 167.133 388.139C165.41 387.46 163.605 386.782 163.28 386.605C162.072 386.042 160.885 385.452 159.704 384.842C158.524 384.231 157.364 383.58 156.217 382.908C155.071 382.236 154.074 381.606 153.036 380.92C151.998 380.235 150.96 379.523 149.942 378.797C149.121 378.207 147.907 377.006 146.55 376.083C145.193 375.161 143.836 374.584 142.683 375.195C141.855 375.636 141.679 376.551 141.808 377.46C141.951 378.346 142.291 379.188 142.805 379.923L145.668 384.224L148.538 388.525L142.317 392.406L136.109 396.32C135.36 396.826 134.765 397.531 134.393 398.355C133.986 399.152 133.821 400.051 133.918 400.94V401.022C134.026 401.617 134.275 402.177 134.644 402.657C134.866 402.943 135.124 403.201 135.411 403.423C135.21 403.792 135.061 404.187 134.97 404.597C134.764 405.489 134.851 406.424 135.217 407.264C135.584 408.103 136.21 408.802 137.005 409.258C136.887 409.636 136.821 410.028 136.808 410.424C136.776 411.126 136.915 411.825 137.215 412.46C137.623 413.291 138.293 413.966 139.121 414.38C139.547 414.607 140.005 414.769 140.478 414.861C140.609 415.14 140.759 415.41 140.926 415.669C141.112 415.959 141.316 416.238 141.537 416.503C142.026 417.073 142.601 417.565 143.239 417.962C143.8 418.311 144.399 418.596 145.024 418.81C145.597 419.005 146.187 419.143 146.788 419.223C147.388 419.304 147.994 419.333 148.599 419.312L158.463 419.006L168.334 418.694L169.419 404.129L170.484 389.624Z" fill="#FFAA9F"/>
<path d="M135.424 404.237C135.229 404.237 135.04 404.17 134.888 404.047C134.734 403.924 134.63 403.747 134.597 403.552C134.553 403.332 134.596 403.103 134.719 402.914C134.781 402.823 134.862 402.744 134.955 402.684C135.048 402.623 135.152 402.582 135.261 402.562L139.108 401.802L142.961 401.069C143.071 401.047 143.184 401.047 143.293 401.069C143.403 401.091 143.507 401.135 143.599 401.198C143.692 401.26 143.771 401.34 143.833 401.433C143.895 401.527 143.937 401.631 143.959 401.741C143.979 401.85 143.978 401.963 143.955 402.072C143.932 402.181 143.888 402.285 143.825 402.377C143.762 402.469 143.681 402.547 143.588 402.608C143.494 402.669 143.39 402.711 143.28 402.731L139.434 403.491L135.587 404.244H135.506L135.424 404.237Z" fill="#AD4D4D"/>
<path d="M137.534 410.024C137.339 410.022 137.151 409.954 137 409.831C136.85 409.707 136.746 409.536 136.706 409.346C136.683 409.236 136.683 409.123 136.705 409.014C136.727 408.904 136.771 408.8 136.835 408.708C136.895 408.615 136.974 408.535 137.066 408.473C137.158 408.412 137.262 408.369 137.371 408.348L141.217 407.595L145.064 406.836C145.285 406.796 145.513 406.843 145.702 406.965C145.795 407.026 145.876 407.105 145.938 407.199C145.999 407.292 146.041 407.397 146.061 407.507C146.084 407.617 146.084 407.73 146.061 407.839C146.039 407.949 145.995 408.053 145.932 408.145C145.806 408.329 145.614 408.457 145.396 408.505L141.55 409.258L137.696 410.011H137.615L137.534 410.024Z" fill="#AD4D4D"/>
<path d="M167.153 544.444V577.456C167.143 578.433 166.911 579.396 166.475 580.271C166.07 581.117 165.464 581.85 164.711 582.408L155.77 588.989L146.787 595.542C146.586 595.697 146.435 595.91 146.357 596.152C146.278 596.394 146.274 596.655 146.346 596.899C146.397 597.14 146.528 597.358 146.717 597.515C146.907 597.673 147.145 597.762 147.391 597.767H208.088C208.648 597.763 209.201 597.64 209.71 597.406C210.218 597.172 210.672 596.833 211.04 596.411C211.842 595.509 212.279 594.341 212.267 593.134V544.444H167.153Z" fill="#F98638"/>
<path d="M149.779 430.268L153.096 487.315L156.414 544.37H184.324H212.24V487.315V430.268H181.006H149.779Z" fill="#5B9900"/>
<path d="M140.77 415.804C140.574 415.806 140.385 415.738 140.234 415.614C140.079 415.489 139.974 415.314 139.935 415.119C139.914 415.009 139.914 414.896 139.937 414.786C139.959 414.676 140.003 414.572 140.066 414.479C140.129 414.386 140.21 414.307 140.304 414.245C140.398 414.184 140.503 414.142 140.614 414.122L143.497 413.559L146.38 412.996C146.489 412.974 146.6 412.974 146.709 412.996C146.817 413.018 146.92 413.062 147.011 413.125C147.105 413.184 147.186 413.262 147.248 413.354C147.31 413.447 147.352 413.551 147.371 413.661C147.412 413.883 147.364 414.112 147.237 414.299C147.11 414.486 146.914 414.615 146.692 414.658L143.809 415.221L140.926 415.791H140.763L140.77 415.804Z" fill="#AD4D4D"/>
<path d="M167.153 545.292C166.931 545.293 166.717 545.208 166.556 545.055C166.398 544.899 166.308 544.687 166.305 544.465L165.159 496.047L163.992 447.608C163.989 447.384 164.074 447.167 164.229 447.004C164.305 446.923 164.396 446.857 164.497 446.812C164.599 446.767 164.708 446.742 164.819 446.74C165.046 446.741 165.264 446.829 165.43 446.984C165.512 447.058 165.577 447.148 165.621 447.248C165.666 447.349 165.688 447.457 165.688 447.567L166.834 495.999L167.981 544.431C167.982 544.655 167.897 544.871 167.743 545.035C167.667 545.115 167.576 545.179 167.475 545.224C167.373 545.268 167.264 545.291 167.153 545.292V545.292V545.292Z" fill="#1F5D00"/>
<path d="M117.894 440.824C117.69 440.825 117.493 440.753 117.338 440.62C117.182 440.487 117.08 440.301 117.053 440.098L114.875 424.691L112.697 409.291C112.68 409.181 112.686 409.068 112.714 408.959C112.742 408.851 112.792 408.749 112.86 408.66C112.996 408.483 113.196 408.367 113.416 408.335C113.527 408.318 113.64 408.323 113.749 408.351C113.857 408.379 113.959 408.429 114.047 408.498C114.224 408.633 114.341 408.833 114.373 409.054L116.551 424.454L118.728 439.86C118.745 439.97 118.74 440.081 118.713 440.188C118.687 440.296 118.639 440.396 118.572 440.485C118.435 440.665 118.233 440.784 118.009 440.817H117.894V440.824Z" fill="#5B9900"/>
<path d="M116.177 378.878C114.185 378.869 112.213 378.465 110.377 377.691C109.342 377.272 108.358 376.735 107.446 376.09C107.356 376.025 107.28 375.943 107.222 375.849C107.164 375.755 107.125 375.65 107.107 375.54C107.071 375.319 107.125 375.092 107.256 374.91C107.322 374.819 107.405 374.742 107.5 374.684C107.596 374.626 107.702 374.587 107.813 374.57C108.034 374.535 108.261 374.589 108.443 374.72C109.557 375.487 110.778 376.086 112.066 376.497C114.562 377.353 117.263 377.407 119.791 376.652C122.319 375.896 124.547 374.369 126.164 372.284C127.024 371.227 127.721 370.047 128.233 368.783C128.313 368.572 128.474 368.401 128.68 368.309C128.887 368.224 129.118 368.224 129.325 368.309C129.536 368.389 129.706 368.55 129.799 368.756C129.892 368.962 129.9 369.196 129.82 369.408C129.223 370.907 128.395 372.304 127.364 373.546C125.526 375.811 123.045 377.467 120.248 378.295C119.562 378.502 118.861 378.657 118.152 378.756C117.497 378.843 116.837 378.883 116.177 378.878V378.878Z" fill="#5B9900"/>
<path d="M147.391 598.615H147.351C147.118 598.6 146.89 598.55 146.672 598.466C146.312 598.335 146 598.099 145.777 597.788C145.582 597.521 145.463 597.207 145.431 596.879C145.4 596.531 145.448 596.18 145.573 595.854C145.68 595.543 145.859 595.262 146.096 595.033C146.256 594.87 146.439 594.731 146.638 594.62L155.01 588.514L163.388 582.408C164.092 581.997 164.717 581.464 165.234 580.834C165.42 580.611 165.573 580.362 165.688 580.095L165.736 580L165.783 579.905C166.057 579.319 166.211 578.685 166.238 578.039C166.315 577.255 166.34 576.466 166.312 575.678V544.471C166.313 544.248 166.401 544.034 166.556 543.874C166.676 543.758 166.827 543.679 166.991 543.647C167.155 543.615 167.324 543.632 167.479 543.696C167.633 543.759 167.765 543.866 167.86 544.004C167.954 544.142 168.005 544.305 168.008 544.471V575.678C168.031 576.425 168.015 577.172 167.961 577.917C167.933 578.91 167.702 579.887 167.282 580.787C167.091 581.229 166.835 581.641 166.523 582.008C165.9 582.749 165.157 583.38 164.324 583.874L155.912 589.979L147.5 596.085C147.446 596.112 147.396 596.147 147.351 596.187C147.279 596.248 147.225 596.328 147.195 596.417C147.17 596.476 147.154 596.538 147.147 596.6C147.135 596.667 147.15 596.735 147.188 596.79C147.229 596.843 147.286 596.881 147.351 596.899H147.459C147.571 596.903 147.68 596.929 147.781 596.976C147.883 597.022 147.974 597.089 148.049 597.17C148.2 597.34 148.278 597.561 148.267 597.788C148.258 598.004 148.166 598.209 148.009 598.358C147.929 598.441 147.833 598.506 147.727 598.551C147.621 598.595 147.506 598.617 147.391 598.615V598.615Z" fill="#1F5D00"/>
<path d="M196.949 394.685L183.666 392.575L170.369 390.459C170.258 390.442 170.152 390.404 170.057 390.345C169.961 390.287 169.878 390.21 169.813 390.12C169.746 390.03 169.699 389.928 169.673 389.82C169.648 389.711 169.644 389.599 169.663 389.489C169.68 389.378 169.719 389.272 169.777 389.176C169.835 389.081 169.912 388.998 170.003 388.932C170.186 388.804 170.412 388.751 170.634 388.783L182.424 390.662L194.222 392.535L190.606 383.919L186.97 375.29C186.924 375.182 186.901 375.067 186.901 374.95C186.901 374.834 186.924 374.719 186.97 374.611C187.01 374.508 187.071 374.413 187.15 374.334C187.228 374.255 187.321 374.192 187.424 374.15C187.531 374.102 187.647 374.078 187.763 374.078C187.88 374.078 187.996 374.102 188.103 374.15C188.31 374.236 188.475 374.399 188.564 374.604L192.77 384.625L196.949 394.685Z" fill="#1F5D00"/>
<path d="M204.893 430.919H204.765C204.722 430.925 204.678 430.925 204.636 430.919L186.38 425.153L168.063 419.44C167.956 419.409 167.857 419.356 167.772 419.285C167.687 419.214 167.617 419.126 167.567 419.027C167.51 418.924 167.476 418.811 167.465 418.694C167.455 418.577 167.469 418.459 167.506 418.348C167.539 418.242 167.594 418.143 167.666 418.058C167.738 417.973 167.827 417.903 167.927 417.853C168.025 417.801 168.132 417.768 168.243 417.758C168.354 417.748 168.465 417.759 168.571 417.792L186.848 423.497L205.124 429.21C205.23 429.241 205.329 429.295 205.414 429.366C205.499 429.437 205.569 429.525 205.619 429.623C205.676 429.726 205.711 429.839 205.722 429.956C205.732 430.073 205.718 430.191 205.68 430.302C205.628 430.477 205.518 430.63 205.368 430.736C205.232 430.843 205.067 430.907 204.893 430.919Z" fill="#1F5D00"/>
<path d="M259.167 221.121C259.203 220.107 259.086 219.094 258.821 218.116C258.535 217.07 258.092 216.075 257.504 215.164C256.396 213.469 254.742 212.203 252.817 211.576C250.897 210.921 248.805 210.984 246.928 211.752C243.115 213.367 241.887 217.071 241.921 221.08C242.065 224.929 242.93 228.717 244.472 232.247L244.655 232.661C244.723 232.803 244.784 232.939 244.852 233.074C244.988 233.346 245.605 234.594 246.209 235.747C246.813 236.901 247.423 237.979 247.566 237.905C250.444 235.913 253.008 233.5 255.171 230.748C257.403 227.817 259.058 224.479 259.167 221.121Z" fill="#83C00E"/>
<path d="M258.02 255.733C257.69 254.776 257.219 253.872 256.622 253.054C255.982 252.179 255.211 251.408 254.336 250.767C252.694 249.58 250.695 248.989 248.671 249.092C246.647 249.169 244.72 249.977 243.244 251.364C240.266 254.234 240.442 258.148 241.887 261.866C243.404 265.403 245.569 268.624 248.271 271.364C248.373 271.472 248.482 271.574 248.59 271.683L248.922 272.002C249.14 272.205 250.164 273.141 251.148 274.037C252.131 274.932 253.081 275.679 253.183 275.57C255.165 272.684 256.697 269.513 257.728 266.167C258.766 262.619 259.119 258.908 258.02 255.733Z" fill="#83C00E"/>
<path d="M245.109 238.251C245.072 237.24 244.884 236.241 244.553 235.286C244.196 234.263 243.681 233.301 243.027 232.437C241.804 230.823 240.066 229.676 238.101 229.187C236.141 228.664 234.057 228.873 232.24 229.777C228.549 231.657 227.586 235.435 227.905 239.438C228.319 243.267 229.452 246.984 231.243 250.394L231.453 250.795L231.677 251.195C231.833 251.453 232.532 252.653 233.224 253.766C233.916 254.879 234.58 255.903 234.703 255.801C237.438 253.614 239.826 251.025 241.785 248.122C243.827 245.089 245.238 241.643 245.109 238.251Z" fill="#83C00E"/>
<path d="M264.722 191.698C264.683 190.686 264.498 189.686 264.173 188.727C263.811 187.705 263.297 186.744 262.646 185.878C261.421 184.263 259.681 183.117 257.714 182.628C255.753 182.108 253.671 182.318 251.853 183.218C248.169 185.097 247.206 188.883 247.518 192.879C247.927 196.706 249.05 200.422 250.828 203.835C250.896 203.971 250.971 204.106 251.045 204.242C251.12 204.378 251.188 204.507 251.269 204.636C251.419 204.893 252.124 206.094 252.816 207.207C253.508 208.319 254.173 209.344 254.288 209.242C257.029 207.073 259.426 204.502 261.398 201.617C263.44 198.503 264.858 195.056 264.722 191.698Z" fill="#83C00E"/>
<path d="M247.342 181.651C247.838 180.772 248.199 179.823 248.414 178.836C248.643 177.775 248.707 176.686 248.603 175.606C248.406 173.589 247.52 171.701 246.093 170.261C244.696 168.789 242.81 167.877 240.788 167.696C236.663 167.377 233.868 170.098 232.05 173.673C230.406 177.155 229.431 180.916 229.174 184.758C229.174 184.907 229.174 185.063 229.174 185.213V185.667C229.174 185.973 229.174 187.363 229.174 188.673C229.174 189.982 229.228 191.21 229.357 191.196C232.831 190.756 236.218 189.793 239.404 188.34C242.688 186.787 245.693 184.589 247.342 181.651Z" fill="#83C00E"/>
<path d="M227.762 229.71C228.261 228.83 228.624 227.881 228.841 226.894C229.07 225.834 229.134 224.745 229.031 223.665C228.828 221.649 227.942 219.763 226.521 218.319C225.121 216.851 223.236 215.942 221.216 215.761C217.091 215.443 214.289 218.163 212.471 221.738C210.836 225.223 209.87 228.983 209.622 232.823C209.622 232.973 209.622 233.129 209.622 233.278C209.622 233.427 209.622 233.583 209.622 233.733C209.622 234.038 209.588 235.429 209.622 236.738C209.655 238.047 209.676 239.275 209.805 239.262C213.278 238.82 216.665 237.857 219.852 236.405C223.142 234.859 226.148 232.647 227.762 229.71Z" fill="#83C00E"/>
<path d="M225.924 189.046C225.569 188.096 225.075 187.204 224.459 186.4C223.798 185.542 223.008 184.791 222.118 184.175C220.446 183.03 218.433 182.489 216.413 182.642C214.389 182.763 212.48 183.617 211.04 185.043C208.129 187.987 208.401 191.881 209.954 195.572C211.555 199.076 213.799 202.249 216.569 204.927L216.901 205.246L217.234 205.551C217.464 205.748 218.509 206.664 219.513 207.505C220.517 208.346 221.487 209.106 221.548 208.991C223.453 206.059 224.905 202.857 225.856 199.493C226.84 195.911 227.084 192.194 225.924 189.046Z" fill="#83C00E"/>
<path d="M271.133 169.962C270.462 168.973 269.645 168.09 268.712 167.343C267.71 166.547 266.591 165.911 265.394 165.457C263.154 164.616 260.694 164.563 258.42 165.308C256.134 166.026 254.186 167.549 252.938 169.596C250.435 173.795 251.853 178.178 254.682 181.977C257.511 185.542 260.983 188.545 264.919 190.83L265.387 191.094C265.543 191.183 265.699 191.271 265.862 191.352C266.174 191.515 267.633 192.268 269.024 192.947C270.414 193.625 271.737 194.222 271.798 194.073C273.152 190.163 273.906 186.071 274.037 181.936C274.139 177.574 273.379 173.239 271.133 169.962Z" fill="#5B9900"/>
<path d="M213.156 209.574C213.078 208.562 212.85 207.568 212.478 206.623C212.083 205.616 211.536 204.676 210.856 203.835C209.577 202.263 207.798 201.176 205.816 200.755C203.838 200.307 201.765 200.591 199.981 201.556C196.359 203.591 195.531 207.376 195.986 211.359C196.535 215.178 197.796 218.859 199.703 222.213C199.778 222.349 199.853 222.478 199.934 222.607L200.171 223C200.334 223.251 201.074 224.425 201.806 225.51C202.539 226.596 203.251 227.6 203.353 227.512C206.003 225.232 208.29 222.562 210.137 219.595C212.111 216.42 213.407 212.926 213.156 209.574Z" fill="#5B9900"/>
<path d="M275.794 209.812C275.433 208.867 274.935 207.98 274.315 207.18C273.644 206.327 272.845 205.584 271.948 204.975C270.27 203.839 268.254 203.313 266.235 203.482C264.211 203.62 262.306 204.491 260.876 205.931C257.993 208.896 258.298 212.783 259.886 216.467C261.51 219.959 263.777 223.114 266.568 225.768L266.9 226.08L267.24 226.385C267.47 226.582 268.522 227.491 269.533 228.319C270.543 229.146 271.52 229.906 271.568 229.791C273.45 226.841 274.875 223.622 275.794 220.246C276.764 216.671 276.995 212.953 275.794 209.812Z" fill="#83C00E"/>
<path d="M271.262 235.578C270.902 234.631 270.401 233.744 269.777 232.945C269.11 232.092 268.313 231.348 267.416 230.741C265.74 229.602 263.723 229.075 261.704 229.248C259.679 229.386 257.774 230.257 256.344 231.697C253.461 234.662 253.766 238.549 255.347 242.233C256.974 245.725 259.243 248.88 262.036 251.534L262.368 251.846L262.708 252.151C262.938 252.348 263.99 253.257 265.001 254.085C266.012 254.912 266.988 255.672 267.036 255.557C268.918 252.607 270.343 249.388 271.262 246.012C272.233 242.436 272.463 238.719 271.262 235.578Z" fill="#5B9900"/>
<path d="M245.36 202.817C245.247 201.811 244.984 200.828 244.58 199.9C244.144 198.912 243.558 197.997 242.844 197.186C241.498 195.671 239.678 194.659 237.681 194.317C235.688 193.949 233.629 194.318 231.887 195.355C228.353 197.512 227.674 201.352 228.292 205.314C228.996 209.101 230.406 212.721 232.45 215.985L232.695 216.372C232.776 216.501 232.857 216.63 232.946 216.752C233.115 217.003 233.909 218.109 234.682 219.201C235.456 220.293 236.216 221.236 236.31 221.134C238.87 218.747 241.055 215.986 242.789 212.946C244.594 209.703 245.74 206.162 245.36 202.817Z" fill="#5B9900"/>
</svg>
