<svg width="22" height="16" viewBox="0 0 22 16" fill="none" xmlns="http://www.w3.org/2000/svg">
<path d="M15 0C15.2652 0 15.5196 0.105357 15.7071 0.292893C15.8946 0.48043 16 0.734784 16 1V5.2L21.213 1.55C21.288 1.49746 21.3759 1.4665 21.4672 1.4605C21.5586 1.4545 21.6498 1.4737 21.731 1.51599C21.8122 1.55829 21.8802 1.62206 21.9276 1.70035C21.9751 1.77865 22.0001 1.86846 22 1.96V14.04C22.0001 14.1315 21.9751 14.2214 21.9276 14.2996C21.8802 14.3779 21.8122 14.4417 21.731 14.484C21.6498 14.5263 21.5586 14.5455 21.4672 14.5395C21.3759 14.5335 21.288 14.5025 21.213 14.45L16 10.8V15C16 15.2652 15.8946 15.5196 15.7071 15.7071C15.5196 15.8946 15.2652 16 15 16H1C0.734784 16 0.48043 15.8946 0.292893 15.7071C0.105357 15.5196 0 15.2652 0 15V1C0 0.734784 0.105357 0.48043 0.292893 0.292893C0.48043 0.105357 0.734784 0 1 0H15ZM6.4 4.829C6.30779 4.82898 6.2184 4.86082 6.14697 4.91914C6.07553 4.97745 6.02644 5.05865 6.008 5.149L6 5.228V10.77C5.99999 10.8348 6.01572 10.8986 6.04582 10.9559C6.07592 11.0133 6.11951 11.0625 6.17282 11.0993C6.22614 11.1361 6.28759 11.1594 6.3519 11.1672C6.4162 11.1749 6.48144 11.167 6.542 11.144L6.615 11.108L10.97 8.336C11.0208 8.30349 11.0636 8.25991 11.0952 8.20852C11.1268 8.15713 11.1464 8.09925 11.1524 8.03924C11.1585 7.97922 11.1509 7.91861 11.1302 7.86194C11.1095 7.80527 11.0763 7.75401 11.033 7.712L10.97 7.662L6.615 4.89C6.55048 4.85 6.47591 4.82919 6.4 4.83V4.829Z" fill="#7CBD1E"/>
</svg>
