<svg width="18" height="20" viewBox="0 0 18 20" fill="none" xmlns="http://www.w3.org/2000/svg">
<path d="M4.31587 0.666504C5.47974 0.666176 6.62157 0.991269 7.61796 1.60665C8.61435 2.22203 9.42741 3.1043 9.96927 4.1581C10.5167 3.36671 11.2418 2.72131 12.0836 2.27614C12.9255 1.83097 13.8595 1.59904 14.8071 1.59984H18.0001V3.93317C18.0001 5.54215 17.3753 7.08523 16.2633 8.22295C15.1512 9.36067 13.6429 9.99984 12.0703 9.99984H10.7018V10.9332H15.2632V17.4665C15.2632 17.9616 15.071 18.4364 14.7288 18.7864C14.3867 19.1365 13.9226 19.3332 13.4387 19.3332H6.14043C5.65653 19.3332 5.19244 19.1365 4.85027 18.7864C4.5081 18.4364 4.31587 17.9616 4.31587 17.4665V10.9332H8.87727V9.0665H7.05271C5.35905 9.0665 3.73475 8.37817 2.53715 7.15293C1.33955 5.9277 0.666748 4.26592 0.666748 2.53317V0.666504H4.31587ZM13.4387 12.7998H6.14043V17.4665H13.4387V12.7998ZM16.1755 3.4665H14.8071C13.7183 3.4665 12.6741 3.909 11.9042 4.69666C11.1344 5.48431 10.7018 6.55259 10.7018 7.6665V8.13317H12.0703C12.6094 8.13317 13.1432 8.02453 13.6413 7.81347C14.1393 7.6024 14.5919 7.29303 14.9731 6.90302C15.3543 6.51301 15.6567 6.05001 15.863 5.54044C16.0693 5.03087 16.1755 4.48472 16.1755 3.93317V3.4665ZM4.31587 2.53317H2.49131C2.49131 3.77085 2.97188 4.95783 3.82731 5.833C4.68274 6.70817 5.84295 7.19984 7.05271 7.19984H8.87727C8.87727 5.96216 8.3967 4.77518 7.54127 3.90001C6.68584 3.02484 5.52563 2.53317 4.31587 2.53317Z" fill="#7CBD1E"/>
</svg>
